G04*
G04 #@! TF.GenerationSoftware,Altium Limited,Altium Designer,20.2.6 (244)*
G04*
G04 Layer_Physical_Order=2*
G04 Layer_Color=16711680*
%FSLAX43Y43*%
%MOMM*%
G71*
G04*
G04 #@! TF.SameCoordinates,C84C0C97-952F-48A7-9790-35694251DD82*
G04*
G04*
G04 #@! TF.FilePolarity,Positive*
G04*
G01*
G75*
%ADD15C,0.381*%
%ADD16C,0.203*%
%ADD17C,0.200*%
%ADD18C,0.203*%
%ADD19O,2.600X1.600*%
G04:AMPARAMS|DCode=20|XSize=2.6mm|YSize=1.6mm|CornerRadius=0.4mm|HoleSize=0mm|Usage=FLASHONLY|Rotation=0.000|XOffset=0mm|YOffset=0mm|HoleType=Round|Shape=RoundedRectangle|*
%AMROUNDEDRECTD20*
21,1,2.600,0.800,0,0,0.0*
21,1,1.800,1.600,0,0,0.0*
1,1,0.800,0.900,-0.400*
1,1,0.800,-0.900,-0.400*
1,1,0.800,-0.900,0.400*
1,1,0.800,0.900,0.400*
%
%ADD20ROUNDEDRECTD20*%
%ADD21C,1.600*%
%ADD22R,1.600X1.600*%
%ADD23C,0.600*%
%ADD24C,1.000*%
%ADD25C,0.229*%
G04:AMPARAMS|DCode=26|XSize=0.5mm|YSize=0.5mm|CornerRadius=0.025mm|HoleSize=0mm|Usage=FLASHONLY|Rotation=0.000|XOffset=0mm|YOffset=0mm|HoleType=Round|Shape=RoundedRectangle|*
%AMROUNDEDRECTD26*
21,1,0.500,0.450,0,0,0.0*
21,1,0.450,0.500,0,0,0.0*
1,1,0.050,0.225,-0.225*
1,1,0.050,-0.225,-0.225*
1,1,0.050,-0.225,0.225*
1,1,0.050,0.225,0.225*
%
%ADD26ROUNDEDRECTD26*%
G04:AMPARAMS|DCode=27|XSize=1.05mm|YSize=1.35mm|CornerRadius=0.053mm|HoleSize=0mm|Usage=FLASHONLY|Rotation=90.000|XOffset=0mm|YOffset=0mm|HoleType=Round|Shape=RoundedRectangle|*
%AMROUNDEDRECTD27*
21,1,1.050,1.245,0,0,90.0*
21,1,0.945,1.350,0,0,90.0*
1,1,0.105,0.623,0.472*
1,1,0.105,0.623,-0.472*
1,1,0.105,-0.623,-0.472*
1,1,0.105,-0.623,0.472*
%
%ADD27ROUNDEDRECTD27*%
G04:AMPARAMS|DCode=28|XSize=0.5mm|YSize=0.5mm|CornerRadius=0.025mm|HoleSize=0mm|Usage=FLASHONLY|Rotation=90.000|XOffset=0mm|YOffset=0mm|HoleType=Round|Shape=RoundedRectangle|*
%AMROUNDEDRECTD28*
21,1,0.500,0.450,0,0,90.0*
21,1,0.450,0.500,0,0,90.0*
1,1,0.050,0.225,0.225*
1,1,0.050,0.225,-0.225*
1,1,0.050,-0.225,-0.225*
1,1,0.050,-0.225,0.225*
%
%ADD28ROUNDEDRECTD28*%
G04:AMPARAMS|DCode=29|XSize=0.5mm|YSize=0.55mm|CornerRadius=0.025mm|HoleSize=0mm|Usage=FLASHONLY|Rotation=0.000|XOffset=0mm|YOffset=0mm|HoleType=Round|Shape=RoundedRectangle|*
%AMROUNDEDRECTD29*
21,1,0.500,0.500,0,0,0.0*
21,1,0.450,0.550,0,0,0.0*
1,1,0.050,0.225,-0.250*
1,1,0.050,-0.225,-0.250*
1,1,0.050,-0.225,0.250*
1,1,0.050,0.225,0.250*
%
%ADD29ROUNDEDRECTD29*%
%ADD30R,1.050X1.400*%
G04:AMPARAMS|DCode=31|XSize=0.6mm|YSize=1mm|CornerRadius=0.075mm|HoleSize=0mm|Usage=FLASHONLY|Rotation=180.000|XOffset=0mm|YOffset=0mm|HoleType=Round|Shape=RoundedRectangle|*
%AMROUNDEDRECTD31*
21,1,0.600,0.850,0,0,180.0*
21,1,0.450,1.000,0,0,180.0*
1,1,0.150,-0.225,0.425*
1,1,0.150,0.225,0.425*
1,1,0.150,0.225,-0.425*
1,1,0.150,-0.225,-0.425*
%
%ADD31ROUNDEDRECTD31*%
G04:AMPARAMS|DCode=32|XSize=0.6mm|YSize=1.2mm|CornerRadius=0.075mm|HoleSize=0mm|Usage=FLASHONLY|Rotation=90.000|XOffset=0mm|YOffset=0mm|HoleType=Round|Shape=RoundedRectangle|*
%AMROUNDEDRECTD32*
21,1,0.600,1.050,0,0,90.0*
21,1,0.450,1.200,0,0,90.0*
1,1,0.150,0.525,0.225*
1,1,0.150,0.525,-0.225*
1,1,0.150,-0.525,-0.225*
1,1,0.150,-0.525,0.225*
%
%ADD32ROUNDEDRECTD32*%
G04:AMPARAMS|DCode=33|XSize=0.42mm|YSize=0.55mm|CornerRadius=0.021mm|HoleSize=0mm|Usage=FLASHONLY|Rotation=90.000|XOffset=0mm|YOffset=0mm|HoleType=Round|Shape=RoundedRectangle|*
%AMROUNDEDRECTD33*
21,1,0.420,0.508,0,0,90.0*
21,1,0.378,0.550,0,0,90.0*
1,1,0.042,0.254,0.189*
1,1,0.042,0.254,-0.189*
1,1,0.042,-0.254,-0.189*
1,1,0.042,-0.254,0.189*
%
%ADD33ROUNDEDRECTD33*%
G04:AMPARAMS|DCode=34|XSize=1mm|YSize=1.8mm|CornerRadius=0.125mm|HoleSize=0mm|Usage=FLASHONLY|Rotation=90.000|XOffset=0mm|YOffset=0mm|HoleType=Round|Shape=RoundedRectangle|*
%AMROUNDEDRECTD34*
21,1,1.000,1.550,0,0,90.0*
21,1,0.750,1.800,0,0,90.0*
1,1,0.250,0.775,0.375*
1,1,0.250,0.775,-0.375*
1,1,0.250,-0.775,-0.375*
1,1,0.250,-0.775,0.375*
%
%ADD34ROUNDEDRECTD34*%
G04:AMPARAMS|DCode=35|XSize=1.9mm|YSize=1.9mm|CornerRadius=0.238mm|HoleSize=0mm|Usage=FLASHONLY|Rotation=180.000|XOffset=0mm|YOffset=0mm|HoleType=Round|Shape=RoundedRectangle|*
%AMROUNDEDRECTD35*
21,1,1.900,1.425,0,0,180.0*
21,1,1.425,1.900,0,0,180.0*
1,1,0.475,-0.713,0.713*
1,1,0.475,0.713,0.713*
1,1,0.475,0.713,-0.713*
1,1,0.475,-0.713,-0.713*
%
%ADD35ROUNDEDRECTD35*%
G04:AMPARAMS|DCode=36|XSize=0.4mm|YSize=1.35mm|CornerRadius=0.05mm|HoleSize=0mm|Usage=FLASHONLY|Rotation=90.000|XOffset=0mm|YOffset=0mm|HoleType=Round|Shape=RoundedRectangle|*
%AMROUNDEDRECTD36*
21,1,0.400,1.250,0,0,90.0*
21,1,0.300,1.350,0,0,90.0*
1,1,0.100,0.625,0.150*
1,1,0.100,0.625,-0.150*
1,1,0.100,-0.625,-0.150*
1,1,0.100,-0.625,0.150*
%
%ADD36ROUNDEDRECTD36*%
G04:AMPARAMS|DCode=37|XSize=1.3mm|YSize=1.45mm|CornerRadius=0.163mm|HoleSize=0mm|Usage=FLASHONLY|Rotation=180.000|XOffset=0mm|YOffset=0mm|HoleType=Round|Shape=RoundedRectangle|*
%AMROUNDEDRECTD37*
21,1,1.300,1.125,0,0,180.0*
21,1,0.975,1.450,0,0,180.0*
1,1,0.325,-0.488,0.563*
1,1,0.325,0.488,0.563*
1,1,0.325,0.488,-0.563*
1,1,0.325,-0.488,-0.563*
%
%ADD37ROUNDEDRECTD37*%
G04:AMPARAMS|DCode=38|XSize=1.4mm|YSize=1.6mm|CornerRadius=0.175mm|HoleSize=0mm|Usage=FLASHONLY|Rotation=180.000|XOffset=0mm|YOffset=0mm|HoleType=Round|Shape=RoundedRectangle|*
%AMROUNDEDRECTD38*
21,1,1.400,1.250,0,0,180.0*
21,1,1.050,1.600,0,0,180.0*
1,1,0.350,-0.525,0.625*
1,1,0.350,0.525,0.625*
1,1,0.350,0.525,-0.625*
1,1,0.350,-0.525,-0.625*
%
%ADD38ROUNDEDRECTD38*%
%ADD39R,0.550X1.200*%
G04:AMPARAMS|DCode=40|XSize=0.7mm|YSize=0.8mm|CornerRadius=0.035mm|HoleSize=0mm|Usage=FLASHONLY|Rotation=270.000|XOffset=0mm|YOffset=0mm|HoleType=Round|Shape=RoundedRectangle|*
%AMROUNDEDRECTD40*
21,1,0.700,0.730,0,0,270.0*
21,1,0.630,0.800,0,0,270.0*
1,1,0.070,-0.365,-0.315*
1,1,0.070,-0.365,0.315*
1,1,0.070,0.365,0.315*
1,1,0.070,0.365,-0.315*
%
%ADD40ROUNDEDRECTD40*%
G04:AMPARAMS|DCode=41|XSize=0.5mm|YSize=0.55mm|CornerRadius=0.025mm|HoleSize=0mm|Usage=FLASHONLY|Rotation=90.000|XOffset=0mm|YOffset=0mm|HoleType=Round|Shape=RoundedRectangle|*
%AMROUNDEDRECTD41*
21,1,0.500,0.500,0,0,90.0*
21,1,0.450,0.550,0,0,90.0*
1,1,0.050,0.250,0.225*
1,1,0.050,0.250,-0.225*
1,1,0.050,-0.250,-0.225*
1,1,0.050,-0.250,0.225*
%
%ADD41ROUNDEDRECTD41*%
G04:AMPARAMS|DCode=42|XSize=0.95mm|YSize=0.8mm|CornerRadius=0.1mm|HoleSize=0mm|Usage=FLASHONLY|Rotation=180.000|XOffset=0mm|YOffset=0mm|HoleType=Round|Shape=RoundedRectangle|*
%AMROUNDEDRECTD42*
21,1,0.950,0.600,0,0,180.0*
21,1,0.750,0.800,0,0,180.0*
1,1,0.200,-0.375,0.300*
1,1,0.200,0.375,0.300*
1,1,0.200,0.375,-0.300*
1,1,0.200,-0.375,-0.300*
%
%ADD42ROUNDEDRECTD42*%
G04:AMPARAMS|DCode=43|XSize=0.4mm|YSize=0.8mm|CornerRadius=0.05mm|HoleSize=0mm|Usage=FLASHONLY|Rotation=180.000|XOffset=0mm|YOffset=0mm|HoleType=Round|Shape=RoundedRectangle|*
%AMROUNDEDRECTD43*
21,1,0.400,0.700,0,0,180.0*
21,1,0.300,0.800,0,0,180.0*
1,1,0.100,-0.150,0.350*
1,1,0.100,0.150,0.350*
1,1,0.100,0.150,-0.350*
1,1,0.100,-0.150,-0.350*
%
%ADD43ROUNDEDRECTD43*%
G04:AMPARAMS|DCode=44|XSize=0.55mm|YSize=0.8mm|CornerRadius=0.069mm|HoleSize=0mm|Usage=FLASHONLY|Rotation=90.000|XOffset=0mm|YOffset=0mm|HoleType=Round|Shape=RoundedRectangle|*
%AMROUNDEDRECTD44*
21,1,0.550,0.663,0,0,90.0*
21,1,0.413,0.800,0,0,90.0*
1,1,0.138,0.331,0.206*
1,1,0.138,0.331,-0.206*
1,1,0.138,-0.331,-0.206*
1,1,0.138,-0.331,0.206*
%
%ADD44ROUNDEDRECTD44*%
G04:AMPARAMS|DCode=45|XSize=0.7mm|YSize=0.25mm|CornerRadius=0.063mm|HoleSize=0mm|Usage=FLASHONLY|Rotation=180.000|XOffset=0mm|YOffset=0mm|HoleType=Round|Shape=RoundedRectangle|*
%AMROUNDEDRECTD45*
21,1,0.700,0.125,0,0,180.0*
21,1,0.575,0.250,0,0,180.0*
1,1,0.125,-0.288,0.063*
1,1,0.125,0.288,0.063*
1,1,0.125,0.288,-0.063*
1,1,0.125,-0.288,-0.063*
%
%ADD45ROUNDEDRECTD45*%
G04:AMPARAMS|DCode=46|XSize=0.7mm|YSize=0.25mm|CornerRadius=0.063mm|HoleSize=0mm|Usage=FLASHONLY|Rotation=270.000|XOffset=0mm|YOffset=0mm|HoleType=Round|Shape=RoundedRectangle|*
%AMROUNDEDRECTD46*
21,1,0.700,0.125,0,0,270.0*
21,1,0.575,0.250,0,0,270.0*
1,1,0.125,-0.063,-0.288*
1,1,0.125,-0.063,0.288*
1,1,0.125,0.063,0.288*
1,1,0.125,0.063,-0.288*
%
%ADD46ROUNDEDRECTD46*%
G04:AMPARAMS|DCode=47|XSize=2mm|YSize=2mm|CornerRadius=0.05mm|HoleSize=0mm|Usage=FLASHONLY|Rotation=270.000|XOffset=0mm|YOffset=0mm|HoleType=Round|Shape=RoundedRectangle|*
%AMROUNDEDRECTD47*
21,1,2.000,1.900,0,0,270.0*
21,1,1.900,2.000,0,0,270.0*
1,1,0.100,-0.950,-0.950*
1,1,0.100,-0.950,0.950*
1,1,0.100,0.950,0.950*
1,1,0.100,0.950,-0.950*
%
%ADD47ROUNDEDRECTD47*%
G04:AMPARAMS|DCode=48|XSize=0.2mm|YSize=0.2mm|CornerRadius=0.025mm|HoleSize=0mm|Usage=FLASHONLY|Rotation=90.000|XOffset=0mm|YOffset=0mm|HoleType=Round|Shape=RoundedRectangle|*
%AMROUNDEDRECTD48*
21,1,0.200,0.150,0,0,90.0*
21,1,0.150,0.200,0,0,90.0*
1,1,0.050,0.075,0.075*
1,1,0.050,0.075,-0.075*
1,1,0.050,-0.075,-0.075*
1,1,0.050,-0.075,0.075*
%
%ADD48ROUNDEDRECTD48*%
G04:AMPARAMS|DCode=49|XSize=0.5mm|YSize=0.6mm|CornerRadius=0.063mm|HoleSize=0mm|Usage=FLASHONLY|Rotation=90.000|XOffset=0mm|YOffset=0mm|HoleType=Round|Shape=RoundedRectangle|*
%AMROUNDEDRECTD49*
21,1,0.500,0.475,0,0,90.0*
21,1,0.375,0.600,0,0,90.0*
1,1,0.125,0.238,0.188*
1,1,0.125,0.238,-0.188*
1,1,0.125,-0.238,-0.188*
1,1,0.125,-0.238,0.188*
%
%ADD49ROUNDEDRECTD49*%
%ADD50O,0.900X0.250*%
%ADD51O,0.250X0.900*%
G04:AMPARAMS|DCode=52|XSize=3.5mm|YSize=3.5mm|CornerRadius=0.175mm|HoleSize=0mm|Usage=FLASHONLY|Rotation=0.000|XOffset=0mm|YOffset=0mm|HoleType=Round|Shape=RoundedRectangle|*
%AMROUNDEDRECTD52*
21,1,3.500,3.150,0,0,0.0*
21,1,3.150,3.500,0,0,0.0*
1,1,0.350,1.575,-1.575*
1,1,0.350,-1.575,-1.575*
1,1,0.350,-1.575,1.575*
1,1,0.350,1.575,1.575*
%
%ADD52ROUNDEDRECTD52*%
%ADD53R,0.500X0.350*%
%ADD54R,0.550X0.400*%
%ADD55R,0.305X0.610*%
%ADD56C,0.250*%
%ADD57C,0.220*%
%ADD58C,0.508*%
%ADD59C,0.300*%
G36*
X55806Y73837D02*
X55931D01*
X56118Y73915D01*
X56306Y73837D01*
X56431D01*
X56618Y73915D01*
X56806Y73837D01*
X56932Y73823D01*
X56946Y73697D01*
X57024Y73509D01*
X56946Y73322D01*
Y73197D01*
X57024Y73009D01*
X56946Y72822D01*
Y72697D01*
X57024Y72509D01*
X56946Y72322D01*
Y72197D01*
X57024Y72009D01*
X56946Y71822D01*
Y71697D01*
X56999Y71568D01*
X56988Y71564D01*
X56915Y71386D01*
X57518D01*
Y71132D01*
X56915D01*
X56988Y70954D01*
X56999Y70950D01*
X56946Y70822D01*
Y70697D01*
X57024Y70509D01*
X56946Y70322D01*
X56806Y70239D01*
X56563Y70139D01*
X56559Y70128D01*
X56431Y70181D01*
X56306D01*
X56118Y70103D01*
X55931Y70181D01*
X55806D01*
X55618Y70103D01*
X55431Y70181D01*
X55306D01*
X55118Y70103D01*
X54931Y70181D01*
X54806D01*
X54618Y70103D01*
X54431Y70181D01*
X54306D01*
X54118Y70103D01*
X53931Y70181D01*
X53806D01*
X53618Y70103D01*
X53431Y70181D01*
X53304Y70195D01*
X53290Y70322D01*
X53212Y70509D01*
X53290Y70697D01*
Y70822D01*
X53212Y71009D01*
X53290Y71197D01*
Y71322D01*
X53212Y71509D01*
X53290Y71697D01*
Y71822D01*
X53237Y71950D01*
X53248Y71954D01*
X53321Y72132D01*
X52718D01*
Y72386D01*
X53321D01*
X53248Y72564D01*
X53237Y72568D01*
X53290Y72697D01*
Y72822D01*
X53212Y73009D01*
X53290Y73197D01*
Y73322D01*
X53237Y73450D01*
X53248Y73454D01*
X53329Y73650D01*
X53348Y73697D01*
X53431Y73837D01*
X53618Y73915D01*
X53806Y73837D01*
X53931D01*
X54118Y73915D01*
X54306Y73837D01*
X54431D01*
X54618Y73915D01*
X54806Y73837D01*
X54931D01*
X55118Y73915D01*
X55306Y73837D01*
X55431D01*
X55618Y73915D01*
X55806Y73837D01*
D02*
G37*
G36*
X67157Y71847D02*
X67107Y71634D01*
X66980Y71599D01*
X66971Y71602D01*
X66158D01*
X66128Y71674D01*
X65922Y71759D01*
X65260D01*
X65054Y71674D01*
X64969Y71468D01*
Y71056D01*
X65054Y70850D01*
X65260Y70765D01*
X65781D01*
X65800Y70757D01*
X66620D01*
X66634Y70723D01*
X66637Y70722D01*
Y70518D01*
X66634Y70517D01*
X66562Y70345D01*
Y69895D01*
X66634Y69723D01*
X66732Y69682D01*
X67142Y67883D01*
X66950Y67824D01*
X66223Y69688D01*
Y69878D01*
X66213Y69902D01*
Y70168D01*
X66128Y70374D01*
X65922Y70459D01*
X65260D01*
X65054Y70374D01*
X64969Y70168D01*
Y69756D01*
X65054Y69550D01*
X65260Y69465D01*
X65397D01*
X65407Y69454D01*
X66389Y66938D01*
X66221Y66829D01*
X65477Y67572D01*
Y68707D01*
X65382Y68938D01*
X64875Y69445D01*
X64874Y69447D01*
X64715Y69605D01*
Y71247D01*
X64620Y71478D01*
X62768Y73330D01*
X62537Y73426D01*
X58872D01*
X58789Y73626D01*
X58971Y73808D01*
X58988Y73825D01*
X59157Y73971D01*
X59203Y74011D01*
X62699Y73893D01*
X62728Y73822D01*
X63111Y73663D01*
X63494Y73822D01*
X63652Y74204D01*
X63609Y74309D01*
X63773Y74435D01*
X67157Y71847D01*
D02*
G37*
G36*
X46990Y71490D02*
X47088D01*
X47122Y71504D01*
X47382Y71398D01*
X47386Y71389D01*
X47497Y71278D01*
X47546Y71257D01*
X47577Y71215D01*
X48199Y70839D01*
X48244Y70731D01*
X48307Y70583D01*
Y70133D01*
X48379Y69961D01*
X48551Y69890D01*
X49001D01*
X49173Y69961D01*
X49174Y69964D01*
X49378D01*
X49379Y69961D01*
X49551Y69890D01*
X49947D01*
X50053Y69757D01*
X50073Y69705D01*
X50019Y69575D01*
Y69477D01*
X50546D01*
Y69223D01*
X50019D01*
Y69150D01*
X49997Y69079D01*
X49911Y68951D01*
X49881Y68951D01*
X48167Y69177D01*
X47522Y69823D01*
X46301Y71441D01*
X46458Y71565D01*
X46638Y71490D01*
X46736D01*
Y72017D01*
X46990D01*
Y71490D01*
D02*
G37*
G36*
X63903Y71272D02*
X63789Y71102D01*
X63772Y71109D01*
X63110D01*
X62904Y71024D01*
X62855Y70906D01*
X62826Y70894D01*
X62685Y70847D01*
X62254Y70473D01*
X62206D01*
X62089Y70607D01*
X62074Y70645D01*
X62070Y70662D01*
X62114Y70768D01*
Y70866D01*
X61587D01*
Y70993D01*
X61460D01*
Y71650D01*
X61413Y71720D01*
X61439Y71783D01*
X61281Y72165D01*
X60898Y72324D01*
X60515Y72165D01*
X60357Y71783D01*
X60382Y71720D01*
X60275Y71524D01*
X60082Y71555D01*
Y71628D01*
X59555D01*
Y71882D01*
X60082D01*
Y71980D01*
X59994Y72194D01*
X59780Y72282D01*
X59687D01*
X59576Y72448D01*
X59596Y72498D01*
X59551Y72606D01*
X59662Y72773D01*
X62402D01*
X63903Y71272D01*
D02*
G37*
G36*
X59290Y70067D02*
Y69969D01*
X59817D01*
Y69715D01*
X59290D01*
Y69617D01*
X59378Y69403D01*
X59396Y69182D01*
X59348Y69067D01*
Y68617D01*
X59391Y68515D01*
X59374Y68322D01*
X59277Y68281D01*
X59142Y68264D01*
X59007Y68281D01*
X58842Y68350D01*
X58201D01*
X58182Y68357D01*
X58092D01*
X58042Y68418D01*
X58024Y68427D01*
X58016Y68446D01*
X57905Y68557D01*
X57705Y68640D01*
X57674Y68715D01*
X57502Y68787D01*
X57149D01*
X57109Y68836D01*
X57171Y69078D01*
X57173Y69079D01*
X57273Y69322D01*
Y69482D01*
X56868D01*
Y69736D01*
X57292D01*
X57466Y69912D01*
X57743D01*
X57806Y69912D01*
X57990Y69800D01*
X58087Y69568D01*
X58469Y69409D01*
X58852Y69568D01*
X59011Y69950D01*
X58957Y70079D01*
X59000Y70163D01*
X59228Y70172D01*
X59290Y70067D01*
D02*
G37*
G36*
X61610Y69162D02*
X61633D01*
X61802Y69111D01*
X62244Y68512D01*
X62143Y68312D01*
X61983D01*
X61792Y68232D01*
X61712Y68041D01*
Y67341D01*
X61792Y67150D01*
X61924Y67095D01*
X61951Y66894D01*
X61950Y66884D01*
X61903Y66861D01*
X61857Y66808D01*
X61792Y66781D01*
X61367Y66357D01*
X60714Y66188D01*
X60568Y66357D01*
X60575Y66375D01*
Y66548D01*
X59817D01*
Y66802D01*
X60575D01*
Y66899D01*
X60648Y67014D01*
X60752Y67070D01*
X60983D01*
X61174Y67150D01*
X61254Y67341D01*
Y68041D01*
X61174Y68232D01*
X60983Y68312D01*
X60683D01*
X60492Y68232D01*
X60305Y68303D01*
X60260Y68321D01*
X60243Y68515D01*
X60285Y68617D01*
Y69067D01*
X60238Y69182D01*
X60240Y69207D01*
X60295Y69251D01*
X60492Y69300D01*
X60683Y69220D01*
X60983D01*
X61097Y69267D01*
X61100Y69258D01*
X61333Y69162D01*
X61356D01*
Y69841D01*
X61610D01*
Y69162D01*
D02*
G37*
G36*
X55634Y67012D02*
X55732D01*
X55946Y67100D01*
X56167Y67118D01*
X56282Y67070D01*
X56482D01*
X56494Y67063D01*
X56527Y67070D01*
X56534D01*
X56567Y67057D01*
X56686D01*
X56807Y67013D01*
X56849Y66996D01*
X56880Y66921D01*
X57052Y66849D01*
X57502D01*
X57509Y66852D01*
X57584Y66802D01*
X58467D01*
Y66548D01*
X57709D01*
Y66375D01*
X57729Y66327D01*
X57594Y66130D01*
X56551Y66156D01*
X55858Y66355D01*
X55028Y66733D01*
X55037Y66944D01*
X55059Y66958D01*
X55176Y67006D01*
X55190Y67042D01*
X55198Y67047D01*
X55282Y67012D01*
X55380D01*
Y67564D01*
X55634D01*
Y67012D01*
D02*
G37*
G36*
X43759Y83464D02*
X45780Y83329D01*
X47792Y83095D01*
X49789Y82764D01*
X51769Y82336D01*
X53725Y81812D01*
X55653Y81193D01*
X57548Y80480D01*
X59407Y79676D01*
X61224Y78782D01*
X62996Y77801D01*
X64717Y76734D01*
X66384Y75585D01*
X67993Y74355D01*
X69541Y73049D01*
X71022Y71669D01*
X72435Y70218D01*
X73775Y68699D01*
X75040Y67118D01*
X76226Y65476D01*
X77330Y63779D01*
X78350Y62029D01*
X78550Y61645D01*
X78535Y61579D01*
X78425Y61451D01*
X78367Y61466D01*
X78360Y61483D01*
X78308Y61535D01*
X77913Y61930D01*
X77835Y61963D01*
X77775Y62022D01*
X77739Y62037D01*
X77655Y62037D01*
X77614Y62054D01*
X77614Y62054D01*
X77577Y62069D01*
X75481D01*
X75444Y62054D01*
X75444Y62054D01*
X75403Y62037D01*
X75319Y62037D01*
X75283Y62022D01*
X75223Y61963D01*
X75145Y61930D01*
X74540Y61325D01*
X74302Y61278D01*
X73178Y60526D01*
X72426Y59402D01*
X72162Y58075D01*
Y58037D01*
X66640Y50212D01*
X66460Y50304D01*
X69776Y59929D01*
X69776Y59944D01*
X69784Y59956D01*
X69818Y60089D01*
X69812Y60130D01*
X69828Y60169D01*
Y61906D01*
X69827Y61908D01*
X69828Y61909D01*
X69779Y66583D01*
X69768Y66610D01*
X69774Y66638D01*
X68986Y70969D01*
X68966Y71000D01*
X68966Y71036D01*
X68956Y71059D01*
X68911Y71104D01*
X68886Y71164D01*
X68125Y71925D01*
X68104Y71934D01*
X68093Y71953D01*
X63670Y75336D01*
X63570Y75362D01*
X63474Y75403D01*
X59451Y75421D01*
X59450Y75421D01*
X59449Y75421D01*
X58770D01*
X58668Y75379D01*
X58562Y75346D01*
X58130Y74988D01*
X57934Y75085D01*
X57787Y75440D01*
X57404Y75598D01*
X57148Y75492D01*
X56992Y75644D01*
X57578Y77154D01*
X57576Y77218D01*
X57601Y77277D01*
Y78187D01*
X57501Y78428D01*
X57211Y78718D01*
X57207Y78720D01*
X57205Y78724D01*
X57000Y78919D01*
X56984Y78925D01*
Y78957D01*
X56912Y79129D01*
X56740Y79201D01*
X56290D01*
X56179Y79155D01*
X55870D01*
X55751Y79204D01*
X55277D01*
X55076Y79120D01*
X54992Y78920D01*
Y78545D01*
X55076Y78344D01*
X55028Y78147D01*
X54934Y77920D01*
Y77859D01*
X55514D01*
Y77605D01*
X54934D01*
Y77545D01*
X54965Y77470D01*
X54854Y77304D01*
X54647D01*
X54543Y77260D01*
X54540Y77266D01*
X54327Y77354D01*
X54229D01*
Y76827D01*
X53975D01*
Y77354D01*
X53877D01*
X53663Y77266D01*
X53628Y77181D01*
X53422Y77050D01*
X52972D01*
X52800Y76978D01*
X52594Y76978D01*
X52422Y77050D01*
X51972D01*
X51963Y77046D01*
X51775D01*
X51640Y77107D01*
X51548Y77111D01*
X51418Y77164D01*
X51036Y77006D01*
X50877Y76623D01*
X51021Y76277D01*
X50907Y76107D01*
X50779Y76161D01*
X50329D01*
X50292Y76145D01*
X50255Y76161D01*
X49805D01*
X49633Y76089D01*
X49432D01*
X49418Y76093D01*
X49353Y76120D01*
X49341Y76224D01*
X49201Y76482D01*
X49156Y76518D01*
X49135Y76572D01*
X49094Y76614D01*
X49089Y76616D01*
X49088Y76621D01*
X48880Y76828D01*
X48880Y76828D01*
X48843Y76843D01*
X48808Y76929D01*
X48825Y77150D01*
X48914Y77364D01*
Y77462D01*
X48387D01*
Y77589D01*
X48260D01*
Y78116D01*
X48162D01*
X47948Y78028D01*
X47917Y77951D01*
X47858Y77814D01*
X47670Y77838D01*
X47456Y77926D01*
X47170Y77808D01*
X47033Y77808D01*
X46998Y77892D01*
X46863Y77948D01*
X46837Y78082D01*
X46844Y78156D01*
X48139Y78682D01*
X48745D01*
X53763Y77875D01*
X53776Y77844D01*
X53977Y77760D01*
X54451D01*
X54652Y77844D01*
X54736Y78045D01*
Y78420D01*
X54652Y78620D01*
X54451Y78704D01*
X54130D01*
X54104Y78714D01*
X53869D01*
X48846Y79522D01*
X48812Y79514D01*
X48779Y79527D01*
X48056D01*
X47980Y79496D01*
X47898Y79496D01*
X45955Y78708D01*
X45894Y78648D01*
X45815Y78615D01*
X45481Y78281D01*
X45469Y78252D01*
X45442Y78236D01*
X45323Y78078D01*
X45289Y77948D01*
X45279Y77923D01*
X45204Y77892D01*
X45132Y77720D01*
Y77220D01*
X45204Y77048D01*
X45322Y76999D01*
Y76443D01*
X45175Y76288D01*
X44725D01*
X44553Y76216D01*
X44552Y76213D01*
X44348D01*
X44347Y76216D01*
X44175Y76288D01*
X43725D01*
X43625Y76246D01*
X43524Y76288D01*
X43074D01*
X42956Y76239D01*
X42756Y76332D01*
X42756Y81488D01*
X42955Y81528D01*
X43123Y81640D01*
X43235Y81808D01*
X43274Y82006D01*
Y83330D01*
X43417Y83470D01*
X43759Y83464D01*
D02*
G37*
G36*
X80236Y55040D02*
X81216Y52756D01*
X81106Y52589D01*
X80101D01*
Y52643D01*
X79449D01*
Y51689D01*
Y50735D01*
X80101D01*
Y50789D01*
X80802D01*
Y48989D01*
X80101D01*
Y49043D01*
X79449D01*
Y48089D01*
Y47135D01*
X80101D01*
Y47189D01*
X81143D01*
X81177Y47107D01*
X81189Y47002D01*
X81432Y46558D01*
X81299Y46409D01*
X81287Y46413D01*
X80927D01*
Y45400D01*
X80800D01*
Y45273D01*
X79862D01*
Y44838D01*
X79994Y44519D01*
X79889Y44362D01*
X79711Y44289D01*
X79556Y43912D01*
Y43327D01*
X80800D01*
Y43073D01*
X79556D01*
Y42487D01*
X79711Y42111D01*
X79739Y42100D01*
Y41900D01*
X79711Y41889D01*
X79556Y41513D01*
Y40927D01*
X80800D01*
Y40673D01*
X79556D01*
Y40088D01*
X79711Y39711D01*
X79889Y39638D01*
X79994Y39481D01*
X79862Y39162D01*
Y38727D01*
X80800D01*
Y38600D01*
X80927D01*
Y37587D01*
X81287D01*
X81357Y37615D01*
X81499Y37475D01*
X79212Y31840D01*
X79210Y31833D01*
X78683Y30782D01*
X78483Y30789D01*
X78277Y31287D01*
X77597Y31568D01*
Y30480D01*
X77470D01*
Y30353D01*
X76382D01*
X76629Y29756D01*
X76559Y29516D01*
X75147Y28981D01*
X75131Y28997D01*
X74999Y29315D01*
X75075Y29563D01*
X75441Y29715D01*
X75758Y30480D01*
X75441Y31245D01*
X74676Y31562D01*
X73911Y31245D01*
X73594Y30480D01*
X73911Y29715D01*
X74122Y29627D01*
X74122Y29463D01*
X74106Y29417D01*
X73984Y29124D01*
X74531D01*
Y28870D01*
X73984D01*
X74107Y28573D01*
X74119Y28568D01*
X74079Y28368D01*
X73842D01*
X73157Y29053D01*
X73094Y29079D01*
X73045Y29126D01*
X72488Y29343D01*
X72372Y29623D01*
X71989Y29782D01*
X71870Y29732D01*
X71708Y29841D01*
X71636Y30013D01*
X71586Y30034D01*
X71588Y30052D01*
X71481Y30464D01*
X71448Y30507D01*
X71433Y30543D01*
X71372Y30692D01*
X71348Y30716D01*
Y30809D01*
X71335Y30843D01*
Y31094D01*
X71287Y31209D01*
X71305Y31430D01*
X71393Y31644D01*
Y31742D01*
X70866D01*
Y31869D01*
X70739D01*
Y32396D01*
X70641D01*
X70428Y32308D01*
X70416Y32308D01*
X70202Y32396D01*
X70104D01*
Y31869D01*
X69977D01*
Y31742D01*
X69450D01*
Y31644D01*
X69535Y31440D01*
X69458Y31279D01*
X69436Y31265D01*
X69223Y31353D01*
X68891Y31215D01*
X68827Y31201D01*
X68664Y31279D01*
X68588Y31463D01*
X68425Y31531D01*
Y30848D01*
X68171D01*
Y31617D01*
X68085Y31661D01*
X67933Y32370D01*
X68106Y32515D01*
X68220Y32468D01*
X68318D01*
Y33020D01*
X68445D01*
Y33147D01*
X68972D01*
Y33270D01*
X68886Y33477D01*
X68972Y33684D01*
Y33782D01*
X68445D01*
Y33909D01*
X68318D01*
Y34436D01*
X68220D01*
X68006Y34348D01*
X67785Y34330D01*
X67670Y34378D01*
X67493D01*
X67420Y34578D01*
X70199Y36931D01*
X70381Y36847D01*
Y36552D01*
X70455Y36372D01*
X70477Y36363D01*
X70550Y36137D01*
X70506Y36031D01*
Y35581D01*
X70578Y35409D01*
X70581Y35408D01*
Y35204D01*
X70578Y35203D01*
X70506Y35031D01*
Y34581D01*
X70578Y34409D01*
X70699Y34358D01*
X70702Y34296D01*
X72029Y31494D01*
X72030Y31492D01*
X72030Y31492D01*
X72033Y31485D01*
X72036Y31482D01*
Y31081D01*
X71960Y30896D01*
X72118Y30513D01*
X72501Y30355D01*
X72883Y30513D01*
X73042Y30896D01*
X72883Y31279D01*
X72882Y31279D01*
Y31615D01*
X72882Y31615D01*
X72811Y31787D01*
X72811Y31816D01*
X72806Y31828D01*
X72798Y31836D01*
X72797Y31847D01*
X71507Y34572D01*
Y34746D01*
X71494Y34779D01*
Y34786D01*
X71501Y34819D01*
X71494Y34831D01*
Y35031D01*
X71422Y35203D01*
X71419Y35204D01*
Y35408D01*
X71422Y35409D01*
X71494Y35581D01*
Y36031D01*
X71450Y36137D01*
X71523Y36363D01*
X71545Y36372D01*
X71619Y36552D01*
Y37015D01*
X71819Y37170D01*
X72156Y37083D01*
X73369Y33244D01*
Y33040D01*
X73383Y33006D01*
Y32831D01*
X73453Y32662D01*
X73622Y32592D01*
X74130D01*
X74299Y32662D01*
X74369Y32831D01*
Y33209D01*
X74299Y33378D01*
X74193Y33422D01*
X74195Y33436D01*
X72965Y37327D01*
X74951Y39471D01*
X75114Y39352D01*
X75011Y39170D01*
X74997Y39062D01*
X74997Y39061D01*
X74922Y39030D01*
X74850Y38858D01*
Y38358D01*
X74922Y38186D01*
X75094Y38114D01*
X75544D01*
X75659Y38162D01*
X75880Y38144D01*
X76094Y38056D01*
X76192D01*
Y38608D01*
Y39183D01*
X76088Y39357D01*
X76492Y40072D01*
X76506Y40180D01*
X76547Y40280D01*
Y41254D01*
X76523Y41312D01*
X76530Y41375D01*
X76510Y41440D01*
X76530Y41587D01*
X76524Y41612D01*
X76544Y41661D01*
X76457Y41872D01*
X76449Y41900D01*
X76444Y41903D01*
X76386Y42043D01*
X76003Y42202D01*
X75668Y42063D01*
X75665Y42063D01*
X75466Y42150D01*
Y43061D01*
X75408D01*
X75305Y43190D01*
X75283Y43252D01*
X75374Y43402D01*
X75626Y43574D01*
X75644Y43602D01*
X75659Y43608D01*
X75741Y43579D01*
X75859Y43516D01*
Y43217D01*
X75930Y43045D01*
X76102Y42973D01*
X76552D01*
X76724Y43045D01*
X76755Y43120D01*
X76797Y43137D01*
X76940Y43188D01*
X77029Y43269D01*
X77229Y43181D01*
Y43150D01*
X77302Y42975D01*
X77229Y42800D01*
Y42500D01*
X77302Y42325D01*
X77229Y42150D01*
Y41850D01*
X77302Y41675D01*
X77229Y41500D01*
Y41200D01*
X77276Y41086D01*
X77267Y41083D01*
X77171Y40850D01*
Y40827D01*
X78125D01*
Y40700D01*
D01*
Y40827D01*
X79079D01*
Y40850D01*
X78983Y41083D01*
X78974Y41086D01*
X79021Y41200D01*
Y41500D01*
X78948Y41675D01*
X79021Y41850D01*
Y42150D01*
X78948Y42325D01*
X79021Y42500D01*
Y42800D01*
X78948Y42975D01*
X79021Y43150D01*
Y43450D01*
X78941Y43641D01*
X78750Y43721D01*
X78138D01*
X78133Y43723D01*
X78062Y43724D01*
X77943Y43900D01*
X77969Y44063D01*
X77989Y44111D01*
X78223D01*
Y45073D01*
X77361D01*
Y44626D01*
X77243Y44515D01*
X77182Y44484D01*
X77156Y44495D01*
X77054Y44453D01*
X76854Y44587D01*
Y44667D01*
X76766Y44881D01*
X76552Y44969D01*
X76323D01*
X76314Y44985D01*
X76294Y45192D01*
X76294Y45195D01*
X76301Y45203D01*
X76342Y45253D01*
X76438Y45311D01*
X77612Y46904D01*
X77625Y46956D01*
X77662Y46993D01*
X77717Y47127D01*
X77717Y47211D01*
X77749Y47288D01*
Y50319D01*
X77839D01*
X78032Y50399D01*
X78112Y50592D01*
Y51537D01*
X78108Y51548D01*
Y52515D01*
X78045Y52665D01*
X78108Y52815D01*
Y52857D01*
X78112Y52868D01*
Y53812D01*
X78191Y53960D01*
X78756Y54072D01*
X79880Y54824D01*
X80037Y55058D01*
X80236Y55040D01*
D02*
G37*
G36*
X77891Y52815D02*
X77216Y52140D01*
X76541Y52815D01*
Y53790D01*
X77891D01*
Y52815D01*
D02*
G37*
G36*
X77891Y50640D02*
X76541D01*
Y52515D01*
X77216Y51840D01*
X77891Y52515D01*
Y50640D01*
D02*
G37*
G36*
X72321Y56477D02*
X72426Y55948D01*
X73178Y54824D01*
X74302Y54072D01*
X75629Y53808D01*
X76320D01*
Y52868D01*
X76325Y52857D01*
Y52815D01*
X76387Y52665D01*
X76325Y52515D01*
Y51548D01*
X76320Y51537D01*
Y51141D01*
X75387D01*
Y51203D01*
X75299Y51413D01*
X75162Y51470D01*
X75136Y51584D01*
X75068Y51679D01*
X75024Y51787D01*
X74896Y51915D01*
Y52010D01*
X74883Y52043D01*
Y52295D01*
X74811Y52467D01*
X74639Y52538D01*
X74189D01*
X74074Y52491D01*
X73853Y52508D01*
X73639Y52597D01*
X73541D01*
Y52070D01*
X73414D01*
Y51943D01*
X72887D01*
Y51845D01*
X72947Y51701D01*
X72923Y51633D01*
X72898Y51588D01*
X72835Y51510D01*
X72656D01*
X72068Y51713D01*
X71997Y51709D01*
X71930Y51736D01*
X71619D01*
Y51788D01*
X71545Y51968D01*
X71365Y52042D01*
X70635D01*
X70455Y51968D01*
X70381Y51788D01*
Y51158D01*
X70223Y51017D01*
X70115Y50972D01*
X70115Y50972D01*
X69851Y50708D01*
X69845Y50693D01*
X69831Y50686D01*
X69709Y50546D01*
X69662Y50406D01*
X69606Y50269D01*
X69606Y48641D01*
X69440Y48530D01*
X69432Y48533D01*
X69334D01*
Y48006D01*
X69080D01*
Y48533D01*
X68982D01*
X68913Y48504D01*
X68895Y48510D01*
X68734Y48646D01*
X68734Y48655D01*
X68787Y48785D01*
X68629Y49167D01*
X68246Y49326D01*
X67864Y49167D01*
X67705Y48785D01*
X67759Y48655D01*
X67762Y48563D01*
X67810Y48403D01*
X67738Y48231D01*
Y47781D01*
X67784Y47670D01*
Y47580D01*
X67738Y47469D01*
Y47306D01*
X67662Y47255D01*
X67564D01*
Y46728D01*
X67310D01*
Y47255D01*
X67212D01*
X67098Y47331D01*
Y47732D01*
X67086Y47761D01*
X67094Y47791D01*
X67035Y48213D01*
Y49301D01*
X67040Y49313D01*
X72126Y56518D01*
X72321Y56477D01*
D02*
G37*
G36*
X66375Y58016D02*
X63553Y51011D01*
X63357Y51051D01*
X63443Y55361D01*
X66208Y58127D01*
X66375Y58016D01*
D02*
G37*
G36*
X74041Y49997D02*
X74139D01*
X74391Y50101D01*
X74436Y50095D01*
X74554Y49910D01*
X74424Y49597D01*
X74583Y49214D01*
X74754Y49143D01*
X74846Y49078D01*
X74985Y49046D01*
X75129Y48922D01*
X75124Y48898D01*
X75045Y48751D01*
X74639D01*
X74429Y48663D01*
X74341Y48453D01*
Y47603D01*
X74399Y47463D01*
X74297Y47263D01*
X74078D01*
X73978Y47221D01*
X73877Y47263D01*
X73779D01*
Y46736D01*
X73525D01*
Y47275D01*
X73429Y47463D01*
X73487Y47603D01*
Y48453D01*
X73480Y48469D01*
Y48700D01*
X73542Y48835D01*
X73545Y48927D01*
X73599Y49057D01*
X73440Y49439D01*
X73057Y49598D01*
X72675Y49439D01*
X72633Y49338D01*
X72431Y49374D01*
X72405Y50004D01*
X72601Y50112D01*
X72739Y50055D01*
X73189D01*
X73232Y50073D01*
X73437Y50101D01*
X73689Y49997D01*
X73787D01*
Y50778D01*
X74041D01*
Y49997D01*
D02*
G37*
G36*
X76904Y48791D02*
X76704Y48708D01*
X76353Y49060D01*
X76326Y49071D01*
X76311Y49096D01*
X75505Y49715D01*
X75436Y49846D01*
X75386Y49887D01*
X75348Y49980D01*
X75335Y50108D01*
X75487Y50296D01*
X76541D01*
X76597Y50319D01*
X76904D01*
Y48791D01*
D02*
G37*
G36*
X71693Y47224D02*
X71694Y47223D01*
X71689Y47166D01*
X71808Y46782D01*
X71873Y46703D01*
X71913Y46608D01*
X72024Y46497D01*
X72024Y46497D01*
X72224Y46414D01*
X72255Y46339D01*
X72314Y46314D01*
X72311Y46271D01*
X72584Y45470D01*
Y45271D01*
X72601Y45229D01*
X72593Y45185D01*
X72616Y45071D01*
Y44061D01*
X73512D01*
Y44007D01*
X73914D01*
Y44861D01*
X74168D01*
Y44007D01*
X74413D01*
X74453Y43807D01*
X74369Y43772D01*
X74210Y43390D01*
X74255Y43281D01*
X74168Y43151D01*
Y42261D01*
X73914D01*
Y43115D01*
X73512D01*
Y43061D01*
X73084D01*
X72920Y43173D01*
X72762Y43555D01*
X72379Y43714D01*
X72017Y43564D01*
X71966Y43557D01*
X71817Y43563D01*
X71786Y43569D01*
X71418Y43722D01*
X71035Y43563D01*
X70950Y43358D01*
X70750Y43398D01*
Y43659D01*
X70662Y43872D01*
X70448Y43961D01*
X70350D01*
Y43434D01*
X70096D01*
Y43961D01*
X69998D01*
X69860Y43904D01*
X69815Y43921D01*
X69676Y44025D01*
Y44367D01*
X69815Y44472D01*
X69860Y44488D01*
X69998Y44431D01*
X70096D01*
Y44958D01*
Y45485D01*
X69998D01*
X69860Y45428D01*
X69815Y45445D01*
X69676Y45549D01*
Y45891D01*
X69815Y45996D01*
X69860Y46012D01*
X69998Y45955D01*
X70096D01*
Y46482D01*
X70350D01*
Y45955D01*
X70448D01*
X70662Y46044D01*
X70750Y46257D01*
Y46369D01*
X70916Y46481D01*
X70993Y46449D01*
X71376Y46607D01*
X71534Y46990D01*
X71481Y47119D01*
X71477Y47212D01*
X71461Y47257D01*
X71470Y47269D01*
X71538Y47270D01*
X71693Y47224D01*
D02*
G37*
G36*
X66652Y45608D02*
X66680Y45596D01*
X66696Y45569D01*
X66854Y45450D01*
X66984Y45416D01*
X67009Y45406D01*
X67040Y45331D01*
X67212Y45259D01*
X67662D01*
X67763Y45301D01*
X67862D01*
X67982Y45252D01*
X68432D01*
X68594Y45319D01*
X68775Y45232D01*
X68775Y45232D01*
X68754Y45183D01*
Y44733D01*
X68775Y44684D01*
X68775Y44684D01*
X68594Y44597D01*
X68432Y44665D01*
X67982D01*
X67861Y44615D01*
X67763D01*
X67662Y44657D01*
X67212D01*
X67111Y44615D01*
X67074D01*
X67072Y44618D01*
X66900Y44690D01*
X66450D01*
X66296Y44626D01*
X66160Y44699D01*
X66127Y44741D01*
Y45191D01*
X66056Y45363D01*
X66053Y45364D01*
Y45568D01*
X66056Y45569D01*
X66127Y45741D01*
Y45877D01*
X66274Y45928D01*
X66327Y45932D01*
X66652Y45608D01*
D02*
G37*
G36*
X63631Y45536D02*
X63672Y45489D01*
X63686Y45428D01*
X63711Y45393D01*
X63743Y45372D01*
X63757Y45337D01*
X63801Y45293D01*
X63801Y45293D01*
X63801Y45293D01*
X64244Y44851D01*
X64365Y44801D01*
X64477Y44732D01*
X65082Y44637D01*
X65206Y44446D01*
Y43946D01*
X65278Y43774D01*
X65450Y43702D01*
X65900D01*
X66072Y43774D01*
X66073Y43777D01*
X66277D01*
X66278Y43774D01*
X66450Y43702D01*
X66813D01*
X66948Y43537D01*
X66953Y43518D01*
X66910Y43413D01*
Y43315D01*
X67437D01*
X67964D01*
Y43413D01*
X67910Y43543D01*
X67930Y43595D01*
X68036Y43728D01*
X68432D01*
X68594Y43795D01*
X68775Y43708D01*
X68775Y43708D01*
X68754Y43659D01*
Y43407D01*
X68741Y43374D01*
X68741Y43374D01*
Y41925D01*
X68425D01*
X68215Y41837D01*
X68127Y41627D01*
Y41177D01*
X68215Y40967D01*
X68425Y40879D01*
X69475D01*
X69685Y40967D01*
X69773Y41177D01*
Y41627D01*
X69685Y41837D01*
X69586Y41879D01*
Y42951D01*
X69784Y42995D01*
X69909Y42944D01*
X69985Y42730D01*
X69984Y42713D01*
X69927Y42577D01*
Y42127D01*
X70015Y41917D01*
X70225Y41829D01*
X71137D01*
X71160Y41820D01*
X71184D01*
X71186Y41818D01*
X71192Y41803D01*
X71275Y41720D01*
X71292Y41713D01*
X71300Y41697D01*
X71359Y41647D01*
X71440Y41621D01*
X71461Y41570D01*
X71443Y41349D01*
X71355Y41135D01*
Y41087D01*
X71275Y41033D01*
X70877D01*
Y40452D01*
Y39871D01*
X71275D01*
X71527Y39975D01*
X71631Y40227D01*
Y40256D01*
X71657Y40383D01*
X71755D01*
Y40910D01*
X72009D01*
Y40383D01*
X72107D01*
X72228Y40433D01*
X72255Y40370D01*
X72427Y40298D01*
X72877D01*
X72992Y40346D01*
X73213Y40328D01*
X73427Y40240D01*
X73525D01*
Y40767D01*
X73779D01*
Y40240D01*
X73877D01*
X73978Y40282D01*
X74078Y40240D01*
X74261D01*
X74341Y40057D01*
X72350Y37906D01*
X71846Y38036D01*
X71687Y38146D01*
X71678Y38271D01*
Y38340D01*
X71000D01*
X70322D01*
Y38152D01*
X70169Y37999D01*
X70141Y37990D01*
X65653Y34189D01*
X65645Y34173D01*
X65627Y34165D01*
X65293Y33831D01*
X65281Y33802D01*
X65254Y33786D01*
X65135Y33628D01*
X65101Y33498D01*
X65091Y33473D01*
X65016Y33442D01*
X64944Y33270D01*
Y32770D01*
X64930Y32748D01*
X64752D01*
X64735Y32741D01*
X64717Y32747D01*
X63645Y32632D01*
X63444Y32790D01*
X63360Y45723D01*
X63557Y45756D01*
X63631Y45536D01*
D02*
G37*
G36*
X63677Y30876D02*
X63632Y30767D01*
X63737Y30514D01*
X63574Y30447D01*
X63471Y30198D01*
X63574Y29949D01*
X63574Y29947D01*
X63471Y29698D01*
X63499Y29632D01*
X63536Y29540D01*
X63383Y29388D01*
X63295Y29424D01*
X63215Y29483D01*
X63145Y29500D01*
X63061Y29673D01*
X63056Y29709D01*
X63072Y29747D01*
Y30197D01*
X63000Y30369D01*
X62828Y30441D01*
X62378D01*
X62263Y30393D01*
X62042Y30411D01*
X61828Y30499D01*
X61597D01*
X61514Y30699D01*
X61857Y31043D01*
X63566D01*
X63677Y30876D01*
D02*
G37*
G36*
X61076Y29979D02*
Y29747D01*
X61164Y29534D01*
X61228Y29507D01*
X61195Y29427D01*
Y29329D01*
X61722D01*
Y29075D01*
X61195D01*
Y28977D01*
X61284Y28763D01*
X61301Y28542D01*
X61254Y28427D01*
Y27977D01*
X61205Y27905D01*
X60439D01*
X60078Y27755D01*
X60034Y27774D01*
X59584D01*
X59469Y27726D01*
X59248Y27744D01*
X59034Y27832D01*
X58908D01*
X58831Y28017D01*
X60876Y30061D01*
X61076Y29979D01*
D02*
G37*
G36*
X42459Y74964D02*
X31852D01*
X31668Y74964D01*
X31665Y74963D01*
X31665D01*
X31665Y74963D01*
X31665Y74963D01*
X31665Y74963D01*
X31665Y74963D01*
X31500Y74874D01*
X25438Y71583D01*
X25262Y71487D01*
X25259Y71481D01*
X25259Y71289D01*
Y70357D01*
X25265Y70351D01*
X42756D01*
X42756Y75306D01*
X42956Y75399D01*
X43074Y75351D01*
X43524D01*
X43625Y75392D01*
X43725Y75351D01*
X44175D01*
X44347Y75422D01*
X44348Y75425D01*
X44552D01*
X44553Y75422D01*
X44725Y75351D01*
X45065D01*
X45240Y75177D01*
X45234Y75081D01*
X45196Y75065D01*
X45165Y74990D01*
X45140Y74980D01*
X45010Y74946D01*
X44852Y74827D01*
X44836Y74800D01*
X44808Y74788D01*
X44473Y74454D01*
X44349Y74155D01*
X44349Y74155D01*
Y72974D01*
X44386Y72885D01*
X44391Y72790D01*
X44675Y72205D01*
X44707Y72177D01*
X44718Y72135D01*
X46864Y69290D01*
X46891Y69274D01*
X46903Y69246D01*
X47664Y68485D01*
X47741Y68453D01*
X47800Y68394D01*
X47823Y68384D01*
X47880Y68384D01*
X47930Y68356D01*
X49797Y68109D01*
X49824Y68117D01*
X49850Y68106D01*
X52174Y68090D01*
X52189Y68056D01*
X52264Y68025D01*
X52347Y67825D01*
X52458Y67714D01*
X52466Y67711D01*
X52469Y67703D01*
X53963Y66314D01*
X54028Y66290D01*
X54075Y66239D01*
X55518Y65580D01*
X55526Y65580D01*
X55531Y65575D01*
X55554Y65565D01*
X55580Y65565D01*
X55600Y65549D01*
X56369Y65328D01*
X56425Y65335D01*
X56476Y65312D01*
X57745Y65281D01*
X57750Y65283D01*
X57755Y65281D01*
X60529D01*
X60580Y65302D01*
X60635Y65294D01*
X61677Y65564D01*
X61780Y65416D01*
X61785Y65398D01*
X61557Y65170D01*
X61536Y65118D01*
X61489Y65087D01*
X61270Y64759D01*
X61259Y64704D01*
X61219Y64664D01*
X61069Y64300D01*
Y64244D01*
X61037Y64197D01*
X60960Y63811D01*
X60971Y63755D01*
X60950Y63703D01*
Y63309D01*
X60971Y63257D01*
X60960Y63202D01*
X61037Y62816D01*
X61069Y62769D01*
Y62713D01*
X61219Y62349D01*
X61259Y62309D01*
X61270Y62254D01*
X61489Y61926D01*
X61536Y61895D01*
X61557Y61843D01*
X61836Y61564D01*
X61888Y61542D01*
X61919Y61496D01*
X62247Y61277D01*
X62302Y61266D01*
X62342Y61226D01*
X62706Y61075D01*
X62762D01*
X62809Y61044D01*
X63195Y60967D01*
X63251Y60978D01*
X63303Y60956D01*
X63697D01*
X63749Y60978D01*
X63804Y60967D01*
X64190Y61044D01*
X64237Y61075D01*
X64293D01*
X64657Y61226D01*
X64697Y61266D01*
X64752Y61277D01*
X65080Y61496D01*
X65111Y61542D01*
X65163Y61564D01*
X65442Y61843D01*
X65464Y61895D01*
X65510Y61926D01*
X65729Y62254D01*
X65740Y62309D01*
X65780Y62349D01*
X65931Y62713D01*
Y62769D01*
X65962Y62816D01*
X66039Y63202D01*
X66028Y63257D01*
X66050Y63309D01*
Y63703D01*
X66028Y63755D01*
X66039Y63811D01*
X65962Y64197D01*
X65931Y64244D01*
Y64300D01*
X65780Y64664D01*
X65740Y64704D01*
X65729Y64759D01*
X65510Y65087D01*
X65464Y65118D01*
X65442Y65170D01*
X65163Y65449D01*
X65111Y65470D01*
X65080Y65517D01*
X64752Y65736D01*
X64697Y65747D01*
X64657Y65787D01*
X64293Y65937D01*
X64237D01*
X64190Y65969D01*
X63804Y66046D01*
X63749Y66035D01*
X63697Y66056D01*
X63303D01*
X63251Y66035D01*
X63195Y66046D01*
X62809Y65969D01*
X62762Y65937D01*
X62706D01*
X62342Y65787D01*
X62271Y65782D01*
X62182Y65977D01*
X62340Y66134D01*
X62757Y66341D01*
X62804Y66394D01*
X62869Y66421D01*
X63203Y66755D01*
X63203Y66755D01*
X63327Y67054D01*
X63327Y67054D01*
Y68328D01*
X63277Y68450D01*
X63245Y68579D01*
X62565Y69501D01*
X62601Y69702D01*
X62689Y69731D01*
X63120Y70105D01*
X63231D01*
X63256Y70115D01*
X63772D01*
X63863Y70152D01*
X64063Y70023D01*
Y69470D01*
X64158Y69239D01*
X64411Y68986D01*
X64412Y68984D01*
X64825Y68572D01*
Y67437D01*
X64920Y67206D01*
X66349Y65778D01*
Y59190D01*
X62948Y55789D01*
X62948Y55789D01*
X62888Y55730D01*
X62842Y55617D01*
X62793Y55506D01*
X62682Y49960D01*
X62683Y49957D01*
X62682Y49954D01*
Y49546D01*
X62682Y49545D01*
X62682Y49544D01*
X62791Y32761D01*
X62650Y32619D01*
X62010D01*
X61779Y32523D01*
X57532Y28276D01*
X57436Y28045D01*
Y26128D01*
X57239Y26096D01*
X56257Y29079D01*
X56263Y29081D01*
X56421Y29464D01*
X56263Y29847D01*
X55880Y30005D01*
X55497Y29847D01*
X55445Y29720D01*
X55247Y29720D01*
X54864Y29878D01*
X54481Y29720D01*
X54323Y29337D01*
X54441Y29051D01*
Y26331D01*
X54441Y26331D01*
X54441Y26331D01*
X54441Y26203D01*
X54493Y26079D01*
X54527Y25949D01*
X54603Y25847D01*
X54603Y25847D01*
X54603Y25847D01*
X56345Y23538D01*
X56442Y23304D01*
X56824Y23146D01*
X57207Y23304D01*
X57236Y23375D01*
X57436Y23335D01*
Y13575D01*
X49903Y6041D01*
X42807D01*
X41598Y7250D01*
Y8802D01*
X41503Y9032D01*
X40967Y9568D01*
X41021Y9699D01*
Y10168D01*
X40552D01*
X40421Y10114D01*
X40401Y10134D01*
X40171Y10229D01*
X38619D01*
X38603Y10246D01*
X38372Y10342D01*
X38082D01*
X38015Y10408D01*
X37791Y10844D01*
Y11171D01*
X37696Y11401D01*
X37696D01*
X37696Y11401D01*
X37636Y11461D01*
X37300Y11797D01*
X37200Y11897D01*
X37144Y11921D01*
Y12611D01*
X37198D01*
Y12913D01*
X36694D01*
X36190D01*
Y12611D01*
X36063Y12547D01*
X36063Y12547D01*
X36030Y12514D01*
X35914Y12398D01*
X35729Y12474D01*
Y14885D01*
X35915Y15071D01*
X36692D01*
Y14761D01*
X36757Y14605D01*
X36692Y14449D01*
Y14351D01*
X37219D01*
Y14224D01*
X37346D01*
Y13697D01*
X37444D01*
X37658Y13786D01*
X37879Y13803D01*
X37994Y13756D01*
X38172D01*
X38227Y13733D01*
X38264Y13748D01*
X38278Y13742D01*
X38278Y13742D01*
X38339D01*
X38349Y13738D01*
X38405Y13681D01*
X38422Y13662D01*
X38472Y13593D01*
X38381Y13415D01*
X38294D01*
Y12819D01*
X38240D01*
Y12517D01*
X38744D01*
Y12263D01*
X38240D01*
Y11961D01*
X38294D01*
Y10715D01*
X38832D01*
X38853Y10663D01*
X39236Y10504D01*
X39619Y10663D01*
X39744Y10965D01*
X39872Y11080D01*
X39962Y11113D01*
X40615D01*
X40725Y10932D01*
X40710Y10734D01*
X40621Y10520D01*
Y10422D01*
X41148D01*
X41675D01*
Y10520D01*
X41811Y10715D01*
X42135D01*
X42246Y10761D01*
X42590D01*
X42701Y10715D01*
X43151D01*
X43323Y10787D01*
X43354Y10862D01*
X43554Y10945D01*
X43554Y10945D01*
X43587Y10992D01*
X43842D01*
X43916Y10750D01*
X43967Y10688D01*
X43997Y10614D01*
X44397Y10215D01*
X44508Y10103D01*
X44739Y10008D01*
X45461D01*
X45493Y10021D01*
X45526Y10014D01*
X46144Y10140D01*
X46482Y10000D01*
X46865Y10158D01*
X47023Y10541D01*
X47022Y10544D01*
X47127Y10649D01*
X47153Y10713D01*
X47169Y10728D01*
X47265Y10959D01*
Y11604D01*
X47342D01*
X47514Y11676D01*
X47585Y11848D01*
Y11960D01*
X47637Y11997D01*
X47837Y11893D01*
Y10515D01*
X46889Y9567D01*
X43942D01*
X43553Y9406D01*
X43172Y9025D01*
X43011Y8636D01*
Y7620D01*
X43172Y7231D01*
X43553Y6850D01*
X43942Y6689D01*
X49276D01*
X49665Y6850D01*
X50681Y7866D01*
X50842Y8255D01*
Y19177D01*
X50681Y19566D01*
X50292Y19727D01*
X42756D01*
X42756Y66364D01*
X13159D01*
X12960Y66367D01*
X12960Y66367D01*
X12850Y66234D01*
X9079Y61696D01*
X8952Y61542D01*
X8951Y61542D01*
X8951Y61541D01*
X8951Y61541D01*
X8951Y61541D01*
X8951Y61540D01*
X8877Y61365D01*
X4914Y51930D01*
X4837Y51746D01*
X4837Y51746D01*
X4837Y51745D01*
X4837Y51745D01*
X4837Y51745D01*
X4811Y51561D01*
X3494Y42156D01*
X3466Y41958D01*
X3466Y41958D01*
X3466Y41958D01*
Y41957D01*
X3492Y41772D01*
X4811Y32354D01*
X4838Y32157D01*
X4838Y32156D01*
X4838Y32156D01*
X4838D01*
X4839Y32156D01*
X4839Y32155D01*
X4907Y31977D01*
X7504Y25146D01*
X6021Y24582D01*
X3292Y31759D01*
X1864Y41957D01*
X3294Y52169D01*
X7580Y62373D01*
X12843Y68709D01*
X12971Y68862D01*
X12971Y68862D01*
X12971Y68865D01*
X12972Y68867D01*
X12972Y69062D01*
Y70351D01*
X23665D01*
X23672Y70357D01*
Y72429D01*
X31264Y76551D01*
X42459D01*
Y74964D01*
D02*
G37*
G36*
X73668Y26701D02*
X73668Y26701D01*
X73830D01*
X73837Y26704D01*
X73843Y26701D01*
X73868Y26702D01*
X73874Y26705D01*
X73881Y26702D01*
X74781Y26760D01*
X74825Y26726D01*
X74944Y26570D01*
Y26183D01*
X74990Y26073D01*
X74851Y25914D01*
X74831Y25923D01*
X73781D01*
X73571Y25835D01*
X73483Y25625D01*
Y25175D01*
X73571Y24965D01*
X73632Y24939D01*
X73587Y24741D01*
X73294Y24758D01*
X73241Y24885D01*
X73031Y24973D01*
X71981D01*
X71828Y25126D01*
X71768Y25691D01*
X72010Y25818D01*
X72096D01*
X72119Y25827D01*
X73031D01*
X73241Y25915D01*
X73329Y26125D01*
Y26575D01*
X73304Y26635D01*
X73457Y26788D01*
X73668Y26701D01*
D02*
G37*
G36*
X56720Y24969D02*
X56648Y24850D01*
X56426Y24834D01*
X55287Y26345D01*
Y28685D01*
X55487Y28717D01*
X56720Y24969D01*
D02*
G37*
G36*
X69667Y24219D02*
X69762Y23990D01*
X70145Y23831D01*
X70330Y23908D01*
X70497Y23797D01*
Y23741D01*
X70516Y23694D01*
X70508Y23643D01*
X70810Y22379D01*
X70878Y22285D01*
X70922Y22178D01*
X71614Y21486D01*
X71614Y21486D01*
X71913Y21362D01*
X71913Y21362D01*
X73201D01*
X73332Y21417D01*
X73469Y21458D01*
X73611Y21575D01*
X73621Y21594D01*
X73641Y21602D01*
X73837Y21797D01*
X74257D01*
X74426Y21867D01*
X74496Y22036D01*
Y22414D01*
X74426Y22583D01*
X74257Y22653D01*
X74145D01*
X74063Y22853D01*
X74121Y22991D01*
Y23491D01*
X74049Y23663D01*
X74035Y23669D01*
X74080Y23867D01*
X76547Y23729D01*
X76662Y23522D01*
X76645Y23481D01*
X76045Y22736D01*
X75841Y22653D01*
X75349D01*
X75180Y22583D01*
X75110Y22414D01*
Y22036D01*
X75180Y21867D01*
X75349Y21797D01*
X75857D01*
X75870Y21802D01*
X75878D01*
X75926Y21822D01*
X75977Y21814D01*
X76056Y21833D01*
X76083Y21853D01*
X76116Y21853D01*
X76364Y21953D01*
X77324Y21838D01*
X77470Y21778D01*
X78151Y22060D01*
X78293Y21902D01*
X77987Y21338D01*
X76936Y19607D01*
X75801Y17929D01*
X74586Y16309D01*
X73294Y14750D01*
X71927Y13256D01*
X70488Y11831D01*
X68982Y10477D01*
X67412Y9198D01*
X65781Y7998D01*
X64093Y6879D01*
X62353Y5843D01*
X60564Y4893D01*
X58732Y4032D01*
X56859Y3261D01*
X54951Y2583D01*
X53012Y1998D01*
X51047Y1509D01*
X49060Y1116D01*
X47057Y820D01*
X45042Y623D01*
X43019Y524D01*
X40994D01*
X38971Y623D01*
X36956Y820D01*
X34952Y1116D01*
X33132Y1476D01*
Y6956D01*
X33332Y7038D01*
X33901Y6469D01*
X34290Y6308D01*
X39751D01*
X40140Y6469D01*
X40437Y6767D01*
X40591Y6736D01*
X40654Y6701D01*
X42274Y5081D01*
X42505Y4985D01*
X50205D01*
X50436Y5081D01*
X58397Y13042D01*
X58492Y13273D01*
Y22386D01*
X58680Y22456D01*
X59063Y22297D01*
X59333Y22409D01*
X59344Y22405D01*
X59405Y22406D01*
X59462Y22383D01*
X59959D01*
X60044Y22418D01*
X60135Y22434D01*
X61038Y23014D01*
X62209D01*
X62307Y22814D01*
X62247Y22736D01*
X61919Y22517D01*
X61888Y22470D01*
X61836Y22449D01*
X61557Y22170D01*
X61536Y22118D01*
X61489Y22087D01*
X61270Y21759D01*
X61259Y21704D01*
X61219Y21664D01*
X61069Y21300D01*
Y21244D01*
X61037Y21197D01*
X60960Y20811D01*
X60971Y20755D01*
X60950Y20703D01*
Y20309D01*
X60971Y20257D01*
X60960Y20202D01*
X61037Y19816D01*
X61069Y19769D01*
Y19713D01*
X61219Y19349D01*
X61259Y19309D01*
X61270Y19254D01*
X61489Y18926D01*
X61536Y18895D01*
X61557Y18843D01*
X61836Y18564D01*
X61888Y18542D01*
X61919Y18496D01*
X62247Y18277D01*
X62302Y18266D01*
X62342Y18226D01*
X62706Y18075D01*
X62762D01*
X62809Y18044D01*
X63195Y17967D01*
X63251Y17978D01*
X63303Y17956D01*
X63697D01*
X63749Y17978D01*
X63804Y17967D01*
X64190Y18044D01*
X64237Y18075D01*
X64293D01*
X64657Y18226D01*
X64697Y18266D01*
X64752Y18277D01*
X65080Y18496D01*
X65111Y18542D01*
X65163Y18564D01*
X65442Y18843D01*
X65464Y18895D01*
X65510Y18926D01*
X65729Y19254D01*
X65740Y19309D01*
X65780Y19349D01*
X65931Y19713D01*
Y19769D01*
X65962Y19816D01*
X66039Y20202D01*
X66028Y20257D01*
X66050Y20309D01*
Y20703D01*
X66028Y20755D01*
X66039Y20811D01*
X65962Y21197D01*
X65931Y21244D01*
Y21300D01*
X65780Y21664D01*
X65740Y21704D01*
X65729Y21759D01*
X65510Y22087D01*
X65464Y22118D01*
X65442Y22170D01*
X65163Y22449D01*
X65111Y22470D01*
X65080Y22517D01*
X64752Y22736D01*
X64697Y22747D01*
X64657Y22787D01*
X64293Y22937D01*
X64237D01*
X64190Y22969D01*
X63971Y23012D01*
X63955Y23043D01*
X63966Y23249D01*
X65040Y24322D01*
X65210Y24209D01*
X65192Y24166D01*
Y23761D01*
X65054Y23460D01*
X65051Y23387D01*
X64991Y23241D01*
X65149Y22858D01*
X65532Y22700D01*
X65915Y22858D01*
X66073Y23241D01*
X66013Y23387D01*
X66010Y23460D01*
X65872Y23761D01*
Y24041D01*
X66357Y24507D01*
X66518Y24563D01*
X66574Y24612D01*
X66642Y24641D01*
X66706Y24704D01*
X66902Y24665D01*
X66925Y24610D01*
X67308Y24452D01*
X67690Y24610D01*
X67776Y24817D01*
X67790Y24832D01*
X67829Y24852D01*
X68026Y24898D01*
X69667Y24219D01*
D02*
G37*
G36*
X58936Y26778D02*
X59034D01*
X59248Y26867D01*
X59469Y26884D01*
X59584Y26837D01*
X59836D01*
X59868Y26823D01*
X59869Y26823D01*
X59869Y26823D01*
X60087D01*
Y26803D01*
X60190Y26554D01*
X60439Y26451D01*
X61807D01*
X61900Y26251D01*
X61891Y26240D01*
X61858Y26134D01*
X61815Y26031D01*
Y25405D01*
X60439D01*
X60190Y25302D01*
X60189Y25298D01*
X60034Y25234D01*
X59584D01*
X59469Y25186D01*
X59248Y25204D01*
X59034Y25292D01*
X58936D01*
Y24765D01*
Y24238D01*
X59034D01*
X59248Y24327D01*
X59469Y24344D01*
X59584Y24297D01*
X60034D01*
X60158Y24132D01*
X60190Y24054D01*
X60439Y23951D01*
X61989D01*
X62238Y24054D01*
X62341Y24303D01*
Y24750D01*
X62426Y24828D01*
X62650Y24781D01*
X62680Y24707D01*
X62894Y24619D01*
X62992D01*
Y25146D01*
X63119D01*
Y25273D01*
X63646D01*
Y25365D01*
X63647Y25376D01*
X63804Y25513D01*
X63854Y25484D01*
X63962Y25469D01*
X64122Y25403D01*
X64462Y25543D01*
X64508Y25433D01*
X64798Y25313D01*
X64851Y25335D01*
X64964Y25165D01*
X63546Y23747D01*
X63374Y23664D01*
X60943D01*
X60858Y23628D01*
X60767Y23612D01*
X59864Y23032D01*
X59524D01*
X59524Y23032D01*
X59445Y23221D01*
X59063Y23379D01*
X58680Y23221D01*
X58492Y23291D01*
Y24177D01*
X58584Y24238D01*
X58682D01*
Y24765D01*
Y25292D01*
X58584D01*
X58492Y25353D01*
Y26717D01*
X58584Y26778D01*
X58682D01*
Y27305D01*
X58936D01*
Y26778D01*
D02*
G37*
G36*
X83138Y36538D02*
X82832Y34588D01*
X82422Y32604D01*
X81915Y30644D01*
X81313Y28710D01*
X80617Y26808D01*
X79830Y24943D01*
X78952Y23118D01*
X78628Y22519D01*
X78447Y22606D01*
X78552Y22860D01*
X78235Y23625D01*
X78235Y23806D01*
X78295Y23831D01*
X79039Y24575D01*
X79039Y24575D01*
X79163Y24874D01*
Y25926D01*
X79116Y26038D01*
X79093Y26158D01*
X78785Y26628D01*
X79156Y27091D01*
X79174Y27150D01*
X79217Y27194D01*
X79232Y27230D01*
X79232Y27234D01*
X79234Y27236D01*
X82943Y36591D01*
X83138Y36538D01*
D02*
G37*
G36*
X47837Y14631D02*
Y13983D01*
X47652Y13906D01*
X47200Y14359D01*
X46971Y14454D01*
X44322D01*
X44245Y14639D01*
X44678Y15071D01*
X47397D01*
X47837Y14631D01*
D02*
G37*
G36*
X46705Y13739D02*
X46678Y13512D01*
X46651Y13446D01*
X46489D01*
Y12992D01*
X46362D01*
Y12865D01*
X45833D01*
Y12538D01*
X45887D01*
Y11833D01*
X45802Y11771D01*
X45618Y11884D01*
Y12065D01*
X45212D01*
X44806D01*
Y11790D01*
X44787Y11777D01*
X44591Y11879D01*
Y12065D01*
X44062D01*
Y12319D01*
X44591D01*
Y12646D01*
X44537D01*
Y13109D01*
X44628Y13146D01*
X44786Y13529D01*
X44741Y13638D01*
X44852Y13804D01*
X46654D01*
X46705Y13739D01*
D02*
G37*
%LPC*%
G36*
X61812Y71520D02*
X61714D01*
Y71120D01*
X62114D01*
Y71218D01*
X62026Y71431D01*
X61812Y71520D01*
D02*
G37*
G36*
X48612Y78116D02*
X48514D01*
Y77716D01*
X48914D01*
Y77814D01*
X48825Y78028D01*
X48612Y78116D01*
D02*
G37*
G36*
X79195Y52643D02*
X78543D01*
Y51816D01*
X79195D01*
Y52643D01*
D02*
G37*
G36*
Y51562D02*
X78543D01*
Y50735D01*
X79195D01*
Y51562D01*
D02*
G37*
G36*
Y49043D02*
X78543D01*
Y48216D01*
X79195D01*
Y49043D01*
D02*
G37*
G36*
Y47962D02*
X78543D01*
Y47135D01*
X79195D01*
Y47962D01*
D02*
G37*
G36*
X80673Y46413D02*
X80312D01*
X79994Y46281D01*
X79862Y45963D01*
Y45527D01*
X80673D01*
Y46413D01*
D02*
G37*
G36*
X78875Y46289D02*
X78477D01*
Y45327D01*
X79339D01*
Y45825D01*
X79203Y46153D01*
X78875Y46289D01*
D02*
G37*
G36*
X78223D02*
X77825D01*
X77497Y46153D01*
X77361Y45825D01*
Y45327D01*
X78223D01*
Y46289D01*
D02*
G37*
G36*
X79339Y45073D02*
X78477D01*
Y44111D01*
X78875D01*
X79203Y44247D01*
X79339Y44575D01*
Y45073D01*
D02*
G37*
G36*
X79079Y40573D02*
X78252D01*
Y40221D01*
X78750D01*
X78983Y40317D01*
X79079Y40550D01*
Y40573D01*
D02*
G37*
G36*
X77998D02*
X77171D01*
Y40550D01*
X77267Y40317D01*
X77500Y40221D01*
X77998D01*
Y40573D01*
D02*
G37*
G36*
X78875Y39889D02*
X78477D01*
Y38927D01*
X79339D01*
Y39425D01*
X79203Y39753D01*
X78875Y39889D01*
D02*
G37*
G36*
X78223D02*
X77825D01*
X77497Y39753D01*
X77361Y39425D01*
Y38927D01*
X78223D01*
Y39889D01*
D02*
G37*
G36*
X76544Y39160D02*
X76446D01*
Y38735D01*
X76846D01*
Y38858D01*
X76758Y39072D01*
X76544Y39160D01*
D02*
G37*
G36*
X76846Y38481D02*
X76446D01*
Y38056D01*
X76544D01*
X76758Y38144D01*
X76846Y38358D01*
Y38481D01*
D02*
G37*
G36*
X79339Y38673D02*
X78477D01*
Y37711D01*
X78875D01*
X79203Y37847D01*
X79339Y38175D01*
Y38673D01*
D02*
G37*
G36*
X78223D02*
X77361D01*
Y38175D01*
X77497Y37847D01*
X77825Y37711D01*
X78223D01*
Y38673D01*
D02*
G37*
G36*
X80673Y38473D02*
X79862D01*
Y38037D01*
X79994Y37719D01*
X80312Y37587D01*
X80673D01*
Y38473D01*
D02*
G37*
G36*
X75663Y35698D02*
X75565D01*
Y35298D01*
X75965D01*
Y35396D01*
X75876Y35610D01*
X75663Y35698D01*
D02*
G37*
G36*
X75311D02*
X75213D01*
X74999Y35610D01*
X74911Y35396D01*
Y35298D01*
X75311D01*
Y35698D01*
D02*
G37*
G36*
X68670Y34436D02*
X68572D01*
Y34036D01*
X68972D01*
Y34134D01*
X68884Y34348D01*
X68670Y34436D01*
D02*
G37*
G36*
X68972Y32893D02*
X68572D01*
Y32468D01*
X68670D01*
X68884Y32556D01*
X68972Y32770D01*
Y32893D01*
D02*
G37*
G36*
X75965Y35044D02*
X75438D01*
X74911D01*
Y34946D01*
X74999Y34732D01*
X75017Y34511D01*
X74969Y34396D01*
Y33946D01*
X75034Y33790D01*
Y33333D01*
X74983Y33209D01*
Y32831D01*
X75053Y32662D01*
X75222Y32592D01*
X75730D01*
X75899Y32662D01*
X75969Y32831D01*
Y33209D01*
X75935Y33292D01*
X76094Y33431D01*
X76378Y33265D01*
X76470Y33252D01*
Y32020D01*
X78470D01*
Y34020D01*
X76938D01*
X76860Y34052D01*
X76860Y34052D01*
X76706D01*
X75980Y34476D01*
X75870Y34492D01*
X75866Y34493D01*
X75859Y34511D01*
X75876Y34732D01*
X75965Y34946D01*
Y35044D01*
D02*
G37*
G36*
X71091Y32396D02*
X70993D01*
Y31996D01*
X71393D01*
Y32094D01*
X71305Y32308D01*
X71091Y32396D01*
D02*
G37*
G36*
X69850D02*
X69752D01*
X69539Y32308D01*
X69450Y32094D01*
Y31996D01*
X69850D01*
Y32396D01*
D02*
G37*
G36*
X77343Y31568D02*
X76663Y31287D01*
X76382Y30607D01*
X77343D01*
Y31568D01*
D02*
G37*
G36*
X73287Y52597D02*
X73189D01*
X72975Y52508D01*
X72887Y52295D01*
Y52197D01*
X73287D01*
Y52597D01*
D02*
G37*
G36*
X70448Y45485D02*
X70350D01*
Y45085D01*
X70750D01*
Y45183D01*
X70662Y45397D01*
X70448Y45485D01*
D02*
G37*
G36*
X70750Y44831D02*
X70350D01*
Y44431D01*
X70448D01*
X70662Y44520D01*
X70750Y44733D01*
Y44831D01*
D02*
G37*
G36*
X67964Y43061D02*
X67564D01*
Y42661D01*
X67662D01*
X67876Y42749D01*
X67964Y42963D01*
Y43061D01*
D02*
G37*
G36*
X67310D02*
X66910D01*
Y42963D01*
X66999Y42749D01*
X67212Y42661D01*
X67310D01*
Y43061D01*
D02*
G37*
G36*
X70623Y41033D02*
X70225D01*
X69973Y40929D01*
X69869Y40677D01*
Y40579D01*
X70623D01*
Y41033D01*
D02*
G37*
G36*
Y40325D02*
X69869D01*
Y40227D01*
X69973Y39975D01*
X70225Y39871D01*
X70623D01*
Y40325D01*
D02*
G37*
G36*
X71365Y39095D02*
X71127D01*
Y38594D01*
X71678D01*
Y38782D01*
X71586Y39003D01*
X71365Y39095D01*
D02*
G37*
G36*
X70873D02*
X70635D01*
X70414Y39003D01*
X70322Y38782D01*
Y38594D01*
X70873D01*
Y39095D01*
D02*
G37*
G36*
X37092Y14097D02*
X36692D01*
Y13999D01*
X36780Y13786D01*
X36994Y13697D01*
X37092D01*
Y14097D01*
D02*
G37*
G36*
X37198Y13469D02*
X36821D01*
Y13167D01*
X37198D01*
Y13469D01*
D02*
G37*
G36*
X36567D02*
X36190D01*
Y13167D01*
X36567D01*
Y13469D01*
D02*
G37*
G36*
X41675Y10168D02*
X41275D01*
Y9768D01*
X41373D01*
X41587Y9856D01*
X41675Y10070D01*
Y10168D01*
D02*
G37*
G36*
X73025Y18665D02*
X72489Y18443D01*
X72267Y17907D01*
X72489Y17371D01*
X73025Y17149D01*
X73561Y17371D01*
X73783Y17907D01*
X73561Y18443D01*
X73025Y18665D01*
D02*
G37*
G36*
X35560Y4314D02*
X35024Y4092D01*
X34802Y3556D01*
X35024Y3020D01*
X35560Y2798D01*
X36096Y3020D01*
X36318Y3556D01*
X36096Y4092D01*
X35560Y4314D01*
D02*
G37*
G36*
X63646Y25019D02*
X63246D01*
Y24619D01*
X63344D01*
X63558Y24707D01*
X63646Y24921D01*
Y25019D01*
D02*
G37*
G36*
X46235Y13446D02*
X45833D01*
Y13119D01*
X46235D01*
Y13446D01*
D02*
G37*
G36*
X45618Y12751D02*
X45339D01*
Y12319D01*
X45618D01*
Y12751D01*
D02*
G37*
G36*
X45085D02*
X44806D01*
Y12319D01*
X45085D01*
Y12751D01*
D02*
G37*
%LPD*%
D15*
X55774Y68914D02*
Y68974D01*
X51308Y71890D02*
X51312Y71886D01*
X51367Y71830D01*
X55499Y68640D02*
X55774Y68914D01*
X55499Y68580D02*
Y68640D01*
X54738Y68445D02*
X54797Y68449D01*
X54737Y68445D02*
X54738Y68445D01*
X47052Y76064D02*
X47072Y76080D01*
X46854Y76146D02*
X46936Y76064D01*
X74333Y27940D02*
X74957Y28446D01*
X75052Y28541D02*
X75179D01*
X74957Y28446D02*
X75052Y28541D01*
X73914Y27940D02*
X74333D01*
X75179Y28541D02*
X75244Y28565D01*
X76944Y29210D01*
X77939Y26737D02*
X78264Y26652D01*
X76194Y27194D02*
X76463Y27124D01*
X76509Y27111D02*
X76747Y26980D01*
X76463Y27124D02*
X76509Y27111D01*
X76747Y26980D02*
X76977Y26750D01*
X77892D01*
X77939Y26737D01*
X74941Y27194D02*
X76194D01*
X41140Y10295D02*
X41148Y10287D01*
X48387Y76581D02*
X48438Y76530D01*
X48581D01*
X48854Y76235D02*
X48971Y76021D01*
X48830Y76279D02*
X48854Y76235D01*
X48581Y76530D02*
X48789Y76322D01*
X48830Y76279D01*
X48383Y76585D02*
X48387Y76589D01*
X47748Y76585D02*
X48383D01*
X47744Y76581D02*
X47748Y76585D01*
X48827Y71941D02*
X49479D01*
X50292Y74041D02*
X50621Y74370D01*
Y74505D01*
X50792Y74676D01*
X48379Y75692D02*
X48383Y75633D01*
X48446Y74676D02*
X48637D01*
X49090D02*
X49149D01*
X48637D02*
X48899D01*
X48387D02*
X48446D01*
X48899D02*
X49090D01*
X52562Y68513D02*
Y69341D01*
X45808Y72820D02*
X45818Y72738D01*
X45788Y72976D02*
X45808Y72820D01*
X46039Y72666D02*
X46041Y72530D01*
X46037Y72753D02*
X46039Y72666D01*
X60219Y72229D02*
X60612Y72473D01*
X61528Y72359D02*
X61752Y72136D01*
X60020Y72030D02*
X60219Y72229D01*
X61752Y71429D02*
Y72136D01*
X60612Y72473D02*
X61184D01*
X59995Y71926D02*
X60020Y72030D01*
X61184Y72473D02*
X61528Y72359D01*
X78061Y61184D02*
X81851Y52346D01*
X77614Y61631D02*
X78009Y61236D01*
X81858Y52291D02*
X81949Y51531D01*
X81851Y52346D02*
X81858Y52291D01*
X78009Y61236D02*
X78061Y61184D01*
X81949Y51531D02*
X81964Y51404D01*
X82245Y51115D01*
X83084Y39309D02*
Y44691D01*
X82245Y51115D02*
X83084Y44691D01*
X79775Y47984D02*
Y51584D01*
X79856Y47227D02*
X80002Y47082D01*
X80328Y45949D02*
X80800Y45400D01*
X79775Y47984D02*
X79856Y47660D01*
Y47227D02*
Y47660D01*
X80002Y47082D02*
X80269Y46017D01*
X80328Y45949D01*
X63525Y47174D02*
X63545Y47116D01*
X63500Y49750D02*
X63529Y49820D01*
X63545Y47116D02*
X64032Y45671D01*
X63500Y49750D02*
X63525Y47174D01*
X63529Y49820D02*
X67167Y58851D01*
X64326Y49737D02*
X64383Y49965D01*
X64230Y48007D02*
X64326Y49737D01*
X64230Y48007D02*
X64230Y47839D01*
X64383Y49965D02*
X67742Y58604D01*
X64458Y46814D02*
X64904Y46022D01*
X64056Y45636D02*
X64100Y45592D01*
X64032Y45671D02*
X64056Y45636D01*
X64230Y47839D02*
X64458Y46814D01*
X64100Y45592D02*
X64543Y45150D01*
X65184Y49631D02*
X65205Y49717D01*
X67742Y58604D02*
X67977Y60524D01*
X68739Y60331D02*
Y61806D01*
X68294Y58335D02*
X68739Y60331D01*
X67977Y60524D02*
Y61654D01*
X67167Y58851D02*
X67215Y60719D01*
Y61432D01*
X65205Y49717D02*
X68294Y58335D01*
X71787Y28490D02*
X72714Y28077D01*
X72764Y28027D01*
X73668Y27123D01*
X71299Y28490D02*
X71787D01*
X73854Y27124D02*
X74941Y27194D01*
X73830Y27123D02*
X73854Y27124D01*
X73668Y27123D02*
X73830D01*
X72459Y30938D02*
X72501Y30896D01*
X72459Y30938D02*
Y31615D01*
X69254Y30781D02*
X69269D01*
X69223Y30812D02*
X69254Y30781D01*
X70358Y30099D02*
X70394Y29906D01*
X70280Y30022D02*
X70394Y29906D01*
X70459Y30056D01*
X70239Y29591D02*
X70299Y29507D01*
X72420Y31654D02*
X72459Y31615D01*
X62857Y28261D02*
X63183Y28128D01*
X55834Y29372D02*
X55880Y29464D01*
X57151Y24605D02*
X57161Y24625D01*
X57232Y24766D01*
X55762Y29231D02*
X57232Y24766D01*
X55762Y29231D02*
X55834Y29372D01*
X57105Y24516D02*
X57151Y24605D01*
X54941Y26102D02*
X56755Y23697D01*
X54864Y26331D02*
Y29326D01*
Y26331D02*
X54864Y26203D01*
X54941Y26102D01*
X56755Y23697D02*
X56824Y23687D01*
X68346Y48739D02*
X68346Y48739D01*
X68246Y48521D02*
X68346Y48739D01*
X68146Y48739D02*
X68146Y48739D01*
X68246Y48521D01*
Y48785D01*
Y48065D02*
Y48521D01*
X41148Y11295D02*
X41196Y11247D01*
X41847D01*
X41910Y11184D01*
X37211Y14224D02*
Y14978D01*
X37219Y14986D01*
X38219Y14224D02*
X38278Y14165D01*
X37757Y12789D02*
Y13560D01*
X40954Y12128D02*
X41851D01*
X46087Y12992D02*
X46362D01*
X46355Y13081D02*
Y13480D01*
X46342Y13493D02*
X46355Y13480D01*
X40954Y13132D02*
X42978D01*
X46362Y12192D02*
X47184D01*
X38754Y13924D02*
X38966Y13634D01*
X38434Y14165D02*
X38502Y14097D01*
X38278Y14165D02*
X38434D01*
X38502Y14097D02*
X38587D01*
X38716Y13969D01*
X38754Y13924D01*
X43434Y75819D02*
X43815D01*
X43815Y75819D02*
X43950D01*
X43815Y75819D02*
X43890D01*
X43815D02*
X43815Y75819D01*
X65039Y47737D02*
X65184Y49631D01*
X65599Y46026D02*
Y46216D01*
X65039Y47054D02*
X65599Y46310D01*
X65039Y47054D02*
Y47737D01*
X64543Y45150D02*
X65330Y45026D01*
X65599Y46216D02*
Y46310D01*
X37990Y10821D02*
X38151Y10507D01*
X61483Y69841D02*
Y70241D01*
Y67105D02*
Y69841D01*
X78317Y31409D02*
X78317Y31409D01*
X78063Y30339D02*
X78317Y31409D01*
X77275Y31058D02*
X78317Y31409D01*
X77275Y31058D02*
X77275Y31058D01*
X78317Y31409D02*
X78317Y31409D01*
X77470Y30480D02*
X78317Y31409D01*
X76453Y29942D02*
X76943Y30786D01*
X76453Y29942D02*
X77426Y29872D01*
X48518Y78187D02*
X48518Y78187D01*
X48418Y77969D02*
X48518Y78187D01*
X48418Y77969D02*
Y78233D01*
Y77513D02*
Y77969D01*
X48318Y78187D02*
X48318Y78187D01*
X48418Y77969D01*
X45988Y72843D02*
X45988Y72843D01*
X45788Y72976D02*
X45988Y72843D01*
X45788Y72976D02*
X45788Y72976D01*
X45661Y73181D02*
X45788Y72976D01*
X45927Y72751D01*
X45862Y72663D02*
X46041Y72530D01*
X45862Y72663D02*
X45862Y72663D01*
X37502Y13784D02*
X37534D01*
X37278Y14007D02*
Y14165D01*
Y14007D02*
X37502Y13784D01*
X37534D02*
X37757Y13560D01*
X37701Y11874D02*
Y12731D01*
Y11874D02*
X37989Y11584D01*
X70223Y43434D02*
Y44958D01*
X78317Y31409D02*
X78841Y31983D01*
X70223Y44958D02*
Y46482D01*
X69532Y30801D02*
X69648Y30809D01*
X69269Y30781D02*
X69532Y30801D01*
X63154Y29003D02*
X63155Y29002D01*
X62965Y29142D02*
X63154Y29003D01*
X63860Y25970D02*
X64086Y26048D01*
X63860Y25970D02*
X63860Y25970D01*
X64122Y25944D01*
X63535Y26002D02*
X63860Y25970D01*
X64067Y25849D02*
X64067Y25849D01*
X63860Y25970D02*
X64067Y25849D01*
X56941Y74884D02*
X57404Y75057D01*
X67056Y70120D02*
X67141Y70061D01*
Y69870D02*
Y70061D01*
Y69791D02*
Y69870D01*
Y69791D02*
X67929Y66328D01*
X67977Y61654D01*
X46851Y77385D02*
X47456Y77385D01*
X46660Y77385D02*
X46851D01*
X46601Y77470D02*
X46660Y77385D01*
X58495Y70680D02*
X58555Y70739D01*
X58495Y70410D02*
Y70680D01*
X58469Y69950D02*
X58495Y70410D01*
X60587Y70993D02*
X60646Y70933D01*
Y70664D02*
Y70933D01*
Y70664D02*
X60824Y70320D01*
X60833Y70241D01*
Y69841D02*
Y70241D01*
X54797Y68449D02*
X55447D01*
X45534Y74608D02*
X45593Y74668D01*
X45264Y74608D02*
X45534D01*
X45106Y74490D02*
X45264Y74608D01*
X44772Y74155D02*
X45106Y74490D01*
X44772Y72974D02*
Y74155D01*
Y72974D02*
X45055Y72390D01*
X47202Y69545D01*
X47963Y68784D01*
X47985Y68775D01*
X49852Y68529D01*
X52257Y68513D01*
X52527D01*
X52586Y68453D01*
X54836Y76014D02*
X54872Y76073D01*
X54836Y75295D02*
Y76014D01*
X51367Y71830D02*
X51994D01*
X62133Y69441D02*
Y69841D01*
Y69441D02*
X62142Y69362D01*
X62904Y68328D01*
Y67054D02*
Y68328D01*
X62570Y66719D02*
X62904Y67054D01*
X62090Y66482D02*
X62570Y66719D01*
X61588Y65980D02*
X62090Y66482D01*
X61571Y65973D02*
X61588Y65980D01*
X60529Y65703D02*
X61571Y65973D01*
X57755Y65703D02*
X60529D01*
X56486Y65734D02*
X57755Y65703D01*
X55716Y65955D02*
X56486Y65734D01*
X55694Y65965D02*
X55716Y65955D01*
X54250Y66623D02*
X55694Y65965D01*
X52757Y68013D02*
X54250Y66623D01*
X52646Y68124D02*
X52757Y68013D01*
X52646Y68124D02*
Y68394D01*
X52586Y68453D02*
X52646Y68394D01*
X52562Y68513D02*
X52586Y68453D01*
X54872Y76073D02*
Y76835D01*
X63231Y70527D02*
X63441Y70612D01*
X62962Y70527D02*
X63231D01*
X62412Y70050D02*
X62962Y70527D01*
X62143Y70050D02*
X62412D01*
X62133Y69841D02*
X62143Y70050D01*
X60646Y71322D02*
X60898Y71783D01*
X60646Y71052D02*
Y71322D01*
X60587Y70993D02*
X60646Y71052D01*
X71210Y38896D02*
X71506Y39679D01*
X71210Y38626D02*
Y38896D01*
X71000Y38467D02*
X71210Y38626D01*
X46915Y13141D02*
X47184D01*
X46716Y13001D02*
X46915Y13141D01*
X46637Y12992D02*
X46716Y13001D01*
X46362Y12992D02*
X46637D01*
X76259Y38523D02*
X76319Y38608D01*
X76259Y38254D02*
Y38523D01*
X75497Y35500D02*
X76259Y38254D01*
X75497Y35230D02*
Y35500D01*
X75438Y35171D02*
X75497Y35230D01*
X70791Y38626D02*
X71000Y38467D01*
X70521Y38626D02*
X70791D01*
X68113Y40530D02*
X70521Y38626D01*
X67779Y40865D02*
X68113Y40530D01*
X67497Y42859D02*
X67779Y40865D01*
X67497Y42859D02*
Y43129D01*
X67437Y43188D02*
X67497Y43129D01*
X54042Y76886D02*
X54102Y76827D01*
X54042Y76886D02*
Y77156D01*
X53931Y77268D02*
X54042Y77156D01*
X53684Y77402D02*
X53931Y77268D01*
X51780Y77495D02*
X53684Y77402D01*
X48446Y77495D02*
X51780D01*
X55447Y67505D02*
X55507Y67564D01*
X54797Y67505D02*
X55447D01*
X54737Y67445D02*
X54797Y67505D01*
X80340Y38065D02*
X80800Y38600D01*
X80340Y37796D02*
Y38065D01*
X78841Y31983D02*
X80340Y37796D01*
X45653Y73339D02*
X45661Y73181D01*
X45653Y73339D02*
Y73608D01*
X45593Y73668D02*
X45653Y73608D01*
X46803Y72076D02*
X46863Y72017D01*
X46534Y72076D02*
X46803D01*
X46376Y72196D02*
X46534Y72076D01*
X46041Y72530D02*
X46376Y72196D01*
X45927Y72751D02*
X46041Y72530D01*
X55404Y77673D02*
X55514Y77732D01*
X55135Y77673D02*
X55404D01*
X54700Y77534D02*
X55135Y77673D01*
X54436Y77534D02*
X54700Y77534D01*
X54174Y77271D02*
X54436Y77534D01*
X54161Y77156D02*
X54174Y77271D01*
X54161Y76886D02*
Y77156D01*
X54102Y76827D02*
X54161Y76886D01*
X79440Y52093D02*
X79775Y51584D01*
X79440Y52093D02*
Y52363D01*
X78400Y58712D02*
X79440Y52363D01*
X77029Y60275D02*
X78400Y58712D01*
X76529Y60275D02*
X77029D01*
X56005Y77561D02*
X56040Y77361D01*
X55893Y77673D02*
X56005Y77561D01*
X55624Y77673D02*
X55893D01*
X55514Y77732D02*
X55624Y77673D01*
X61663Y29142D02*
X61722Y29202D01*
X61393Y29142D02*
X61663D01*
X59322Y28127D02*
X61393Y29142D01*
X58987Y27792D02*
X59322Y28127D01*
X58868Y27634D02*
X58987Y27792D01*
X58868Y27365D02*
Y27634D01*
X58809Y27305D02*
X58868Y27365D01*
X45195Y12916D02*
X46087Y12992D01*
X37990Y10821D02*
Y11463D01*
X37989Y11584D02*
X37990Y11463D01*
X37219Y14224D02*
X37278Y14165D01*
X69147Y48065D02*
X69207Y48006D01*
X69147Y48065D02*
Y48335D01*
X69118Y49146D02*
X69147Y48335D01*
X68737Y49662D02*
X69118Y49146D01*
X77840Y38693D02*
X78350Y38800D01*
X76379Y38693D02*
X77840D01*
X76319Y38608D02*
X76379Y38693D01*
X67378Y46787D02*
X67437Y46728D01*
X67378Y46787D02*
Y47972D01*
X67374Y48423D02*
X67378Y47972D01*
X67374Y48423D02*
Y49146D01*
X67885Y49657D01*
X68737Y49662D01*
X59757Y69901D02*
X59817Y69842D01*
X59757Y69901D02*
Y70171D01*
X59614Y70410D02*
X59757Y70171D01*
X59614Y70410D02*
Y70680D01*
X59555Y70739D02*
X59614Y70680D01*
X59555Y70739D02*
Y71755D01*
X55872Y76835D02*
X55931Y76895D01*
Y77164D01*
X56040Y77361D01*
X73956Y42671D02*
X74041Y42261D01*
X73956Y42671D02*
Y42940D01*
X73936Y43052D02*
X73956Y42940D01*
X73936Y43052D02*
Y43097D01*
X73634Y43659D02*
X73936Y43097D01*
X55872Y76073D02*
Y76835D01*
X73956Y44451D02*
X74041Y44861D01*
X73956Y44182D02*
Y44451D01*
X73938Y44024D02*
X73956Y44182D01*
X73634Y43659D02*
X73938Y44024D01*
X76029Y60275D02*
X76529D01*
X74658Y58712D02*
X76029Y60275D01*
X72551Y52752D02*
X74658Y58712D01*
X49538Y71120D02*
Y71882D01*
X80040Y43959D02*
X80800Y43200D01*
X79771Y43959D02*
X80040D01*
X79129Y44590D02*
X79771Y43959D01*
X78859Y44590D02*
X79129D01*
X78350Y45200D02*
X78859Y44590D01*
X73354Y52129D02*
X73414Y52070D01*
X73085Y52129D02*
X73354D01*
X72974Y52241D02*
X73085Y52129D01*
X72551Y52752D02*
X72974Y52241D01*
X58182Y66496D02*
X58467Y66675D01*
X56790Y66496D02*
X58182D01*
X56020Y66717D02*
X56790Y66496D01*
X55686Y67052D02*
X56020Y66717D01*
X55567Y67210D02*
X55686Y67052D01*
X55567Y67210D02*
Y67479D01*
X55507Y67564D02*
X55567Y67479D01*
X61663Y29261D02*
X61722Y29202D01*
X61663Y29261D02*
Y29452D01*
X61662Y29722D02*
X61663Y29452D01*
X61662Y29722D02*
Y29913D01*
X61603Y29972D02*
X61662Y29913D01*
X70750Y40452D02*
X71160Y40342D01*
Y40073D02*
Y40342D01*
Y40073D02*
X71506Y39679D01*
X73592Y40826D02*
X73652Y40767D01*
X73592Y40826D02*
Y41208D01*
X73956Y41582D01*
Y41852D01*
X74041Y42261D01*
X58467Y66675D02*
X59817D01*
X74243Y40767D02*
X74303Y40767D01*
X73712Y40767D02*
X74243D01*
X73652Y40767D02*
X73712Y40767D01*
X69918Y31928D02*
X69977Y31869D01*
X69648Y31928D02*
X69918D01*
X69537Y32040D02*
X69648Y31928D01*
X68885Y32824D02*
X69537Y32040D01*
X68774Y32936D02*
X68885Y32824D01*
X68505Y32936D02*
X68774D01*
X68445Y33020D02*
X68505Y32936D01*
X77840Y44693D02*
X78350Y45200D01*
X76849Y44693D02*
X77840D01*
X76656Y44501D02*
X76849Y44693D01*
X76387Y44501D02*
X76656D01*
X76327Y44442D02*
X76387Y44501D01*
X58750Y24706D02*
X58809Y24765D01*
X59555Y71755D02*
X59614Y71815D01*
X59884D01*
X59995Y71926D01*
X61646Y71322D02*
X61752Y71429D01*
X61646Y71052D02*
Y71322D01*
X61587Y70993D02*
X61646Y71052D01*
X70363Y52395D02*
X72551Y52752D01*
X70029Y52060D02*
X70363Y52395D01*
X69276Y50786D02*
X70029Y52060D01*
X68737Y49662D02*
X69276Y50786D01*
X68445Y33020D02*
Y33909D01*
X80800Y38600D02*
Y40800D01*
X76453Y29942D02*
X77470Y30480D01*
X75281Y29284D02*
X76453Y29942D01*
X75192Y29233D02*
X75281Y29284D01*
X74160Y29233D02*
X75192D01*
X72190Y30166D02*
X74160Y29233D01*
X71750Y30606D02*
X72190Y30166D01*
X71750Y30606D02*
Y30651D01*
X71658Y31344D02*
X71750Y30651D01*
X71307Y31698D02*
X71658Y31344D01*
X71195Y31809D02*
X71307Y31698D01*
X70926Y31809D02*
X71195D01*
X70866Y31869D02*
X70926Y31809D01*
X73804Y51088D02*
X73914Y50778D01*
X73804Y51088D02*
Y51357D01*
X73739Y51475D02*
X73804Y51357D01*
X73474Y51741D02*
X73739Y51475D01*
X73474Y51741D02*
Y52010D01*
X73414Y52070D02*
X73474Y52010D01*
X71823Y40850D02*
X71882Y40910D01*
X71632Y40850D02*
X71823D01*
X71574Y40801D02*
X71632Y40850D01*
X71491Y40718D02*
X71574Y40801D01*
X71491Y40694D02*
Y40718D01*
X71408Y40611D02*
X71491Y40694D01*
X71350Y40562D02*
X71408Y40611D01*
X71160Y40562D02*
X71350D01*
X70750Y40452D02*
X71160Y40562D01*
X73592Y40707D02*
X73652Y40767D01*
X73592Y40438D02*
Y40707D01*
X73474Y40280D02*
X73592Y40438D01*
X73139Y39945D02*
X73474Y40280D01*
X71546Y39679D02*
X73139Y39945D01*
X71506Y39679D02*
X71546D01*
X78238Y39410D02*
X78350Y38800D01*
X78238Y39410D02*
Y40690D01*
X78125Y40700D02*
X78238Y40690D01*
X73652Y46736D02*
X73712Y46795D01*
Y47206D01*
X73836Y47482D01*
X73929Y48695D01*
Y50468D01*
X73914Y50778D02*
X73929Y50468D01*
X49262Y69471D02*
X49276D01*
X48289Y69537D02*
X49262Y69471D01*
X47954Y69871D02*
X48289Y69537D01*
X46922Y71688D02*
X47954Y69871D01*
X46922Y71688D02*
Y71957D01*
X46863Y72017D02*
X46922Y71957D01*
X80040Y40041D02*
X80800Y40800D01*
X79771Y40041D02*
X80040D01*
X79129Y39410D02*
X79771Y40041D01*
X78859Y39410D02*
X79129D01*
X78350Y38800D02*
X78859Y39410D01*
X80800Y40800D02*
Y43200D01*
X73652Y46736D02*
X74303D01*
X54678Y67505D02*
X54737Y67445D01*
X54408Y67505D02*
X54678D01*
X53757Y68013D02*
X54408Y67505D01*
X53646Y68124D02*
X53757Y68013D01*
X53646Y68124D02*
Y68394D01*
X53586Y68453D02*
X53646Y68394D01*
X80800Y43200D02*
Y45400D01*
X50487Y69410D02*
X50546Y69350D01*
X50217Y69410D02*
X50487D01*
X49276Y69471D02*
X50217Y69410D01*
X58796Y27246D02*
X58809Y27305D01*
X58796Y26123D02*
Y27246D01*
Y26123D02*
X58811Y26101D01*
Y24825D02*
Y26101D01*
X58809Y24765D02*
X58811Y24825D01*
X61528Y70933D02*
X61587Y70993D01*
X61528Y70664D02*
Y70933D01*
X61483Y70241D02*
X61528Y70664D01*
X73956Y45271D02*
X74041Y44861D01*
X73956Y45271D02*
Y45540D01*
X73938Y45698D02*
X73956Y45540D01*
X73712Y46265D02*
X73938Y45698D01*
X73712Y46265D02*
Y46676D01*
X73652Y46736D02*
X73712Y46676D01*
X56456Y77673D02*
X56515Y77732D01*
X56265Y77673D02*
X56456D01*
X56206Y77624D02*
X56265Y77673D01*
X56124Y77541D02*
X56206Y77624D01*
X56059Y77381D02*
X56124Y77541D01*
X56040Y77361D02*
X56059Y77381D01*
X40005Y12073D02*
X40894D01*
X41851Y12128D02*
X41910Y12184D01*
X40894Y12073D02*
X40954Y12128D01*
X41910Y12184D02*
X42926D01*
X69977Y31869D02*
X70866D01*
X42986Y12192D02*
X44062D01*
X42926Y12184D02*
X42986Y12192D01*
X73129Y43689D02*
X73634Y43659D01*
X72664Y43860D02*
X73129Y43689D01*
X72650Y43860D02*
X72664D01*
X71762Y44012D02*
X72650Y43860D01*
X71073Y44012D02*
X71762D01*
X70552Y43493D02*
X71073Y44012D01*
X70283Y43493D02*
X70552D01*
X70223Y43434D02*
X70283Y43493D01*
X61219Y66841D02*
X61483Y67105D01*
X61070Y66719D02*
X61219Y66841D01*
X60102Y66719D02*
X61070D01*
X59817Y66675D02*
X60102Y66719D01*
X48708Y72188D02*
X48768Y72128D01*
X49479Y71941D02*
X49538Y71882D01*
X48768Y72128D02*
X48827Y71941D01*
X48387Y73676D02*
X49149D01*
X54042Y75823D02*
X54102Y75827D01*
X53852Y75823D02*
X54042D01*
X53447D02*
X53852D01*
X53257D02*
X53447D01*
X53197Y75819D02*
X53257Y75823D01*
X53197Y76521D02*
Y76581D01*
Y76331D02*
Y76521D01*
Y76069D02*
Y76331D01*
Y75879D02*
Y76069D01*
Y75819D02*
Y75879D01*
X72415Y31666D02*
X72420Y31654D01*
X71085Y34477D02*
X72415Y31666D01*
X71085Y34477D02*
Y34746D01*
X71000Y34806D02*
X71085Y34746D01*
X65667Y44280D02*
Y44907D01*
X65659Y44966D02*
X65667Y44907D01*
X65800Y69608D02*
Y69878D01*
Y69608D02*
X67167Y66106D01*
X67215Y61432D01*
X65330Y45026D02*
X65599D01*
X65659Y44966D01*
X66971Y71179D02*
X67056Y71120D01*
X66781Y71179D02*
X66971D01*
X65991D02*
X66781D01*
X65800D02*
X65991D01*
X65591Y71262D02*
X65800Y71179D01*
X67056Y71120D02*
X67141Y71061D01*
X67331D01*
X67410D01*
X67568Y70941D01*
X67902Y70607D01*
X68691Y66479D01*
X68739Y61806D01*
X65599Y46026D02*
X65659Y45966D01*
X51248Y71116D02*
X51308Y71112D01*
X50597Y71116D02*
X51248D01*
X50538Y71120D02*
X50597Y71116D01*
X50538Y71120D02*
Y72644D01*
X56507Y68368D02*
Y68453D01*
Y68178D02*
Y68368D01*
Y67839D02*
Y68178D01*
Y67648D02*
Y67839D01*
Y67564D02*
Y67648D01*
X57217Y67378D02*
X57277Y67318D01*
X57027Y67378D02*
X57217D01*
X56948D02*
X57027D01*
X56836Y67479D02*
X56948Y67378D01*
X56757Y67479D02*
X56836D01*
X56567D02*
X56757D01*
X56507Y67564D02*
X56567Y67479D01*
X46804Y76204D02*
X46854Y76146D01*
X46804Y76204D02*
Y76395D01*
X46744Y76454D02*
X46804Y76395D01*
X51248Y70172D02*
X51308Y70112D01*
X51058Y70172D02*
X51248D01*
X50981Y70177D02*
X51058Y70172D01*
X50873Y70285D02*
X50981Y70177D01*
X50796Y70290D02*
X50873Y70285D01*
X50606Y70290D02*
X50796D01*
X50546Y70350D02*
X50606Y70290D01*
X50487Y70354D02*
X50546Y70350D01*
X50296Y70354D02*
X50487D01*
X50026D02*
X50296D01*
X49835D02*
X50026D01*
X49776Y70358D02*
X49835Y70354D01*
X52138Y75759D02*
X52197Y75819D01*
X51947Y75759D02*
X52138D01*
X51804Y75752D02*
X51947Y75759D01*
X51613Y75752D02*
X51804D01*
X51554Y75692D02*
X51613Y75752D01*
X50494Y75692D02*
X50554D01*
X50304D02*
X50494D01*
X50280D02*
X50304D01*
X50090D02*
X50280D01*
X50030D02*
X50090D01*
X48772Y70418D02*
X48776Y70358D01*
X48772Y70418D02*
Y70608D01*
Y70878D01*
Y71068D01*
X48768Y71128D02*
X48772Y71068D01*
X48708Y71188D02*
X48768Y71128D01*
X48518Y71188D02*
X48708D01*
X48439D02*
X48518D01*
X47796Y71576D02*
X48439Y71188D01*
X47685Y71688D02*
X47796Y71576D01*
X47685Y71688D02*
Y71767D01*
Y71957D01*
X47625Y72017D02*
X47685Y71957D01*
X48383Y74735D02*
X48387Y74676D01*
X48383Y74735D02*
Y74926D01*
Y75442D01*
Y75633D01*
X49732Y74676D02*
X49792Y74676D01*
X49542Y74676D02*
X49732D01*
X49399D02*
X49542D01*
X49208D02*
X49399D01*
X49149D02*
X49208D01*
X46803Y73076D02*
X46863Y73017D01*
X46803Y73076D02*
Y73267D01*
X46693Y73323D02*
X46803Y73267D01*
X46652Y73362D02*
X46693Y73323D01*
X46542Y73418D02*
X46652Y73362D01*
X46542Y73418D02*
Y73608D01*
X46482Y73668D02*
X46542Y73608D01*
X47625Y73076D02*
X47625Y73017D01*
X47625Y73076D02*
Y73267D01*
Y73418D01*
Y73608D01*
X47625Y73668D02*
X47625Y73608D01*
X47566Y73017D02*
X47625D01*
X47375D02*
X47566D01*
X47113D02*
X47375D01*
X46922D02*
X47113D01*
X46863D02*
X46922D01*
X49288Y72704D02*
X49479D01*
X49216Y72721D02*
X49288Y72704D01*
X49176Y72760D02*
X49216Y72721D01*
X49070Y72841D02*
X49176Y72760D01*
X48974Y72902D02*
X49070Y72841D01*
X48111Y72902D02*
X48974D01*
X47954Y72957D02*
X48111Y72902D01*
X47875Y72957D02*
X47954D01*
X47685D02*
X47875D01*
X47625Y73017D02*
X47685Y72957D01*
X48971Y75752D02*
X49030Y75692D01*
X48971Y75752D02*
Y75942D01*
Y76021D01*
X52138Y76623D02*
X52197Y76581D01*
X51947Y76623D02*
X52138D01*
X51418D02*
X51947D01*
X51471Y74255D02*
X51583Y74535D01*
X51471Y74248D02*
Y74255D01*
X51360Y73989D02*
X51471Y74248D01*
X58182Y67935D02*
X58467Y67725D01*
X57992Y67935D02*
X58182D01*
X57913D02*
X57992D01*
X57801Y68046D02*
X57913Y67935D01*
X57717Y68147D02*
X57801Y68046D01*
X57606Y68258D02*
X57717Y68147D01*
X57527Y68258D02*
X57606D01*
X57336D02*
X57527D01*
X57277Y68318D02*
X57336Y68258D01*
X60824Y67708D02*
X60833Y67691D01*
X60633Y67708D02*
X60824D01*
X60292D02*
X60633D01*
X60102D02*
X60292D01*
X59817Y67725D02*
X60102Y67708D01*
X59817Y67935D02*
X59817Y67725D01*
X59817Y67935D02*
Y68125D01*
Y68592D01*
Y68783D01*
Y68842D01*
X71000Y36708D02*
X71000Y36867D01*
X71000Y36517D02*
Y36708D01*
Y36056D02*
Y36517D01*
Y35866D02*
Y36056D01*
Y35806D02*
Y35866D01*
X81225Y47984D02*
Y51584D01*
X61722Y28202D02*
X62611D01*
X81225Y47984D02*
X81560Y47474D01*
Y47205D02*
Y47474D01*
Y47205D02*
X82021Y46362D01*
X82322Y44387D01*
Y39613D02*
Y44387D01*
X82021Y37638D02*
X82322Y39613D01*
X79604Y31679D02*
X82021Y37638D01*
X79594Y31657D02*
X79604Y31679D01*
X78740Y29954D02*
X79594Y31657D01*
X77996Y29210D02*
X78740Y29954D01*
X76944Y29210D02*
X77996D01*
X62611Y28202D02*
X62695Y28261D01*
X60758Y27246D02*
X61468Y27158D01*
X60568Y27246D02*
X60758D01*
X60059D02*
X60568D01*
X59868D02*
X60059D01*
X59809Y27305D02*
X59868Y27246D01*
X56456Y78732D02*
X56515D01*
X56265D02*
X56456D01*
X55814D02*
X56265D01*
X55624D02*
X55814D01*
X55514D02*
X55624D01*
X54104Y78291D02*
X54214Y78232D01*
X53914Y78291D02*
X54104D01*
X53835D02*
X53914D01*
X48779Y79105D02*
X53835Y78291D01*
X48056Y79105D02*
X48779D01*
X46114Y78316D02*
X48056Y79105D01*
X45779Y77982D02*
X46114Y78316D01*
X45660Y77824D02*
X45779Y77982D01*
X45660Y77745D02*
Y77824D01*
Y77554D02*
Y77745D01*
X45601Y77470D02*
X45660Y77554D01*
X73728Y22225D02*
X74003D01*
X73714Y22212D02*
X73728Y22225D01*
X73649Y22206D02*
X73714Y22212D01*
X73343Y21902D02*
X73649Y22206D01*
X73201Y21785D02*
X73343Y21902D01*
X72222Y21785D02*
X73201D01*
X71913D02*
X72222D01*
X71221Y22477D02*
X71913Y21785D01*
X70919Y23741D02*
X71221Y22477D01*
X70919Y23741D02*
Y24693D01*
X69636Y26177D02*
X70919Y24693D01*
X72096Y26240D02*
X72506Y26350D01*
X71906Y26240D02*
X72096D01*
X71446Y26000D02*
X71906Y26240D01*
X71430Y25984D02*
X71446Y26000D01*
X71397Y25966D02*
X71430Y25984D01*
X68147Y44192D02*
X68207Y44196D01*
X67957Y44192D02*
X68147D01*
X67687D02*
X67957D01*
X67497D02*
X67687D01*
X67437Y44188D02*
X67497Y44192D01*
X67378D02*
X67437Y44188D01*
X67187Y44192D02*
X67378D01*
X66925D02*
X67187D01*
X66734D02*
X66925D01*
X66675Y44196D02*
X66734Y44192D01*
X68207Y47244D02*
Y48006D01*
X42986Y11243D02*
X43255D01*
X42926Y11184D02*
X42986Y11243D01*
X41910Y11184D02*
X42926D01*
X40894Y13073D02*
X40954Y13132D01*
X75243Y46676D02*
X75303Y46736D01*
X75243Y46407D02*
Y46676D01*
X75076Y45540D02*
X75243Y46407D01*
X75076Y45271D02*
Y45540D01*
X74991Y44861D02*
X75076Y45271D01*
X68207Y48006D02*
X68246Y48065D01*
X74965Y49597D02*
X76054Y48761D01*
X76565Y48250D01*
Y47528D02*
Y48250D01*
X76054Y47017D02*
X76565Y47528D01*
X75632Y46795D02*
X76054Y47017D01*
X75363Y46795D02*
X75632D01*
X75303Y46736D02*
X75363Y46795D01*
X39946Y13132D02*
X40005Y13073D01*
X39676Y13132D02*
X39946D01*
X39168Y13634D02*
X39676Y13132D01*
X38966Y13634D02*
X39168D01*
X40005Y13073D02*
X40894D01*
X73007Y45271D02*
X73091Y44861D01*
X73007Y45271D02*
Y45461D01*
Y45540D01*
X72712Y46407D02*
X73007Y45540D01*
X72712Y46407D02*
Y46486D01*
Y46676D01*
X72652Y46736D02*
X72712Y46676D01*
X72592Y46795D02*
X72652Y46736D01*
X72402Y46795D02*
X72592D01*
X72323D02*
X72402D01*
X72212Y46907D02*
X72323Y46795D01*
X72092Y47291D02*
X72212Y46907D01*
X71972Y50269D02*
X72092Y47291D01*
X71850Y50409D02*
X71972Y50269D01*
X71587Y50673D02*
X71850Y50409D01*
X70786Y50673D02*
X71587D01*
X70414D02*
X70786D01*
X70150Y50409D02*
X70414Y50673D01*
X70029Y50269D02*
X70150Y50409D01*
X70029Y47710D02*
X70029Y50269D01*
X69909Y47569D02*
X70029Y47710D01*
X69644Y47304D02*
X69909Y47569D01*
X69457Y47304D02*
X69644D01*
X69267D02*
X69457D01*
X69207Y47244D02*
X69267Y47304D01*
X69163Y43374D02*
X69223Y43434D01*
X69163Y43184D02*
Y43374D01*
Y41702D02*
Y43184D01*
Y41512D02*
Y41702D01*
X68950Y41402D02*
X69163Y41512D01*
X69215Y43493D02*
X69223Y43434D01*
X69215Y43493D02*
Y43684D01*
Y43946D01*
Y44137D01*
X69207Y44196D02*
X69215Y44137D01*
Y46542D02*
X69223Y46482D01*
X69215Y46542D02*
Y46732D01*
Y46994D01*
Y47185D01*
X69207Y47244D02*
X69215Y47185D01*
Y44899D02*
X69223Y44958D01*
X69215Y44708D02*
Y44899D01*
Y44446D02*
Y44708D01*
Y44256D02*
Y44446D01*
X69207Y44196D02*
X69215Y44256D01*
Y45018D02*
X69223Y44958D01*
X69215Y45018D02*
Y45208D01*
Y45470D01*
Y45661D01*
X69207Y45720D02*
X69215Y45661D01*
Y46423D02*
X69223Y46482D01*
X69215Y46232D02*
Y46423D01*
Y45970D02*
Y46232D01*
Y45780D02*
Y45970D01*
X69207Y45720D02*
X69215Y45780D01*
X62695Y29142D02*
X62965D01*
X62611Y29202D02*
X62695Y29142D01*
X69918Y30809D02*
X69977Y30869D01*
X69648Y30809D02*
X69918D01*
X71179Y29676D02*
X71239Y29591D01*
X71179Y29676D02*
Y29945D01*
X71072Y30357D02*
X71179Y29945D01*
X71072Y30357D02*
Y30395D01*
X70927Y30541D02*
X71072Y30395D01*
X70926Y30619D02*
X70927Y30541D01*
X70926Y30619D02*
Y30809D01*
X70866Y30869D02*
X70926Y30809D01*
X71239Y28575D02*
X71299Y28490D01*
X71239Y28575D02*
Y29591D01*
X78264Y26652D02*
X78826Y27355D01*
X78841Y27392D01*
X82784Y37334D01*
X83084Y39309D01*
X77577Y61646D02*
X77614Y61631D01*
X75481Y61646D02*
X77577D01*
X75444Y61631D02*
X75481Y61646D01*
X74673Y60860D02*
X75444Y61631D01*
X66667Y49518D02*
X74673Y60860D01*
X66612Y49385D02*
X66667Y49518D01*
X66612Y48184D02*
Y49385D01*
Y48184D02*
X66675Y47732D01*
Y47059D02*
Y47732D01*
X66655Y47008D02*
X66675Y47059D01*
X66616Y46905D02*
X66655Y47008D01*
X66616Y46241D02*
Y46905D01*
Y46241D02*
X66950Y45907D01*
X67108Y45787D01*
X67378D01*
X67437Y45728D01*
X69977Y30869D02*
X70866D01*
X67497Y45724D02*
X68147D01*
X67437Y45728D02*
X67497Y45724D01*
X72592Y23326D02*
X72652Y23241D01*
X72592Y23326D02*
Y24340D01*
X72506Y24450D02*
X72592Y24340D01*
X78264Y26652D02*
X78740Y25926D01*
Y24874D02*
Y25926D01*
X77996Y24130D02*
X78740Y24874D01*
X76944Y24130D02*
X77996D01*
X73185Y24340D02*
X76944Y24130D01*
X72915Y24340D02*
X73185D01*
X72506Y24450D02*
X72915Y24340D01*
X62607Y29261D02*
X62611Y29202D01*
X62607Y29261D02*
Y29913D01*
X62603Y29972D02*
X62607Y29913D01*
X63448Y26087D02*
X63535Y26002D01*
X63179Y26087D02*
X63448D01*
X63119Y26146D02*
X63179Y26087D01*
X73791Y33040D02*
X73876Y33020D01*
X73791Y33040D02*
Y33230D01*
Y33309D01*
X72488Y37434D02*
X73791Y33309D01*
X71587Y37667D02*
X72488Y37434D01*
X70786Y37667D02*
X71587D01*
X70414D02*
X70786D01*
X65926Y33867D02*
X70414Y37667D01*
X65591Y33532D02*
X65926Y33867D01*
X65473Y33374D02*
X65591Y33532D01*
X65473Y33295D02*
Y33374D01*
Y33104D02*
Y33295D01*
X65413Y33020D02*
X65473Y33104D01*
X74755Y51088D02*
X74864Y50778D01*
X74755Y51088D02*
Y51278D01*
Y51357D01*
X74724Y51489D02*
X74755Y51357D01*
X74474Y51741D02*
X74724Y51489D01*
X74474Y51741D02*
Y51820D01*
Y52010D01*
X74414Y52070D02*
X74474Y52010D01*
X75243Y40827D02*
X75303Y40767D01*
X75243Y40827D02*
Y41017D01*
Y41096D01*
X75131Y41300D02*
X75243Y41096D01*
X75076Y41582D02*
X75131Y41300D01*
X75076Y41582D02*
Y41661D01*
Y41852D01*
X74991Y42261D02*
X75076Y41852D01*
X75792Y26348D02*
X76246Y26337D01*
X75713Y26348D02*
X75792D01*
X75522D02*
X75713D01*
X75438Y26408D02*
X75522Y26348D01*
X71823Y41970D02*
X71882Y41910D01*
X71632Y41970D02*
X71823D01*
X71574Y42019D02*
X71632Y41970D01*
X71491Y42102D02*
X71574Y42019D01*
X71491Y42102D02*
Y42110D01*
X71408Y42193D02*
X71491Y42110D01*
X71350Y42243D02*
X71408Y42193D01*
X71160Y42243D02*
X71350D01*
X70750Y42352D02*
X71160Y42243D01*
X71823Y41970D02*
X71882Y41910D01*
X71418Y43181D02*
X71687Y42886D01*
X71887Y42684D01*
Y42239D02*
Y42684D01*
X71823Y42160D02*
X71887Y42239D01*
X71823Y41970D02*
Y42160D01*
Y41970D02*
X71882Y41910D01*
X76098Y45562D02*
X77271Y47155D01*
X77327Y47288D01*
Y50540D01*
Y50730D01*
X77216Y51065D02*
X77327Y50730D01*
X75243Y40708D02*
X75303Y40767D01*
X75243Y40517D02*
Y40708D01*
Y40438D02*
Y40517D01*
X75124Y40280D02*
X75243Y40438D01*
X72488Y37434D02*
X75124Y40280D01*
X75164Y50719D02*
X76541D01*
X74974D02*
X75164D01*
X74864Y50778D02*
X74974Y50719D01*
X74907Y42671D02*
X74991Y42261D01*
X74907Y42671D02*
Y42861D01*
Y42940D01*
X74752Y43390D02*
X74907Y42940D01*
X70307Y28225D02*
X70414Y28118D01*
X70299Y28300D02*
X70307Y28225D01*
X70239Y28575D02*
X70299Y28490D01*
X70394Y29826D02*
Y29906D01*
X70338Y29771D02*
X70394Y29826D01*
X76872Y53674D02*
X77216Y53340D01*
X76872Y53674D02*
Y53865D01*
Y56875D01*
Y57065D01*
X76529Y57675D02*
X76872Y57065D01*
X73007Y42671D02*
X73091Y42261D01*
X72816Y42671D02*
X73007D01*
X72737D02*
X72816D01*
X72626Y42782D02*
X72737Y42671D01*
X72445Y43105D02*
X72626Y42782D01*
X72379Y43173D02*
X72445Y43105D01*
X75164Y47889D02*
X75693D01*
X74974D02*
X75164D01*
X74864Y48028D02*
X74974Y47889D01*
X71000Y47760D02*
X71085Y47763D01*
X70993Y47701D02*
X71000Y47760D01*
X70993Y47510D02*
Y47701D01*
Y46990D02*
Y47510D01*
X76656Y43501D02*
X77156Y43954D01*
X76577Y43501D02*
X76656D01*
X76387D02*
X76577D01*
X76327Y43442D02*
X76387Y43501D01*
X73007Y41852D02*
X73091Y42261D01*
X73007Y41661D02*
Y41852D01*
Y41582D02*
Y41661D01*
X72712Y41096D02*
X73007Y41582D01*
X72712Y41017D02*
Y41096D01*
Y40826D02*
Y41017D01*
X72652Y40767D02*
X72712Y40826D01*
X77641Y43310D02*
X78125Y43300D01*
X77641Y43310D02*
Y43500D01*
Y43579D01*
X77529Y43690D02*
X77641Y43579D01*
X77156Y43954D02*
X77529Y43690D01*
X71000Y49714D02*
X71000Y49873D01*
X71000Y49523D02*
Y49714D01*
Y49010D02*
Y49523D01*
Y48819D02*
Y49010D01*
Y48760D02*
Y48819D01*
X72854Y51088D02*
X72964Y50778D01*
X72664Y51088D02*
X72854D01*
X72585D02*
X72664D01*
X71930Y51313D02*
X72585Y51088D01*
X71400Y51313D02*
X71930D01*
X71210D02*
X71400D01*
X71000Y51473D02*
X71210Y51313D01*
X73057Y48528D02*
Y49057D01*
Y48338D02*
Y48528D01*
X72964Y48028D02*
X73057Y48338D01*
X76003Y41661D02*
X76124Y41254D01*
Y40754D02*
Y41254D01*
Y40280D02*
Y40754D01*
X75379Y38962D02*
X76124Y40280D01*
X75379Y38883D02*
Y38962D01*
Y38693D02*
Y38883D01*
X75319Y38608D02*
X75379Y38693D01*
X67445Y33850D02*
Y33909D01*
Y33659D02*
Y33850D01*
Y33295D02*
Y33659D01*
Y33104D02*
Y33295D01*
Y33020D02*
Y33104D01*
X67385Y33020D02*
X67445D01*
X67195D02*
X67385D01*
X66663D02*
X67195D01*
X66473D02*
X66663D01*
X66413D02*
X66473D01*
X76860Y33630D02*
X77470Y33020D01*
X76670Y33630D02*
X76860D01*
X76591D02*
X76670D01*
X75767Y34111D02*
X76591Y33630D01*
X75688Y34111D02*
X75767D01*
X75497D02*
X75688D01*
X75438Y34171D02*
X75497Y34111D01*
X75457Y33040D02*
X75476Y33020D01*
X75457Y33040D02*
Y33230D01*
Y33921D01*
Y34111D01*
X75438Y34171D02*
X75457Y34111D01*
X75713Y25400D02*
X77470D01*
X75522D02*
X75713D01*
X75438Y25408D02*
X75522Y25400D01*
X75354Y25404D02*
X75438Y25408D01*
X75163Y25404D02*
X75354D01*
X74906D02*
X75163D01*
X74715D02*
X74906D01*
X74306Y25400D02*
X74715Y25404D01*
X75751Y27940D02*
X77470D01*
X75476D02*
X75751D01*
X75957Y22244D02*
X77470Y22860D01*
X75878Y22225D02*
X75957Y22244D01*
X75603Y22225D02*
X75878D01*
X57158Y74965D02*
X57326Y75134D01*
X57158Y74965D02*
X57396Y74948D01*
X51464Y76523D02*
X51682Y76623D01*
X51464Y76723D02*
X51682Y76623D01*
X74941Y49490D02*
X75175Y49436D01*
X75062Y49648D02*
X75175Y49436D01*
X75982Y26344D02*
X76202Y26438D01*
X75982Y26344D02*
X76197Y26238D01*
X71375Y43079D02*
X71596Y42986D01*
X71522Y43214D02*
X71596Y42986D01*
X74672Y43314D02*
X74838Y43140D01*
X74861Y43379D01*
X75429Y47889D02*
X75647Y47989D01*
X75429Y47889D02*
X75647Y47789D01*
X70993Y47254D02*
X71093Y47036D01*
X70893D02*
X70993Y47254D01*
X76960Y43777D02*
X77054Y43997D01*
X76960Y43777D02*
X77189Y43849D01*
X77135Y43846D02*
X77371Y43802D01*
X77251Y44009D02*
X77371Y43802D01*
X72957Y49011D02*
X73057Y48793D01*
X73157Y49011D01*
X75920Y41588D02*
X76078Y41408D01*
X76112Y41646D01*
X76213Y25400D02*
X77174Y25933D01*
X76213Y25400D02*
X77174Y24867D01*
X76213Y27940D02*
X77174Y28473D01*
X76213Y27940D02*
X77174Y27407D01*
X76306Y22386D02*
X76995Y23242D01*
X76306Y22386D02*
X77397Y22255D01*
D16*
X46557Y10541D02*
X46896Y10880D01*
X46938Y10959D02*
Y11806D01*
X46482Y10541D02*
X46557D01*
X46896Y10917D02*
X46938Y10959D01*
X46896Y10880D02*
Y10917D01*
X46968Y11925D02*
X47117Y12073D01*
X46968Y11836D02*
Y11925D01*
X46938Y11806D02*
X46968Y11836D01*
X46482Y10541D02*
X46482D01*
X36390Y11047D02*
Y11068D01*
X65862Y47441D02*
X65863Y47396D01*
X65858Y47660D02*
X65862Y47441D01*
X65850Y48032D02*
X65858Y47660D01*
X57537Y73770D02*
X57851Y74332D01*
X57880Y74356D01*
X58770Y75095D01*
X65556Y31608D02*
X65794Y31370D01*
X65398Y31676D02*
X65556Y31608D01*
X65205Y31681D02*
X65398Y31676D01*
X65001Y31820D02*
X65205Y31681D01*
X44627Y10446D02*
X44739Y10334D01*
X44228Y10845D02*
X44627Y10446D01*
X45461Y10334D02*
X46482Y10541D01*
X44739Y10334D02*
X45461D01*
X65858Y47660D02*
X65962Y47444D01*
X65762Y47439D02*
X65858Y47660D01*
X65850Y48032D02*
Y49537D01*
X65794Y30852D02*
Y31370D01*
Y30852D02*
X65798Y30848D01*
X57518Y73759D02*
X57537Y73770D01*
X58770Y75095D02*
X59397D01*
X59449D01*
X63472Y75076D01*
X67894Y71694D01*
X68655Y70933D01*
X68664Y70911D01*
X69453Y66580D01*
X69501Y61906D01*
Y60169D02*
Y61906D01*
X69468Y60035D02*
X69501Y60169D01*
X65850Y49537D02*
X69468Y60035D01*
X43787Y11392D02*
X44062D01*
X43708Y11383D02*
X43787Y11392D01*
X43255Y11243D02*
X43708Y11383D01*
X44146Y11113D02*
X44228Y10845D01*
X44146Y11113D02*
Y11382D01*
X44062Y11392D02*
X44146Y11382D01*
D17*
X46047Y75366D02*
Y75419D01*
Y75366D02*
X46239Y75170D01*
X46047Y76219D02*
X46259Y76431D01*
X46594D01*
X46609Y76446D01*
Y76581D01*
X58314Y73574D02*
X58385Y73681D01*
X59043Y74300D02*
X59077Y74334D01*
X59084Y74338D01*
X58946Y74218D02*
X59043Y74300D01*
X59084Y74338D02*
X59136D01*
X58742Y74038D02*
X58767Y74063D01*
X58385Y73681D02*
X58742Y74038D01*
X59136Y74338D02*
X63111Y74204D01*
X58243Y73479D02*
X58314Y73574D01*
X58767Y74063D02*
X58946Y74218D01*
X47117Y12073D02*
X47196Y12153D01*
X47675Y12631D01*
X59218Y22819D02*
X59316Y22765D01*
X59959Y22707D02*
X60943Y23339D01*
X59063Y22838D02*
X59218Y22819D01*
X59462Y22707D02*
X59959D01*
X59316Y22765D02*
X59462Y22707D01*
X60943Y23339D02*
X63448D01*
X51543Y73500D02*
X52075Y72937D01*
X51360Y73800D02*
X51360Y73718D01*
X51360Y73800D02*
Y73910D01*
X51943Y73666D02*
Y73956D01*
X52275Y72820D02*
X52432D01*
X51943Y73666D02*
X52326Y73283D01*
X51360Y73718D02*
X51543Y73500D01*
X52075Y72937D02*
X52193Y72820D01*
X52350Y73269D02*
X52368Y73259D01*
X52326Y73283D02*
X52350Y73269D01*
X52193Y72820D02*
X52275Y72820D01*
X50756Y73279D02*
X50957Y73111D01*
X49755Y73279D02*
X50756D01*
X50360Y73910D02*
Y73989D01*
X52482Y72770D02*
X52707D01*
X52432Y72820D02*
X52482Y72770D01*
X51317Y72754D02*
X51317D01*
X71989Y29240D02*
X72009D01*
X72136Y29367D01*
X71966Y29198D02*
X72136Y29367D01*
X71966Y29198D02*
X72927Y28823D01*
X73701Y28050D01*
X73766D02*
X73876Y27940D01*
X73701Y28050D02*
X73766D01*
X73876Y27940D02*
X73914D01*
X70891Y27767D02*
X72665Y27150D01*
X70414Y28118D02*
X70891Y27767D01*
X68298Y30509D02*
Y30848D01*
X68198Y30374D02*
X68223Y30399D01*
X68152Y30276D02*
X68198Y30322D01*
X68152Y30092D02*
Y30276D01*
X68198Y30322D02*
Y30374D01*
X68223Y30399D02*
Y30434D01*
X68298Y30509D01*
X69878Y27682D02*
X69906Y27654D01*
Y27650D02*
Y27654D01*
X62695Y28261D02*
X62857D01*
X66223Y25634D02*
X66298Y25709D01*
X66223Y25547D02*
Y25634D01*
X66298Y25709D02*
Y26048D01*
X65556Y25298D02*
X65974D01*
X66223Y25547D01*
X63737Y23478D02*
X65556Y25298D01*
X63448Y23339D02*
X63737Y23478D01*
X46971Y14129D02*
X47675Y13425D01*
X43997Y14129D02*
X46971D01*
X42926Y13081D02*
X42949D01*
X43645Y13778D01*
Y13778D01*
X43997Y14129D01*
X47675Y12631D02*
Y13425D01*
X38744Y11090D02*
X39236Y11045D01*
X44054Y13192D02*
X44228Y13538D01*
X44237D02*
X44245Y13529D01*
X44228Y13538D02*
X44237D01*
X45647Y74918D02*
Y75419D01*
X46938Y75173D02*
X47396Y74969D01*
X46669Y75442D02*
X46938Y75173D01*
X46047Y75819D02*
X46313D01*
X51020Y73049D02*
X51058Y73026D01*
X50957Y73111D02*
X51020Y73049D01*
X67798Y25516D02*
Y26048D01*
Y25516D02*
X68091Y25223D01*
X70145Y24372D01*
X45547Y75819D02*
X45647D01*
X45200D02*
X45547D01*
X49479Y72704D02*
X49538Y72644D01*
X45647Y76319D02*
Y77195D01*
Y76219D02*
Y76319D01*
X58023Y73259D02*
X58243Y73479D01*
X57518Y73259D02*
X58023D01*
X69773Y27905D02*
X69878Y27682D01*
X69480Y28198D02*
X69773Y27905D01*
X68948Y28198D02*
X69480D01*
X44054Y13002D02*
X44062Y12992D01*
X44054Y13002D02*
Y13192D01*
X70299Y28300D02*
Y28490D01*
X70231Y29718D02*
X70338Y29771D01*
X46087Y11392D02*
X46362D01*
X46008Y11383D02*
X46087Y11392D01*
X45100Y11206D02*
X46008Y11383D01*
X62847Y74213D02*
X63069Y74306D01*
X62847Y74213D02*
X63062Y74106D01*
X69773Y27905D02*
X69938Y27844D01*
X69715Y27739D02*
X69773Y27905D01*
X45164Y11117D02*
X45359Y11257D01*
X45126Y11313D02*
X45359Y11257D01*
D18*
X50038Y5715D02*
X57763Y13440D01*
X42672Y5715D02*
X50038D01*
X41272Y7115D02*
X42672Y5715D01*
X42505Y5312D02*
X50205D01*
X40869Y6948D02*
X42505Y5312D01*
X50205D02*
X58166Y13273D01*
X37947Y10015D02*
X38372D01*
X38431Y9956D01*
X38431D02*
X38484Y9903D01*
X36694Y11740D02*
X36767Y11667D01*
X36969D01*
X37069Y11567D01*
X37465Y10766D02*
X37748Y10214D01*
X37405Y11230D02*
X37465Y11171D01*
X37748Y10214D02*
X37771Y10191D01*
X37465Y10766D02*
Y11171D01*
X37771Y10191D02*
X37947Y10015D01*
X37069Y11567D02*
X37405Y11230D01*
X62537Y73099D02*
X64389Y71247D01*
X58154Y72759D02*
X58494Y73099D01*
X62537D01*
X64389Y69470D02*
Y71247D01*
X35789Y10566D02*
Y11811D01*
X36855Y9500D02*
X40004D01*
X35789Y10566D02*
X36855Y9500D01*
X58166Y13273D02*
Y27813D01*
X57763Y13440D02*
Y28045D01*
X40171Y9903D02*
X41272Y8802D01*
X38484Y9903D02*
X40171D01*
X41272Y7115D02*
Y8802D01*
X40004Y9500D02*
X40869Y8634D01*
Y6948D02*
Y8634D01*
X41021Y10160D02*
Y10397D01*
X41000Y10418D02*
X41021Y10397D01*
X38240Y10418D02*
X41000D01*
X48327Y73824D02*
Y73926D01*
X47836Y74283D02*
X47875Y74247D01*
X47773Y74346D02*
Y74520D01*
X47625Y74668D02*
X47714Y74579D01*
X47773Y74520D01*
Y74346D02*
X47836Y74283D01*
X47875Y74247D02*
X47912Y74211D01*
X48327Y73926D01*
X57518Y72759D02*
X58154D01*
X65151Y67437D02*
Y68707D01*
X64389Y69470D02*
X64643Y69216D01*
Y69215D02*
Y69216D01*
Y69215D02*
X65151Y68707D01*
X63008Y49546D02*
Y49954D01*
X63119Y32292D02*
Y32580D01*
X63008Y49954D02*
X63119Y55499D01*
X63179Y55559D02*
X66675Y59055D01*
X63119Y55499D02*
X63179Y55559D01*
X63008Y49546D02*
X63119Y32580D01*
Y32292D02*
X63246D01*
X62010D02*
X63119D01*
X65814Y32261D02*
X66789Y31285D01*
Y30857D02*
Y31285D01*
X65755Y32269D02*
X65814Y32261D01*
X65250Y32422D02*
X65755Y32269D01*
X66789Y30857D02*
X66798Y30848D01*
X62580Y26556D02*
X62604Y26585D01*
X63572Y27114D02*
X63608Y27119D01*
X62604Y26585D02*
X63572Y27114D01*
X62141Y26031D02*
X62580Y26556D01*
X63608Y27119D02*
X64148Y27198D01*
X62141Y25055D02*
Y26031D01*
X66411Y24871D02*
X66647Y25107D01*
X66743Y25377D01*
X66182Y24792D02*
X66411Y24871D01*
X66743Y25377D02*
X66798Y25516D01*
X65532Y24166D02*
X66182Y24792D01*
X57763Y28045D02*
X62010Y32292D01*
X58166Y27813D02*
X61722Y31369D01*
X64603D01*
X64752Y32422D02*
X65250D01*
X63246Y32292D02*
X63533Y32292D01*
X64752Y32422D01*
X35789Y11811D02*
X36294Y12317D01*
X64603Y31369D02*
X64770Y31202D01*
X66675Y59055D02*
Y65913D01*
X65151Y67437D02*
X66675Y65913D01*
X36621Y12317D02*
X36694Y12390D01*
X36294Y12317D02*
X36621D01*
X64770Y31115D02*
Y31202D01*
X38151Y10507D02*
X38240Y10418D01*
X61468Y24892D02*
X61979D01*
X59809Y24765D02*
X61214D01*
X61214Y24765D01*
X61979Y24892D02*
X62141Y25055D01*
X66798Y25516D02*
Y26048D01*
X49479Y70972D02*
X49538Y71120D01*
X48327Y73824D02*
X48387Y73676D01*
X57910Y72282D02*
X58189Y72321D01*
X57766Y72282D02*
X57910D01*
X57518Y72259D02*
X57766Y72282D01*
D19*
X76529Y60275D02*
D03*
D20*
Y57675D02*
D03*
D21*
X74676Y30480D02*
D03*
X77470Y22860D02*
D03*
Y25400D02*
D03*
Y27940D02*
D03*
Y30480D02*
D03*
D22*
Y33020D02*
D03*
D23*
X44704Y6350D02*
D03*
X36957Y10287D02*
D03*
X67568Y22862D02*
D03*
X81030Y30482D02*
D03*
X77982Y36959D02*
D03*
X79379Y39753D02*
D03*
Y42039D02*
D03*
X79252Y43944D02*
D03*
X79506Y46611D02*
D03*
X66298Y72011D02*
D03*
X63377Y69725D02*
D03*
X54614Y79123D02*
D03*
X54106Y77472D02*
D03*
X56011D02*
D03*
X49534Y69471D02*
D03*
X47883Y70233D02*
D03*
X47121Y71122D02*
D03*
X59055Y72498D02*
D03*
X63246Y71501D02*
D03*
X52709Y77599D02*
D03*
X70235Y45722D02*
D03*
Y44198D02*
D03*
X76839Y42547D02*
D03*
X76966Y39753D02*
D03*
X72013Y36451D02*
D03*
X69981Y36197D02*
D03*
X73410Y37213D02*
D03*
X74531Y28997D02*
D03*
X73791Y26291D02*
D03*
X73029Y25402D02*
D03*
X69727Y23497D02*
D03*
X60329Y28704D02*
D03*
X63123Y24259D02*
D03*
X69092Y31625D02*
D03*
X55630Y26799D02*
D03*
X47498Y10668D02*
D03*
X46482Y10541D02*
D03*
X47248Y14734D02*
D03*
X46359Y13464D02*
D03*
X41406Y12321D02*
D03*
X36390Y11047D02*
D03*
X36199Y14353D02*
D03*
X37723Y12956D02*
D03*
X82000Y33000D02*
D03*
X81500Y32000D02*
D03*
X81000Y29000D02*
D03*
X80000Y53000D02*
D03*
Y37000D02*
D03*
X80500Y36000D02*
D03*
X80000Y35000D02*
D03*
X80500Y28000D02*
D03*
X80000Y27000D02*
D03*
X79500Y54000D02*
D03*
X79000Y53000D02*
D03*
X79500Y50000D02*
D03*
Y36000D02*
D03*
Y34000D02*
D03*
Y26000D02*
D03*
X78500Y50000D02*
D03*
X78000Y47000D02*
D03*
Y35000D02*
D03*
X77000Y63000D02*
D03*
Y37000D02*
D03*
X77500Y36000D02*
D03*
X77000Y35000D02*
D03*
Y21000D02*
D03*
X76000Y65000D02*
D03*
X76500Y64000D02*
D03*
X76000Y63000D02*
D03*
Y53000D02*
D03*
Y37000D02*
D03*
X76500Y36000D02*
D03*
X76000Y21000D02*
D03*
X76500Y20000D02*
D03*
X76000Y19000D02*
D03*
X75000Y65000D02*
D03*
X75500Y64000D02*
D03*
X75000Y63000D02*
D03*
Y53000D02*
D03*
X75500Y52000D02*
D03*
X75000Y23000D02*
D03*
Y21000D02*
D03*
X75500Y20000D02*
D03*
X75000Y19000D02*
D03*
X74000Y67000D02*
D03*
X74500Y66000D02*
D03*
X74000Y65000D02*
D03*
X74500Y64000D02*
D03*
X74000Y63000D02*
D03*
X74500Y62000D02*
D03*
Y34000D02*
D03*
X74000Y21000D02*
D03*
X74500Y20000D02*
D03*
X74000Y19000D02*
D03*
X74500Y18000D02*
D03*
X74000Y17000D02*
D03*
X73000Y69000D02*
D03*
X73500Y68000D02*
D03*
X73000Y67000D02*
D03*
X73500Y66000D02*
D03*
X73000Y65000D02*
D03*
X73500Y64000D02*
D03*
X73000Y63000D02*
D03*
X73500Y62000D02*
D03*
X73000Y61000D02*
D03*
Y53000D02*
D03*
Y21000D02*
D03*
X73500Y20000D02*
D03*
X73000Y19000D02*
D03*
X73500Y16000D02*
D03*
X73000Y15000D02*
D03*
X72000Y69000D02*
D03*
X72500Y68000D02*
D03*
X72000Y67000D02*
D03*
X72500Y66000D02*
D03*
X72000Y65000D02*
D03*
X72500Y64000D02*
D03*
X72000Y63000D02*
D03*
X72500Y62000D02*
D03*
X72000Y61000D02*
D03*
Y59000D02*
D03*
Y55000D02*
D03*
X72500Y54000D02*
D03*
X72000Y53000D02*
D03*
X72500Y52000D02*
D03*
X72000Y39000D02*
D03*
Y35000D02*
D03*
X72500Y34000D02*
D03*
X72000Y21000D02*
D03*
X72500Y20000D02*
D03*
X72000Y19000D02*
D03*
Y17000D02*
D03*
X72500Y16000D02*
D03*
X72000Y15000D02*
D03*
X71000Y71000D02*
D03*
X71500Y70000D02*
D03*
X71000Y69000D02*
D03*
X71500Y68000D02*
D03*
X71000Y67000D02*
D03*
X71500Y66000D02*
D03*
X71000Y65000D02*
D03*
X71500Y64000D02*
D03*
X71000Y63000D02*
D03*
X71500Y62000D02*
D03*
X71000Y61000D02*
D03*
X71500Y60000D02*
D03*
X71000Y57000D02*
D03*
X71500Y54000D02*
D03*
X71000Y53000D02*
D03*
X71500Y20000D02*
D03*
X71000Y19000D02*
D03*
X71500Y18000D02*
D03*
X71000Y17000D02*
D03*
X71500Y16000D02*
D03*
X71000Y15000D02*
D03*
X71500Y14000D02*
D03*
X71000Y13000D02*
D03*
X70000Y71000D02*
D03*
X70500Y70000D02*
D03*
X70000Y69000D02*
D03*
X70500Y68000D02*
D03*
Y66000D02*
D03*
Y64000D02*
D03*
Y62000D02*
D03*
X70000Y59000D02*
D03*
X70500Y58000D02*
D03*
X70000Y57000D02*
D03*
Y39000D02*
D03*
Y35000D02*
D03*
X70500Y34000D02*
D03*
Y22000D02*
D03*
Y20000D02*
D03*
X70000Y19000D02*
D03*
X70500Y18000D02*
D03*
X70000Y17000D02*
D03*
X70500Y16000D02*
D03*
X70000Y15000D02*
D03*
X70500Y14000D02*
D03*
X70000Y13000D02*
D03*
X69000Y73000D02*
D03*
X69500Y72000D02*
D03*
Y70000D02*
D03*
Y58000D02*
D03*
Y56000D02*
D03*
X69000Y55000D02*
D03*
X69500Y52000D02*
D03*
X69000Y51000D02*
D03*
X69500Y40000D02*
D03*
X69000Y39000D02*
D03*
X69500Y38000D02*
D03*
X69000Y35000D02*
D03*
X69500Y34000D02*
D03*
Y18000D02*
D03*
X69000Y17000D02*
D03*
X69500Y16000D02*
D03*
X69000Y15000D02*
D03*
X69500Y14000D02*
D03*
X69000Y13000D02*
D03*
X69500Y12000D02*
D03*
X69000Y11000D02*
D03*
X68000Y73000D02*
D03*
X68500Y72000D02*
D03*
Y54000D02*
D03*
X68000Y53000D02*
D03*
X68500Y50000D02*
D03*
Y40000D02*
D03*
X68000Y39000D02*
D03*
X68500Y38000D02*
D03*
X68000Y37000D02*
D03*
X68500Y20000D02*
D03*
Y18000D02*
D03*
X68000Y17000D02*
D03*
X68500Y16000D02*
D03*
X68000Y15000D02*
D03*
X68500Y14000D02*
D03*
X68000Y13000D02*
D03*
X68500Y12000D02*
D03*
X68000Y11000D02*
D03*
X67500Y74000D02*
D03*
Y52000D02*
D03*
X67000Y45000D02*
D03*
X67500Y42000D02*
D03*
X67000Y41000D02*
D03*
X67500Y40000D02*
D03*
X67000Y39000D02*
D03*
X67500Y38000D02*
D03*
X67000Y37000D02*
D03*
X67500Y16000D02*
D03*
X67000Y15000D02*
D03*
X67500Y14000D02*
D03*
X67000Y13000D02*
D03*
X67500Y12000D02*
D03*
X67000Y11000D02*
D03*
X67500Y10000D02*
D03*
X66000Y75000D02*
D03*
X66500Y74000D02*
D03*
X66000Y65000D02*
D03*
Y61000D02*
D03*
X66500Y42000D02*
D03*
Y40000D02*
D03*
X66000Y39000D02*
D03*
X66500Y38000D02*
D03*
X66000Y37000D02*
D03*
X66500Y36000D02*
D03*
X66000Y35000D02*
D03*
X66500Y22000D02*
D03*
Y16000D02*
D03*
X66000Y15000D02*
D03*
X66500Y14000D02*
D03*
X66000Y13000D02*
D03*
X66500Y12000D02*
D03*
X66000Y11000D02*
D03*
X66500Y10000D02*
D03*
X66000Y9000D02*
D03*
X65000Y75000D02*
D03*
Y73000D02*
D03*
X65500Y66000D02*
D03*
X65000Y61000D02*
D03*
X65500Y60000D02*
D03*
X65000Y59000D02*
D03*
Y15000D02*
D03*
X65500Y14000D02*
D03*
X65000Y13000D02*
D03*
X65500Y12000D02*
D03*
X65000Y11000D02*
D03*
X65500Y10000D02*
D03*
X65000Y9000D02*
D03*
X64500Y76000D02*
D03*
Y68000D02*
D03*
X64000Y67000D02*
D03*
X64500Y60000D02*
D03*
X64000Y59000D02*
D03*
X64500Y58000D02*
D03*
X64000Y55000D02*
D03*
Y53000D02*
D03*
X64500Y36000D02*
D03*
Y14000D02*
D03*
X64000Y13000D02*
D03*
X64500Y12000D02*
D03*
X64000Y11000D02*
D03*
X64500Y10000D02*
D03*
X64000Y9000D02*
D03*
X64500Y8000D02*
D03*
X63000Y77000D02*
D03*
X63500Y76000D02*
D03*
Y60000D02*
D03*
X63000Y59000D02*
D03*
X63500Y58000D02*
D03*
X63000Y57000D02*
D03*
Y13000D02*
D03*
X63500Y12000D02*
D03*
X63000Y11000D02*
D03*
X63500Y10000D02*
D03*
X63000Y9000D02*
D03*
X63500Y8000D02*
D03*
X63000Y7000D02*
D03*
X62000Y77000D02*
D03*
X62500Y76000D02*
D03*
X62000Y61000D02*
D03*
X62500Y60000D02*
D03*
X62000Y59000D02*
D03*
X62500Y58000D02*
D03*
X62000Y57000D02*
D03*
X62500Y56000D02*
D03*
X62000Y55000D02*
D03*
Y53000D02*
D03*
Y51000D02*
D03*
Y49000D02*
D03*
Y47000D02*
D03*
Y45000D02*
D03*
Y39000D02*
D03*
Y37000D02*
D03*
Y35000D02*
D03*
Y33000D02*
D03*
Y17000D02*
D03*
X62500Y12000D02*
D03*
X62000Y11000D02*
D03*
X62500Y10000D02*
D03*
X62000Y9000D02*
D03*
X62500Y8000D02*
D03*
X62000Y7000D02*
D03*
X61500Y78000D02*
D03*
X61000Y77000D02*
D03*
X61500Y76000D02*
D03*
X61000Y61000D02*
D03*
X61500Y60000D02*
D03*
X61000Y59000D02*
D03*
X61500Y58000D02*
D03*
X61000Y57000D02*
D03*
X61500Y56000D02*
D03*
X61000Y55000D02*
D03*
X61500Y54000D02*
D03*
X61000Y53000D02*
D03*
X61500Y52000D02*
D03*
X61000Y51000D02*
D03*
X61500Y50000D02*
D03*
X61000Y49000D02*
D03*
X61500Y48000D02*
D03*
X61000Y47000D02*
D03*
X61500Y46000D02*
D03*
X61000Y45000D02*
D03*
X61500Y44000D02*
D03*
X61000Y43000D02*
D03*
X61500Y36000D02*
D03*
X61000Y35000D02*
D03*
X61500Y34000D02*
D03*
X61000Y33000D02*
D03*
X61500Y26000D02*
D03*
X61000Y19000D02*
D03*
X61500Y18000D02*
D03*
X61000Y17000D02*
D03*
X61500Y16000D02*
D03*
Y12000D02*
D03*
X61000Y11000D02*
D03*
X61500Y10000D02*
D03*
X61000Y9000D02*
D03*
X61500Y8000D02*
D03*
X61000Y7000D02*
D03*
X61500Y6000D02*
D03*
X60000Y79000D02*
D03*
X60500Y78000D02*
D03*
X60000Y77000D02*
D03*
X60500Y76000D02*
D03*
Y60000D02*
D03*
Y58000D02*
D03*
Y56000D02*
D03*
X60000Y55000D02*
D03*
X60500Y54000D02*
D03*
X60000Y53000D02*
D03*
X60500Y52000D02*
D03*
X60000Y51000D02*
D03*
X60500Y50000D02*
D03*
X60000Y49000D02*
D03*
X60500Y48000D02*
D03*
X60000Y47000D02*
D03*
X60500Y46000D02*
D03*
X60000Y45000D02*
D03*
X60500Y44000D02*
D03*
X60000Y43000D02*
D03*
X60500Y42000D02*
D03*
X60000Y41000D02*
D03*
Y39000D02*
D03*
X60500Y34000D02*
D03*
X60000Y33000D02*
D03*
X60500Y32000D02*
D03*
Y26000D02*
D03*
Y22000D02*
D03*
X60000Y21000D02*
D03*
X60500Y20000D02*
D03*
X60000Y19000D02*
D03*
X60500Y18000D02*
D03*
X60000Y17000D02*
D03*
X60500Y16000D02*
D03*
X60000Y15000D02*
D03*
X60500Y10000D02*
D03*
X60000Y9000D02*
D03*
X60500Y8000D02*
D03*
X60000Y7000D02*
D03*
X60500Y6000D02*
D03*
X60000Y5000D02*
D03*
X59000Y79000D02*
D03*
X59500Y78000D02*
D03*
X59000Y77000D02*
D03*
X59500Y76000D02*
D03*
X59000Y69000D02*
D03*
X59500Y52000D02*
D03*
Y50000D02*
D03*
Y48000D02*
D03*
X59000Y47000D02*
D03*
X59500Y46000D02*
D03*
X59000Y45000D02*
D03*
X59500Y44000D02*
D03*
X59000Y43000D02*
D03*
X59500Y42000D02*
D03*
X59000Y41000D02*
D03*
X59500Y40000D02*
D03*
X59000Y39000D02*
D03*
X59500Y38000D02*
D03*
X59000Y37000D02*
D03*
X59500Y26000D02*
D03*
Y22000D02*
D03*
X59000Y21000D02*
D03*
X59500Y20000D02*
D03*
X59000Y19000D02*
D03*
X59500Y18000D02*
D03*
X59000Y17000D02*
D03*
X59500Y16000D02*
D03*
X59000Y15000D02*
D03*
X59500Y14000D02*
D03*
Y10000D02*
D03*
X59000Y9000D02*
D03*
X59500Y8000D02*
D03*
X59000Y7000D02*
D03*
X59500Y6000D02*
D03*
X59000Y5000D02*
D03*
X58000Y79000D02*
D03*
X58500Y78000D02*
D03*
X58000Y77000D02*
D03*
X58500Y76000D02*
D03*
Y64000D02*
D03*
X58000Y63000D02*
D03*
Y61000D02*
D03*
X58500Y44000D02*
D03*
Y42000D02*
D03*
Y40000D02*
D03*
X58000Y39000D02*
D03*
X58500Y38000D02*
D03*
X58000Y37000D02*
D03*
X58500Y36000D02*
D03*
X58000Y35000D02*
D03*
Y9000D02*
D03*
X58500Y8000D02*
D03*
X58000Y7000D02*
D03*
X58500Y6000D02*
D03*
X58000Y5000D02*
D03*
X57500Y80000D02*
D03*
Y76000D02*
D03*
Y64000D02*
D03*
X57000Y63000D02*
D03*
X57500Y62000D02*
D03*
X57000Y61000D02*
D03*
X57500Y60000D02*
D03*
X57000Y59000D02*
D03*
X57500Y58000D02*
D03*
X57000Y57000D02*
D03*
X57500Y56000D02*
D03*
X57000Y55000D02*
D03*
Y53000D02*
D03*
X57500Y36000D02*
D03*
Y34000D02*
D03*
Y32000D02*
D03*
X57000Y31000D02*
D03*
Y21000D02*
D03*
Y19000D02*
D03*
Y17000D02*
D03*
Y15000D02*
D03*
X57500Y8000D02*
D03*
X57000Y7000D02*
D03*
X57500Y6000D02*
D03*
X57000Y5000D02*
D03*
X57500Y4000D02*
D03*
X56500Y80000D02*
D03*
X56000Y65000D02*
D03*
X56500Y64000D02*
D03*
X56000Y63000D02*
D03*
X56500Y62000D02*
D03*
X56000Y61000D02*
D03*
X56500Y60000D02*
D03*
X56000Y59000D02*
D03*
X56500Y58000D02*
D03*
X56000Y57000D02*
D03*
X56500Y56000D02*
D03*
X56000Y55000D02*
D03*
X56500Y54000D02*
D03*
X56000Y53000D02*
D03*
X56500Y52000D02*
D03*
X56000Y51000D02*
D03*
X56500Y50000D02*
D03*
X56000Y49000D02*
D03*
X56500Y48000D02*
D03*
X56000Y47000D02*
D03*
Y45000D02*
D03*
X56500Y22000D02*
D03*
Y20000D02*
D03*
X56000Y19000D02*
D03*
X56500Y18000D02*
D03*
X56000Y17000D02*
D03*
X56500Y16000D02*
D03*
X56000Y15000D02*
D03*
X56500Y14000D02*
D03*
X56000Y13000D02*
D03*
X56500Y8000D02*
D03*
X56000Y7000D02*
D03*
X56500Y6000D02*
D03*
X56000Y5000D02*
D03*
X56500Y4000D02*
D03*
X55000Y81000D02*
D03*
X55500Y80000D02*
D03*
X55000Y65000D02*
D03*
X55500Y64000D02*
D03*
X55000Y63000D02*
D03*
X55500Y62000D02*
D03*
X55000Y61000D02*
D03*
X55500Y60000D02*
D03*
X55000Y59000D02*
D03*
X55500Y58000D02*
D03*
X55000Y57000D02*
D03*
X55500Y56000D02*
D03*
X55000Y55000D02*
D03*
X55500Y54000D02*
D03*
X55000Y53000D02*
D03*
X55500Y52000D02*
D03*
X55000Y51000D02*
D03*
X55500Y50000D02*
D03*
X55000Y49000D02*
D03*
X55500Y48000D02*
D03*
X55000Y47000D02*
D03*
X55500Y46000D02*
D03*
X55000Y45000D02*
D03*
X55500Y44000D02*
D03*
X55000Y43000D02*
D03*
X55500Y42000D02*
D03*
X55000Y41000D02*
D03*
X55500Y40000D02*
D03*
X55000Y39000D02*
D03*
Y37000D02*
D03*
X55500Y18000D02*
D03*
X55000Y17000D02*
D03*
X55500Y16000D02*
D03*
X55000Y15000D02*
D03*
X55500Y14000D02*
D03*
X55000Y13000D02*
D03*
X55500Y6000D02*
D03*
X55000Y5000D02*
D03*
X55500Y4000D02*
D03*
X55000Y3000D02*
D03*
X54000Y81000D02*
D03*
X54500Y80000D02*
D03*
X54000Y65000D02*
D03*
X54500Y64000D02*
D03*
X54000Y63000D02*
D03*
X54500Y62000D02*
D03*
X54000Y61000D02*
D03*
X54500Y60000D02*
D03*
X54000Y59000D02*
D03*
X54500Y58000D02*
D03*
X54000Y57000D02*
D03*
X54500Y56000D02*
D03*
X54000Y55000D02*
D03*
X54500Y54000D02*
D03*
X54000Y53000D02*
D03*
X54500Y52000D02*
D03*
X54000Y51000D02*
D03*
X54500Y50000D02*
D03*
X54000Y49000D02*
D03*
X54500Y48000D02*
D03*
X54000Y47000D02*
D03*
X54500Y46000D02*
D03*
X54000Y45000D02*
D03*
X54500Y44000D02*
D03*
X54000Y43000D02*
D03*
X54500Y42000D02*
D03*
X54000Y41000D02*
D03*
X54500Y40000D02*
D03*
X54000Y39000D02*
D03*
X54500Y38000D02*
D03*
X54000Y37000D02*
D03*
X54500Y36000D02*
D03*
X54000Y35000D02*
D03*
X54500Y34000D02*
D03*
X54000Y33000D02*
D03*
X54500Y32000D02*
D03*
X54000Y31000D02*
D03*
Y29000D02*
D03*
Y27000D02*
D03*
Y25000D02*
D03*
X54500Y24000D02*
D03*
X54000Y23000D02*
D03*
X54500Y14000D02*
D03*
X54000Y13000D02*
D03*
X54500Y12000D02*
D03*
X54000Y11000D02*
D03*
X54500Y6000D02*
D03*
X54000Y5000D02*
D03*
X54500Y4000D02*
D03*
X54000Y3000D02*
D03*
X53000Y81000D02*
D03*
X53500Y80000D02*
D03*
Y66000D02*
D03*
X53000Y65000D02*
D03*
X53500Y64000D02*
D03*
X53000Y63000D02*
D03*
X53500Y62000D02*
D03*
X53000Y61000D02*
D03*
X53500Y60000D02*
D03*
X53000Y59000D02*
D03*
X53500Y58000D02*
D03*
X53000Y57000D02*
D03*
X53500Y56000D02*
D03*
X53000Y55000D02*
D03*
X53500Y54000D02*
D03*
X53000Y53000D02*
D03*
X53500Y52000D02*
D03*
X53000Y51000D02*
D03*
X53500Y50000D02*
D03*
X53000Y49000D02*
D03*
X53500Y48000D02*
D03*
X53000Y47000D02*
D03*
X53500Y46000D02*
D03*
X53000Y45000D02*
D03*
X53500Y44000D02*
D03*
X53000Y43000D02*
D03*
X53500Y42000D02*
D03*
X53000Y41000D02*
D03*
X53500Y40000D02*
D03*
X53000Y39000D02*
D03*
X53500Y38000D02*
D03*
X53000Y37000D02*
D03*
X53500Y36000D02*
D03*
X53000Y35000D02*
D03*
X53500Y34000D02*
D03*
X53000Y33000D02*
D03*
X53500Y32000D02*
D03*
X53000Y31000D02*
D03*
X53500Y30000D02*
D03*
X53000Y29000D02*
D03*
X53500Y28000D02*
D03*
X53000Y27000D02*
D03*
X53500Y26000D02*
D03*
X53000Y25000D02*
D03*
X53500Y24000D02*
D03*
X53000Y23000D02*
D03*
X53500Y22000D02*
D03*
X53000Y21000D02*
D03*
X53500Y20000D02*
D03*
X53000Y19000D02*
D03*
X53500Y12000D02*
D03*
X53000Y5000D02*
D03*
X53500Y4000D02*
D03*
X53000Y3000D02*
D03*
X52000Y81000D02*
D03*
X52500Y80000D02*
D03*
X52000Y67000D02*
D03*
X52500Y66000D02*
D03*
X52000Y65000D02*
D03*
X52500Y64000D02*
D03*
X52000Y63000D02*
D03*
X52500Y62000D02*
D03*
X52000Y61000D02*
D03*
X52500Y60000D02*
D03*
X52000Y59000D02*
D03*
X52500Y58000D02*
D03*
X52000Y57000D02*
D03*
X52500Y56000D02*
D03*
X52000Y55000D02*
D03*
X52500Y54000D02*
D03*
X52000Y53000D02*
D03*
X52500Y52000D02*
D03*
X52000Y51000D02*
D03*
X52500Y50000D02*
D03*
X52000Y49000D02*
D03*
X52500Y48000D02*
D03*
X52000Y47000D02*
D03*
X52500Y46000D02*
D03*
X52000Y45000D02*
D03*
X52500Y44000D02*
D03*
X52000Y43000D02*
D03*
X52500Y42000D02*
D03*
X52000Y41000D02*
D03*
X52500Y40000D02*
D03*
X52000Y39000D02*
D03*
X52500Y38000D02*
D03*
X52000Y37000D02*
D03*
X52500Y36000D02*
D03*
X52000Y35000D02*
D03*
X52500Y34000D02*
D03*
X52000Y33000D02*
D03*
X52500Y32000D02*
D03*
X52000Y31000D02*
D03*
X52500Y30000D02*
D03*
X52000Y29000D02*
D03*
X52500Y28000D02*
D03*
X52000Y27000D02*
D03*
X52500Y26000D02*
D03*
X52000Y25000D02*
D03*
X52500Y24000D02*
D03*
X52000Y23000D02*
D03*
X52500Y22000D02*
D03*
X52000Y21000D02*
D03*
X52500Y20000D02*
D03*
X52000Y19000D02*
D03*
X52500Y18000D02*
D03*
X52000Y17000D02*
D03*
Y15000D02*
D03*
X52500Y4000D02*
D03*
X52000Y3000D02*
D03*
X51500Y82000D02*
D03*
X51000Y81000D02*
D03*
X51500Y80000D02*
D03*
X51000Y67000D02*
D03*
X51500Y66000D02*
D03*
X51000Y65000D02*
D03*
X51500Y64000D02*
D03*
X51000Y63000D02*
D03*
X51500Y62000D02*
D03*
X51000Y61000D02*
D03*
X51500Y60000D02*
D03*
X51000Y59000D02*
D03*
X51500Y58000D02*
D03*
X51000Y57000D02*
D03*
X51500Y56000D02*
D03*
X51000Y55000D02*
D03*
X51500Y54000D02*
D03*
X51000Y53000D02*
D03*
X51500Y52000D02*
D03*
X51000Y51000D02*
D03*
X51500Y50000D02*
D03*
X51000Y49000D02*
D03*
X51500Y48000D02*
D03*
X51000Y47000D02*
D03*
X51500Y46000D02*
D03*
X51000Y45000D02*
D03*
X51500Y44000D02*
D03*
X51000Y43000D02*
D03*
X51500Y42000D02*
D03*
X51000Y41000D02*
D03*
X51500Y40000D02*
D03*
X51000Y39000D02*
D03*
X51500Y38000D02*
D03*
X51000Y37000D02*
D03*
X51500Y36000D02*
D03*
X51000Y35000D02*
D03*
X51500Y34000D02*
D03*
X51000Y33000D02*
D03*
X51500Y32000D02*
D03*
X51000Y31000D02*
D03*
X51500Y30000D02*
D03*
X51000Y29000D02*
D03*
X51500Y28000D02*
D03*
X51000Y27000D02*
D03*
X51500Y26000D02*
D03*
X51000Y25000D02*
D03*
X51500Y24000D02*
D03*
X51000Y23000D02*
D03*
X51500Y22000D02*
D03*
X51000Y21000D02*
D03*
X51500Y20000D02*
D03*
Y18000D02*
D03*
Y16000D02*
D03*
Y14000D02*
D03*
X51000Y3000D02*
D03*
X51500Y2000D02*
D03*
X50500Y82000D02*
D03*
X50000Y81000D02*
D03*
X50500Y80000D02*
D03*
Y78000D02*
D03*
X50000Y77000D02*
D03*
Y67000D02*
D03*
X50500Y66000D02*
D03*
X50000Y65000D02*
D03*
X50500Y64000D02*
D03*
X50000Y63000D02*
D03*
X50500Y62000D02*
D03*
X50000Y61000D02*
D03*
X50500Y60000D02*
D03*
X50000Y59000D02*
D03*
X50500Y58000D02*
D03*
X50000Y57000D02*
D03*
X50500Y56000D02*
D03*
X50000Y55000D02*
D03*
X50500Y54000D02*
D03*
X50000Y53000D02*
D03*
X50500Y52000D02*
D03*
X50000Y51000D02*
D03*
X50500Y50000D02*
D03*
X50000Y49000D02*
D03*
X50500Y48000D02*
D03*
X50000Y47000D02*
D03*
X50500Y46000D02*
D03*
X50000Y45000D02*
D03*
X50500Y44000D02*
D03*
X50000Y43000D02*
D03*
X50500Y42000D02*
D03*
X50000Y41000D02*
D03*
X50500Y40000D02*
D03*
X50000Y39000D02*
D03*
X50500Y38000D02*
D03*
X50000Y37000D02*
D03*
X50500Y36000D02*
D03*
X50000Y35000D02*
D03*
X50500Y34000D02*
D03*
X50000Y33000D02*
D03*
X50500Y32000D02*
D03*
X50000Y31000D02*
D03*
X50500Y30000D02*
D03*
X50000Y29000D02*
D03*
X50500Y28000D02*
D03*
X50000Y27000D02*
D03*
X50500Y26000D02*
D03*
X50000Y25000D02*
D03*
X50500Y24000D02*
D03*
X50000Y23000D02*
D03*
X50500Y22000D02*
D03*
X50000Y21000D02*
D03*
X50500Y20000D02*
D03*
Y2000D02*
D03*
X49500Y82000D02*
D03*
X49000Y81000D02*
D03*
X49500Y80000D02*
D03*
Y78000D02*
D03*
X49000Y67000D02*
D03*
X49500Y66000D02*
D03*
X49000Y65000D02*
D03*
X49500Y64000D02*
D03*
X49000Y63000D02*
D03*
X49500Y62000D02*
D03*
X49000Y61000D02*
D03*
X49500Y60000D02*
D03*
X49000Y59000D02*
D03*
X49500Y58000D02*
D03*
X49000Y57000D02*
D03*
X49500Y56000D02*
D03*
X49000Y55000D02*
D03*
X49500Y54000D02*
D03*
X49000Y53000D02*
D03*
X49500Y52000D02*
D03*
X49000Y51000D02*
D03*
X49500Y50000D02*
D03*
X49000Y49000D02*
D03*
X49500Y48000D02*
D03*
X49000Y47000D02*
D03*
X49500Y46000D02*
D03*
X49000Y45000D02*
D03*
X49500Y44000D02*
D03*
X49000Y43000D02*
D03*
X49500Y42000D02*
D03*
X49000Y41000D02*
D03*
X49500Y40000D02*
D03*
X49000Y39000D02*
D03*
X49500Y38000D02*
D03*
X49000Y37000D02*
D03*
X49500Y36000D02*
D03*
X49000Y35000D02*
D03*
X49500Y34000D02*
D03*
X49000Y33000D02*
D03*
X49500Y32000D02*
D03*
X49000Y31000D02*
D03*
X49500Y30000D02*
D03*
X49000Y29000D02*
D03*
X49500Y28000D02*
D03*
X49000Y27000D02*
D03*
X49500Y26000D02*
D03*
X49000Y25000D02*
D03*
X49500Y24000D02*
D03*
X49000Y23000D02*
D03*
X49500Y22000D02*
D03*
X49000Y21000D02*
D03*
X49500Y2000D02*
D03*
X48500Y82000D02*
D03*
X48000Y81000D02*
D03*
X48500Y80000D02*
D03*
X48000Y67000D02*
D03*
X48500Y66000D02*
D03*
X48000Y65000D02*
D03*
X48500Y64000D02*
D03*
X48000Y63000D02*
D03*
X48500Y62000D02*
D03*
X48000Y61000D02*
D03*
X48500Y60000D02*
D03*
X48000Y59000D02*
D03*
X48500Y58000D02*
D03*
X48000Y57000D02*
D03*
X48500Y56000D02*
D03*
X48000Y55000D02*
D03*
X48500Y54000D02*
D03*
X48000Y53000D02*
D03*
X48500Y52000D02*
D03*
X48000Y51000D02*
D03*
X48500Y50000D02*
D03*
X48000Y49000D02*
D03*
X48500Y48000D02*
D03*
X48000Y47000D02*
D03*
X48500Y46000D02*
D03*
X48000Y45000D02*
D03*
X48500Y44000D02*
D03*
X48000Y43000D02*
D03*
X48500Y42000D02*
D03*
X48000Y41000D02*
D03*
X48500Y40000D02*
D03*
X48000Y39000D02*
D03*
X48500Y38000D02*
D03*
X48000Y37000D02*
D03*
X48500Y36000D02*
D03*
X48000Y35000D02*
D03*
X48500Y34000D02*
D03*
X48000Y33000D02*
D03*
X48500Y32000D02*
D03*
X48000Y31000D02*
D03*
X48500Y30000D02*
D03*
X48000Y29000D02*
D03*
X48500Y28000D02*
D03*
X48000Y27000D02*
D03*
X48500Y26000D02*
D03*
X48000Y25000D02*
D03*
X48500Y24000D02*
D03*
X48000Y23000D02*
D03*
X48500Y22000D02*
D03*
X48000Y21000D02*
D03*
X48500Y2000D02*
D03*
X47500Y82000D02*
D03*
X47000Y81000D02*
D03*
X47500Y80000D02*
D03*
Y68000D02*
D03*
X47000Y67000D02*
D03*
X47500Y66000D02*
D03*
X47000Y65000D02*
D03*
X47500Y64000D02*
D03*
X47000Y63000D02*
D03*
X47500Y62000D02*
D03*
X47000Y61000D02*
D03*
X47500Y60000D02*
D03*
X47000Y59000D02*
D03*
X47500Y58000D02*
D03*
X47000Y57000D02*
D03*
X47500Y56000D02*
D03*
X47000Y55000D02*
D03*
X47500Y54000D02*
D03*
X47000Y53000D02*
D03*
X47500Y52000D02*
D03*
X47000Y51000D02*
D03*
X47500Y50000D02*
D03*
X47000Y49000D02*
D03*
X47500Y48000D02*
D03*
X47000Y47000D02*
D03*
X47500Y46000D02*
D03*
X47000Y45000D02*
D03*
X47500Y44000D02*
D03*
X47000Y43000D02*
D03*
X47500Y42000D02*
D03*
X47000Y41000D02*
D03*
X47500Y40000D02*
D03*
X47000Y39000D02*
D03*
X47500Y38000D02*
D03*
X47000Y37000D02*
D03*
X47500Y36000D02*
D03*
X47000Y35000D02*
D03*
X47500Y34000D02*
D03*
X47000Y33000D02*
D03*
X47500Y32000D02*
D03*
X47000Y31000D02*
D03*
X47500Y30000D02*
D03*
X47000Y29000D02*
D03*
X47500Y28000D02*
D03*
X47000Y27000D02*
D03*
X47500Y26000D02*
D03*
X47000Y25000D02*
D03*
X47500Y24000D02*
D03*
X47000Y23000D02*
D03*
X47500Y22000D02*
D03*
X47000Y21000D02*
D03*
X47500Y2000D02*
D03*
X46500Y82000D02*
D03*
X46000Y81000D02*
D03*
X46500Y80000D02*
D03*
X46000Y69000D02*
D03*
X46500Y68000D02*
D03*
X46000Y67000D02*
D03*
X46500Y66000D02*
D03*
X46000Y65000D02*
D03*
X46500Y64000D02*
D03*
X46000Y63000D02*
D03*
X46500Y62000D02*
D03*
X46000Y61000D02*
D03*
X46500Y60000D02*
D03*
X46000Y59000D02*
D03*
X46500Y58000D02*
D03*
X46000Y57000D02*
D03*
X46500Y56000D02*
D03*
X46000Y55000D02*
D03*
X46500Y54000D02*
D03*
X46000Y53000D02*
D03*
X46500Y52000D02*
D03*
X46000Y51000D02*
D03*
X46500Y50000D02*
D03*
X46000Y49000D02*
D03*
X46500Y48000D02*
D03*
X46000Y47000D02*
D03*
X46500Y46000D02*
D03*
X46000Y45000D02*
D03*
X46500Y44000D02*
D03*
X46000Y43000D02*
D03*
X46500Y42000D02*
D03*
X46000Y41000D02*
D03*
X46500Y40000D02*
D03*
X46000Y39000D02*
D03*
X46500Y38000D02*
D03*
X46000Y37000D02*
D03*
X46500Y36000D02*
D03*
X46000Y35000D02*
D03*
X46500Y34000D02*
D03*
X46000Y33000D02*
D03*
X46500Y32000D02*
D03*
X46000Y31000D02*
D03*
X46500Y30000D02*
D03*
X46000Y29000D02*
D03*
X46500Y28000D02*
D03*
X46000Y27000D02*
D03*
X46500Y26000D02*
D03*
X46000Y25000D02*
D03*
X46500Y24000D02*
D03*
X46000Y23000D02*
D03*
X46500Y22000D02*
D03*
X46000Y21000D02*
D03*
X46500Y2000D02*
D03*
X45500Y82000D02*
D03*
X45000Y81000D02*
D03*
X45500Y80000D02*
D03*
X45000Y79000D02*
D03*
Y71000D02*
D03*
X45500Y70000D02*
D03*
X45000Y69000D02*
D03*
X45500Y68000D02*
D03*
X45000Y67000D02*
D03*
X45500Y66000D02*
D03*
X45000Y65000D02*
D03*
X45500Y64000D02*
D03*
X45000Y63000D02*
D03*
X45500Y62000D02*
D03*
X45000Y61000D02*
D03*
X45500Y60000D02*
D03*
X45000Y59000D02*
D03*
X45500Y58000D02*
D03*
X45000Y57000D02*
D03*
X45500Y56000D02*
D03*
X45000Y55000D02*
D03*
X45500Y54000D02*
D03*
X45000Y53000D02*
D03*
X45500Y52000D02*
D03*
X45000Y51000D02*
D03*
X45500Y50000D02*
D03*
X45000Y49000D02*
D03*
X45500Y48000D02*
D03*
X45000Y47000D02*
D03*
X45500Y46000D02*
D03*
X45000Y45000D02*
D03*
X45500Y44000D02*
D03*
X45000Y43000D02*
D03*
X45500Y42000D02*
D03*
X45000Y41000D02*
D03*
X45500Y40000D02*
D03*
X45000Y39000D02*
D03*
X45500Y38000D02*
D03*
X45000Y37000D02*
D03*
X45500Y36000D02*
D03*
X45000Y35000D02*
D03*
X45500Y34000D02*
D03*
X45000Y33000D02*
D03*
X45500Y32000D02*
D03*
X45000Y31000D02*
D03*
X45500Y30000D02*
D03*
X45000Y29000D02*
D03*
X45500Y28000D02*
D03*
X45000Y27000D02*
D03*
X45500Y26000D02*
D03*
X45000Y25000D02*
D03*
X45500Y24000D02*
D03*
X45000Y23000D02*
D03*
X45500Y22000D02*
D03*
X45000Y21000D02*
D03*
X45500Y2000D02*
D03*
X45000Y1000D02*
D03*
X44500Y82000D02*
D03*
X44000Y81000D02*
D03*
X44500Y80000D02*
D03*
X44000Y79000D02*
D03*
X44500Y78000D02*
D03*
X44000Y77000D02*
D03*
Y75000D02*
D03*
Y73000D02*
D03*
Y71000D02*
D03*
X44500Y70000D02*
D03*
X44000Y69000D02*
D03*
X44500Y68000D02*
D03*
X44000Y67000D02*
D03*
X44500Y66000D02*
D03*
X44000Y65000D02*
D03*
X44500Y64000D02*
D03*
X44000Y63000D02*
D03*
X44500Y62000D02*
D03*
X44000Y61000D02*
D03*
X44500Y60000D02*
D03*
X44000Y59000D02*
D03*
X44500Y58000D02*
D03*
X44000Y57000D02*
D03*
X44500Y56000D02*
D03*
X44000Y55000D02*
D03*
X44500Y54000D02*
D03*
X44000Y53000D02*
D03*
X44500Y52000D02*
D03*
X44000Y51000D02*
D03*
X44500Y50000D02*
D03*
X44000Y49000D02*
D03*
X44500Y48000D02*
D03*
X44000Y47000D02*
D03*
X44500Y46000D02*
D03*
X44000Y45000D02*
D03*
X44500Y44000D02*
D03*
X44000Y43000D02*
D03*
X44500Y42000D02*
D03*
X44000Y41000D02*
D03*
X44500Y40000D02*
D03*
X44000Y39000D02*
D03*
X44500Y38000D02*
D03*
X44000Y37000D02*
D03*
X44500Y36000D02*
D03*
X44000Y35000D02*
D03*
X44500Y34000D02*
D03*
X44000Y33000D02*
D03*
X44500Y32000D02*
D03*
X44000Y31000D02*
D03*
X44500Y30000D02*
D03*
X44000Y29000D02*
D03*
X44500Y28000D02*
D03*
X44000Y27000D02*
D03*
X44500Y26000D02*
D03*
X44000Y25000D02*
D03*
X44500Y24000D02*
D03*
X44000Y23000D02*
D03*
X44500Y22000D02*
D03*
X44000Y21000D02*
D03*
X44500Y2000D02*
D03*
X44000Y1000D02*
D03*
X43500Y80000D02*
D03*
Y78000D02*
D03*
Y74000D02*
D03*
Y72000D02*
D03*
Y70000D02*
D03*
Y68000D02*
D03*
Y66000D02*
D03*
Y64000D02*
D03*
Y62000D02*
D03*
Y60000D02*
D03*
Y58000D02*
D03*
Y56000D02*
D03*
Y54000D02*
D03*
Y52000D02*
D03*
Y50000D02*
D03*
Y48000D02*
D03*
Y46000D02*
D03*
Y44000D02*
D03*
Y42000D02*
D03*
Y40000D02*
D03*
Y38000D02*
D03*
Y36000D02*
D03*
Y34000D02*
D03*
Y32000D02*
D03*
Y30000D02*
D03*
Y28000D02*
D03*
Y26000D02*
D03*
Y24000D02*
D03*
Y22000D02*
D03*
Y2000D02*
D03*
X43000Y1000D02*
D03*
X42000Y3000D02*
D03*
X42500Y2000D02*
D03*
X42000Y1000D02*
D03*
X41000Y3000D02*
D03*
X41500Y2000D02*
D03*
X41000Y1000D02*
D03*
X40500Y6000D02*
D03*
X40000Y5000D02*
D03*
X40500Y4000D02*
D03*
X40000Y3000D02*
D03*
X40500Y2000D02*
D03*
X40000Y1000D02*
D03*
X39500Y6000D02*
D03*
X39000Y5000D02*
D03*
X39500Y4000D02*
D03*
X39000Y3000D02*
D03*
X39500Y2000D02*
D03*
X39000Y1000D02*
D03*
X38500Y6000D02*
D03*
X38000Y5000D02*
D03*
X38500Y4000D02*
D03*
X38000Y3000D02*
D03*
X38500Y2000D02*
D03*
X37500Y6000D02*
D03*
X37000Y5000D02*
D03*
X37500Y4000D02*
D03*
X37000Y3000D02*
D03*
X37500Y2000D02*
D03*
X36500Y6000D02*
D03*
X36000Y5000D02*
D03*
X36500Y4000D02*
D03*
Y2000D02*
D03*
X35500Y6000D02*
D03*
X35000Y5000D02*
D03*
X35500Y2000D02*
D03*
X34500Y6000D02*
D03*
X34000Y5000D02*
D03*
X34500Y4000D02*
D03*
X34000Y3000D02*
D03*
X34500Y2000D02*
D03*
X59711Y23307D02*
D03*
X59063Y22838D02*
D03*
X49280Y71884D02*
D03*
X49534Y73535D02*
D03*
X45927Y72749D02*
D03*
X48391Y78234D02*
D03*
X51963Y71758D02*
D03*
X55774Y68974D02*
D03*
X71989Y29240D02*
D03*
X72665Y27150D02*
D03*
X72501Y30896D02*
D03*
X69223Y30812D02*
D03*
X70358Y30099D02*
D03*
X69906Y27650D02*
D03*
X63183Y28128D02*
D03*
X55880Y29464D02*
D03*
X57105Y24516D02*
D03*
X56824Y23687D02*
D03*
X64173Y30767D02*
D03*
X65001Y31820D02*
D03*
X41021Y10160D02*
D03*
X39236Y11045D02*
D03*
X44592Y12349D02*
D03*
X64904Y46022D02*
D03*
X65863Y47396D02*
D03*
X63119Y28956D02*
D03*
X44245Y13529D02*
D03*
X57404Y75057D02*
D03*
X65532Y23241D02*
D03*
X67308Y24993D02*
D03*
X60898Y71783D02*
D03*
X52562Y69605D02*
D03*
X58469Y69950D02*
D03*
X54836Y75295D02*
D03*
X47456Y77385D02*
D03*
X56418Y73309D02*
D03*
Y72009D02*
D03*
Y70709D02*
D03*
X55118Y73309D02*
D03*
Y70709D02*
D03*
X53818D02*
D03*
Y72009D02*
D03*
Y73309D02*
D03*
X55118Y72009D02*
D03*
X65448Y27348D02*
D03*
X66548D02*
D03*
X67648D02*
D03*
X65448Y28448D02*
D03*
X66548D02*
D03*
X67648D02*
D03*
X65448Y29548D02*
D03*
X66548D02*
D03*
X67648D02*
D03*
X70145Y24372D02*
D03*
X51418Y76623D02*
D03*
X51583Y74535D02*
D03*
X63111Y74204D02*
D03*
X54864Y29337D02*
D03*
X68246Y48785D02*
D03*
X74965Y49597D02*
D03*
X64122Y25944D02*
D03*
X74752Y43390D02*
D03*
X76246Y26337D02*
D03*
X71418Y43181D02*
D03*
X45100Y11206D02*
D03*
X70993Y46990D02*
D03*
X77156Y43954D02*
D03*
X75693Y47889D02*
D03*
X72379Y43173D02*
D03*
X73057Y49057D02*
D03*
X76003Y41661D02*
D03*
X56418Y73309D02*
D03*
Y72009D02*
D03*
Y70709D02*
D03*
X55118Y73309D02*
D03*
Y70709D02*
D03*
X53818D02*
D03*
Y72009D02*
D03*
Y73309D02*
D03*
X55118Y72009D02*
D03*
X65448Y27348D02*
D03*
X66548D02*
D03*
X67648D02*
D03*
X65448Y28448D02*
D03*
X66548D02*
D03*
X67648D02*
D03*
X65448Y29548D02*
D03*
X66548D02*
D03*
X67648D02*
D03*
D24*
X35560Y3556D02*
D03*
X73025Y17907D02*
D03*
X38989Y81661D02*
D03*
D25*
X63150Y27511D02*
G03*
X63822Y27698I-59J1510D01*
G01*
X55368Y68617D02*
Y69609D01*
X52070Y71758D02*
X52717D01*
X52718Y71759D01*
X55368Y68617D02*
X55499Y68486D01*
X54868Y68581D02*
Y69609D01*
X54737Y68453D02*
X54740D01*
X54868Y68581D01*
X46355Y74795D02*
X46482Y74668D01*
X46239Y75170D02*
X46355Y75055D01*
Y74795D02*
Y75055D01*
X58992Y72451D02*
X59055Y72498D01*
X58189Y72321D02*
X58992Y72451D01*
X67648Y29548D02*
X68172Y30072D01*
X59733Y23415D02*
X59739Y23442D01*
X59711Y23307D02*
X59733Y23415D01*
X66548Y28448D02*
X67648Y29548D01*
X59739Y23442D02*
X59819Y23876D01*
X51943Y73956D02*
X52241Y74262D01*
Y74807D01*
X51444Y72754D02*
X51826Y72372D01*
X52217D02*
X52319Y72270D01*
X52707D01*
Y72770D02*
X52718Y72759D01*
X51826Y72372D02*
X52217D01*
X52707Y72270D02*
X52718Y72259D01*
X52274Y70698D02*
X52381D01*
X51759Y70174D02*
X52054Y70469D01*
X51370Y70174D02*
X51759D01*
X52054Y70478D02*
X52274Y70698D01*
X52431Y70748D02*
X52707D01*
X51308Y70112D02*
X51370Y70174D01*
X52054Y70469D02*
Y70478D01*
X52707Y70748D02*
X52718Y70759D01*
X52381Y70698D02*
X52431Y70748D01*
X56388Y68572D02*
X56507Y68453D01*
X56379Y69322D02*
Y69598D01*
X56368Y69609D02*
X56379Y69598D01*
Y69322D02*
X56388Y69312D01*
Y68572D02*
Y69312D01*
X56765Y70450D02*
X56780Y70080D01*
X56807Y70005D02*
X56868Y69959D01*
X56780Y70080D02*
X56807Y70053D01*
Y70005D02*
Y70053D01*
X56868Y69609D02*
Y69959D01*
X69169Y30198D02*
Y30685D01*
X63148Y27510D02*
X63150Y27511D01*
X63183Y28128D02*
X63330Y28122D01*
X62774Y27497D02*
X63148Y27510D01*
X63822Y27698D02*
X63823Y27698D01*
X63330Y28122D02*
X63347Y28126D01*
X63823Y27698D02*
X64148D01*
X64798Y26373D02*
X64798Y26373D01*
X65253Y27153D02*
X65448Y27348D01*
X64798Y26373D02*
X65253Y27153D01*
X64798Y26048D02*
Y26373D01*
X65532Y23687D02*
Y24166D01*
Y23241D02*
Y23687D01*
X60511Y23844D02*
X62425D01*
X60142Y23876D02*
X60511Y23844D01*
X59819Y23876D02*
X60142D01*
X62682Y24101D02*
X63119Y25146D01*
X62425Y23844D02*
X62682Y24101D01*
X59698Y23876D02*
X59819D01*
X41012Y11431D02*
X41148Y11295D01*
X40893Y11431D02*
X41012D01*
X40871Y11453D02*
X40893Y11431D01*
X39908Y11453D02*
X40871D01*
X39840Y11509D02*
X39908Y11453D01*
X64148Y30198D02*
X64173Y30767D01*
X39640Y11509D02*
X39840D01*
X39469Y11679D02*
X39640Y11509D01*
X38880Y11679D02*
X39469D01*
X36444Y11132D02*
X36558D01*
X65612Y27223D02*
X65646Y27268D01*
X65298Y26812D02*
X65612Y27223D01*
X51172Y73026D02*
X51444Y72754D01*
X49197Y73655D02*
X49285Y73617D01*
X49149Y73676D02*
X49197Y73655D01*
X45195Y12382D02*
Y12733D01*
X38156Y12390D02*
X38744D01*
X37326Y13105D02*
X37701Y12731D01*
X37189Y13121D02*
X37326Y13105D01*
X37757Y12789D02*
X38156Y12390D01*
X58936Y24638D02*
X59698Y23876D01*
X65448Y27348D02*
X66548Y28448D01*
X65646Y27268D02*
X66548Y28448D01*
X63569Y28785D02*
X63572Y28779D01*
X63569Y28785D02*
X63628Y28726D01*
X63398Y28956D02*
X63569Y28785D01*
X64122Y26391D02*
X64291Y26021D01*
X64291Y26021D01*
X64122Y26391D02*
Y26698D01*
Y25944D02*
Y26391D01*
X63953Y26021D02*
X64122Y26391D01*
X63953Y26021D02*
X63953Y26021D01*
X63119Y28956D02*
X63398D01*
X38966Y13101D02*
Y13451D01*
X67298Y25723D02*
Y26048D01*
Y25309D02*
Y25723D01*
Y25309D02*
X67308Y24993D01*
X52562Y70248D02*
X52718Y70259D01*
X52562Y69605D02*
Y70248D01*
X54836Y75295D02*
X54868Y74914D01*
Y74409D02*
Y74914D01*
X54373Y74964D02*
X54663Y75254D01*
X54368Y74914D02*
X54373Y74964D01*
X54368Y74409D02*
Y74914D01*
X45647Y74804D02*
Y74918D01*
X45593Y74668D02*
X45647Y74804D01*
X36991Y13101D02*
X37189Y13121D01*
X36830Y13101D02*
X36991D01*
X36694Y13040D02*
X36830Y13101D01*
X65298Y26048D02*
Y26812D01*
X68385Y32859D02*
X68445Y33020D01*
X68385Y32745D02*
Y32859D01*
X68298Y31173D02*
X68385Y32745D01*
X68298Y30848D02*
Y31173D01*
X44910Y12858D02*
X45000Y12916D01*
X44698Y12646D02*
X44910Y12858D01*
X44698Y12642D02*
Y12646D01*
X44621Y12564D02*
X44698Y12642D01*
X44564Y12497D02*
X44621Y12564D01*
X44452Y12344D02*
X44564Y12497D01*
X44337Y12192D02*
X44452Y12344D01*
X44062Y12192D02*
X44337D01*
X59681Y69783D02*
X59817Y69842D01*
X59567Y69783D02*
X59681D01*
X58799Y69155D02*
X59567Y69783D01*
X58140Y69155D02*
X58799D01*
X57040Y69373D02*
X58140Y69155D01*
X56879Y69373D02*
X57040D01*
X56868Y69609D02*
X56879Y69373D01*
X64798Y25664D02*
Y26048D01*
X64402Y25268D02*
X64798Y25664D01*
X63369Y25148D02*
X64402Y25268D01*
X63255Y25148D02*
X63369D01*
X63119Y25146D02*
X63255Y25148D01*
X56868Y71259D02*
X57518D01*
X39869Y12132D02*
X40005Y12073D01*
X39755Y12132D02*
X39869D01*
X39166Y12329D02*
X39755Y12132D01*
X38880Y12329D02*
X39166D01*
X38744Y12390D02*
X38880Y12329D01*
X52718Y72259D02*
X53368D01*
X53393Y73568D02*
X53410Y73551D01*
X53165Y73700D02*
X53393Y73568D01*
X53115Y73748D02*
X53165Y73700D01*
X53068Y73759D02*
X53115Y73748D01*
X52718Y73759D02*
X53068D01*
X47426Y74897D02*
X47498Y74803D01*
X47426Y74897D02*
Y74939D01*
X47396Y74969D02*
X47426Y74939D01*
X46638Y75522D02*
X46669Y75442D01*
X46350Y75810D02*
X46638Y75522D01*
X46313Y75819D02*
X46350Y75810D01*
X51058Y73026D02*
X51172D01*
X45195Y12382D02*
X45212Y12192D01*
X54042Y75691D02*
X54102Y75827D01*
X54042Y75577D02*
Y75691D01*
X53868Y74914D02*
X54042Y75577D01*
X53868Y74759D02*
Y74914D01*
Y74409D02*
Y74759D01*
X45086Y75819D02*
X45200D01*
X44950Y75819D02*
X45086Y75819D01*
X51444Y71148D02*
X51558D01*
X51308Y71112D02*
X51444Y71148D01*
X52368Y73259D02*
X52718D01*
X51613Y75442D02*
X52241Y74807D01*
X51613Y75442D02*
Y75556D01*
X51554Y75692D02*
X51613Y75556D01*
X58419Y71759D02*
X58555Y71755D01*
X58305Y71759D02*
X58419D01*
X57868D02*
X58305D01*
X57518D02*
X57868D01*
X63616Y28198D02*
X64148D01*
X63347Y28126D02*
X63616Y28198D01*
X62537Y27468D02*
X62774Y27497D01*
X62368Y27468D02*
X62537D01*
X62254D02*
X62368D01*
X61468Y27158D02*
X62254Y27468D01*
X55368Y74409D02*
Y74759D01*
X55384Y74908D01*
X55594Y75118D01*
X55788Y75254D01*
X56327Y75328D01*
X56617Y75618D01*
X57260Y77277D01*
Y77687D01*
Y78187D01*
X56970Y78477D02*
X57260Y78187D01*
X56765Y78673D02*
X56970Y78477D01*
X56651Y78673D02*
X56765D01*
X56515Y78732D02*
X56651Y78673D01*
X45601Y77470D02*
X45647Y77309D01*
Y77195D02*
Y77309D01*
X36558Y11132D02*
X36694Y11090D01*
X69532Y26327D02*
X69561Y26163D01*
X69532Y26327D02*
X69675Y26243D01*
X69273Y26698D02*
X69532Y26327D01*
X68948Y26698D02*
X69273D01*
X69532Y26327D02*
X69636Y26177D01*
X71400Y25913D02*
X71416Y25784D01*
X71400Y25913D02*
Y25956D01*
X71397Y25966D02*
X71400Y25956D01*
X73516Y23080D02*
X73652Y23241D01*
X73516Y22966D02*
Y23080D01*
Y22919D02*
Y22966D01*
X73449Y22852D02*
X73516Y22919D01*
X73389Y22833D02*
X73449Y22852D01*
X73083Y22529D02*
X73389Y22833D01*
X72917Y22471D02*
X73083Y22529D01*
X72506Y22471D02*
X72917D01*
X72197D02*
X72506D01*
X71907Y22761D02*
X72197Y22471D01*
X71508Y23985D02*
X71907Y22761D01*
X71508Y23985D02*
Y24919D01*
X71416Y25784D02*
X71508Y24919D01*
X71378Y25975D02*
X71397Y25966D01*
X71359Y25994D02*
X71378Y25975D01*
X71241Y26061D02*
X71359Y25994D01*
X71332Y25927D02*
X71416Y25784D01*
X71241Y26061D02*
X71332Y25927D01*
X71241Y26061D02*
X71406Y26042D01*
X71416Y25784D02*
X71469Y25942D01*
X69927Y26852D02*
X71241Y26061D01*
X69609Y27033D02*
X69927Y26852D01*
X69469Y27171D02*
X69609Y27033D01*
X69273Y27198D02*
X69469Y27171D01*
X68948Y27198D02*
X69273D01*
X38744Y13040D02*
X38966Y13101D01*
X38744Y11740D02*
X38880Y11679D01*
X68948Y30198D02*
X69169D01*
X63823Y28698D02*
X64148D01*
X63685Y28726D02*
X63823Y28698D01*
X63628Y28726D02*
X63685D01*
X64122Y26698D02*
X64148D01*
X75987Y45417D02*
X76133Y45495D01*
X75987Y45417D02*
X76023Y45579D01*
X75672Y44860D02*
X75987Y45417D01*
X75672Y44860D02*
X75672Y44093D01*
X75434Y43855D02*
X75672Y44093D01*
X74752Y43390D02*
X75434Y43855D01*
X75987Y45417D02*
X76098Y45562D01*
X70103Y28660D02*
X70239Y28575D01*
X69989Y28660D02*
X70103D01*
X69480Y28698D02*
X69989Y28660D01*
X68948Y28698D02*
X69480D01*
X70103Y29507D02*
X70239Y29591D01*
X69989Y29507D02*
X70103D01*
X69480Y29198D02*
X69989Y29507D01*
X69273Y29198D02*
X69480D01*
X68948D02*
X69273D01*
X67445Y33020D02*
X67505Y32859D01*
Y32745D02*
Y32859D01*
Y32745D02*
X67798Y31380D01*
Y31173D02*
Y31380D01*
Y30848D02*
Y31173D01*
X65532Y23687D02*
X65701Y23318D01*
X65363D02*
X65532Y23687D01*
X67298Y25309D02*
X67455Y25107D01*
X67154Y25098D02*
X67298Y25309D01*
X45012Y12916D02*
X45163Y12985D01*
X45012Y12916D02*
X45163Y12847D01*
X45195Y12733D02*
X45264Y12884D01*
X69532Y26327D02*
X69675Y26243D01*
X69532Y26327D02*
X69561Y26163D01*
X38896Y13602D02*
X38966Y13451D01*
X63187Y28907D02*
X63572Y28779D01*
X74911Y43293D02*
X75121Y43641D01*
X74720Y43573D02*
X75121Y43641D01*
X75987Y45417D02*
X76023Y45579D01*
X75987Y45417D02*
X76133Y45495D01*
X66298Y30848D02*
Y31173D01*
D26*
X37219Y14986D02*
D03*
X38219D02*
D03*
X43299Y75819D02*
D03*
X42299D02*
D03*
X50411Y72644D02*
D03*
X49411D02*
D03*
X53586Y68453D02*
D03*
X52586D02*
D03*
X59555Y70739D02*
D03*
X58555D02*
D03*
X60587Y70993D02*
D03*
X61587D02*
D03*
X50792Y74676D02*
D03*
X49792D02*
D03*
X53197Y76581D02*
D03*
X52197D02*
D03*
X55872Y76835D02*
D03*
X54872D02*
D03*
X62603Y29972D02*
D03*
X61603D02*
D03*
X67445Y33909D02*
D03*
X68445D02*
D03*
X70223Y46482D02*
D03*
X69223D02*
D03*
X69207Y44196D02*
D03*
X68207D02*
D03*
X37219Y14224D02*
D03*
X38219D02*
D03*
X72652Y40767D02*
D03*
X73652D02*
D03*
X75303Y40767D02*
D03*
X74303D02*
D03*
Y46736D02*
D03*
X75303D02*
D03*
X72652D02*
D03*
X73652D02*
D03*
X73414Y52070D02*
D03*
X74414D02*
D03*
X69223Y43434D02*
D03*
X70223D02*
D03*
Y44958D02*
D03*
X69223D02*
D03*
X69207Y45720D02*
D03*
X68207D02*
D03*
X69207Y48006D02*
D03*
X68207D02*
D03*
X69207Y47244D02*
D03*
X68207D02*
D03*
X49776Y70358D02*
D03*
X48776D02*
D03*
X49411Y71882D02*
D03*
X50411D02*
D03*
X50538Y71120D02*
D03*
X49538D02*
D03*
X59555Y71755D02*
D03*
X58555D02*
D03*
X59809Y24765D02*
D03*
X58809D02*
D03*
X51300Y73914D02*
D03*
X50300D02*
D03*
X59809Y27305D02*
D03*
X58809D02*
D03*
X44950Y75819D02*
D03*
X43950D02*
D03*
X48252D02*
D03*
X47252D02*
D03*
X47744Y76581D02*
D03*
X46744D02*
D03*
X50030Y75692D02*
D03*
X49030D02*
D03*
X51554D02*
D03*
X50554D02*
D03*
X52197Y75819D02*
D03*
X53197D02*
D03*
X55872Y76073D02*
D03*
X54872D02*
D03*
D27*
X77216Y51065D02*
D03*
Y53340D02*
D03*
D28*
X67437Y43188D02*
D03*
Y44188D02*
D03*
Y45728D02*
D03*
Y46728D02*
D03*
X47117Y13073D02*
D03*
Y12073D02*
D03*
X71882Y41910D02*
D03*
Y40910D02*
D03*
X54737Y67445D02*
D03*
Y68445D02*
D03*
X50546Y69350D02*
D03*
Y70350D02*
D03*
X46863Y73017D02*
D03*
Y72017D02*
D03*
X48641Y72128D02*
D03*
Y71128D02*
D03*
X46482Y73668D02*
D03*
Y74668D02*
D03*
X63119Y26146D02*
D03*
Y25146D02*
D03*
X70866Y30869D02*
D03*
Y31869D02*
D03*
X76327Y43442D02*
D03*
Y44442D02*
D03*
X65659Y45966D02*
D03*
Y44966D02*
D03*
X57277Y68318D02*
D03*
Y67318D02*
D03*
X59817Y69842D02*
D03*
Y68842D02*
D03*
X47625Y72017D02*
D03*
Y73017D02*
D03*
X51308Y71112D02*
D03*
Y70112D02*
D03*
X51181Y72890D02*
D03*
Y71890D02*
D03*
X45593Y73668D02*
D03*
Y74668D02*
D03*
X48387Y73676D02*
D03*
Y74676D02*
D03*
X47498Y74668D02*
D03*
Y73668D02*
D03*
X49149Y74676D02*
D03*
Y73676D02*
D03*
X54102Y76827D02*
D03*
Y75827D02*
D03*
X61722Y28202D02*
D03*
Y29202D02*
D03*
X75438Y34171D02*
D03*
Y35171D02*
D03*
X48387Y77589D02*
D03*
Y76589D02*
D03*
X56515Y77732D02*
D03*
Y78732D02*
D03*
X69977Y30869D02*
D03*
Y31869D02*
D03*
X40005Y12073D02*
D03*
Y13073D02*
D03*
X40894Y12073D02*
D03*
Y13073D02*
D03*
X41148Y10295D02*
D03*
Y11295D02*
D03*
X42926Y12184D02*
D03*
Y11184D02*
D03*
X41910Y12184D02*
D03*
Y11184D02*
D03*
D29*
X72652Y23241D02*
D03*
X73652D02*
D03*
X56507Y68453D02*
D03*
X55507D02*
D03*
X70239Y29591D02*
D03*
X71239D02*
D03*
X66675Y44196D02*
D03*
X65675D02*
D03*
X75319Y38608D02*
D03*
X76319D02*
D03*
X55507Y67564D02*
D03*
X56507D02*
D03*
X70239Y28575D02*
D03*
X71239D02*
D03*
X45601Y77470D02*
D03*
X46601D02*
D03*
X65413Y33020D02*
D03*
X66413D02*
D03*
X67445D02*
D03*
X68445D02*
D03*
D30*
X79322Y51689D02*
D03*
Y48089D02*
D03*
X80772Y51689D02*
D03*
Y48089D02*
D03*
D31*
X72964Y48028D02*
D03*
X74864D02*
D03*
Y50778D02*
D03*
X73914Y50778D02*
D03*
X72964Y50778D02*
D03*
D32*
X68950Y41402D02*
D03*
X70750Y40452D02*
D03*
Y42352D02*
D03*
X72506Y24450D02*
D03*
Y26350D02*
D03*
X74306Y25400D02*
D03*
D33*
X74003Y22225D02*
D03*
X75603D02*
D03*
X73876Y27940D02*
D03*
X75476D02*
D03*
X75476Y33020D02*
D03*
X73876D02*
D03*
D34*
X61214Y27178D02*
D03*
Y24678D02*
D03*
D35*
X80800Y43200D02*
D03*
Y40800D02*
D03*
D36*
X78125Y42000D02*
D03*
Y42650D02*
D03*
X78125Y43300D02*
D03*
X78125Y41350D02*
D03*
X78125Y40700D02*
D03*
D37*
X80800Y45400D02*
D03*
Y38600D02*
D03*
D38*
X78350Y45200D02*
D03*
Y38800D02*
D03*
D39*
X73091Y44861D02*
D03*
X74041D02*
D03*
X74991D02*
D03*
Y42261D02*
D03*
X74041D02*
D03*
X73091D02*
D03*
D40*
X71000Y51473D02*
D03*
Y49873D02*
D03*
Y38467D02*
D03*
Y36867D02*
D03*
D41*
X71000Y47760D02*
D03*
Y48760D02*
D03*
Y34806D02*
D03*
Y35806D02*
D03*
X67056Y70120D02*
D03*
Y71120D02*
D03*
X75438Y26408D02*
D03*
Y25408D02*
D03*
X62611Y29202D02*
D03*
Y28202D02*
D03*
D42*
X58467Y67725D02*
D03*
X59817D02*
D03*
X58467Y66675D02*
D03*
X59817D02*
D03*
D43*
X60833Y69841D02*
D03*
X61483Y69841D02*
D03*
X62133Y69841D02*
D03*
Y67691D02*
D03*
X60833D02*
D03*
D44*
X65591Y71262D02*
D03*
Y69962D02*
D03*
X63441Y70612D02*
D03*
D45*
X57518Y73759D02*
D03*
Y73259D02*
D03*
Y72759D02*
D03*
Y72259D02*
D03*
Y71759D02*
D03*
Y71259D02*
D03*
Y70759D02*
D03*
Y70259D02*
D03*
X52718D02*
D03*
Y70759D02*
D03*
Y71259D02*
D03*
Y71759D02*
D03*
Y72259D02*
D03*
Y72759D02*
D03*
Y73259D02*
D03*
Y73759D02*
D03*
D46*
X53368Y74409D02*
D03*
X53868D02*
D03*
X54368D02*
D03*
X54868D02*
D03*
X55368D02*
D03*
X55868D02*
D03*
X56368D02*
D03*
X56868D02*
D03*
Y69609D02*
D03*
X56368D02*
D03*
X55868D02*
D03*
X55368D02*
D03*
X54868D02*
D03*
X54368D02*
D03*
X53868D02*
D03*
X53368D02*
D03*
D47*
X55118Y72009D02*
D03*
D48*
X45647Y76219D02*
D03*
Y75819D02*
D03*
Y75419D02*
D03*
X46047D02*
D03*
Y75819D02*
D03*
Y76219D02*
D03*
D49*
X55514Y78732D02*
D03*
Y77732D02*
D03*
X54214Y78232D02*
D03*
D50*
X64148Y26698D02*
D03*
Y27198D02*
D03*
Y27698D02*
D03*
Y28198D02*
D03*
Y28698D02*
D03*
Y29198D02*
D03*
Y29698D02*
D03*
Y30198D02*
D03*
X68948D02*
D03*
Y29698D02*
D03*
Y29198D02*
D03*
Y28698D02*
D03*
Y28198D02*
D03*
Y27698D02*
D03*
Y27198D02*
D03*
Y26698D02*
D03*
D51*
X64798Y30848D02*
D03*
X65298D02*
D03*
X65798D02*
D03*
X66298D02*
D03*
X66798D02*
D03*
X67298D02*
D03*
X67798D02*
D03*
X68298D02*
D03*
Y26048D02*
D03*
X67798D02*
D03*
X67298D02*
D03*
X66798D02*
D03*
X66298D02*
D03*
X65798D02*
D03*
X65298D02*
D03*
X64798D02*
D03*
D52*
X66548Y28448D02*
D03*
D53*
X36694Y13040D02*
D03*
Y12390D02*
D03*
Y11740D02*
D03*
Y11090D02*
D03*
X38744Y11090D02*
D03*
Y11740D02*
D03*
Y12390D02*
D03*
Y13040D02*
D03*
D54*
X46362Y12192D02*
D03*
Y11392D02*
D03*
Y12992D02*
D03*
X44062D02*
D03*
Y12192D02*
D03*
Y11392D02*
D03*
D55*
X45212Y12192D02*
D03*
D56*
X55753Y68961D02*
Y69048D01*
X55868Y69163D02*
Y69609D01*
X55753Y69048D02*
X55868Y69163D01*
X58430Y70759D02*
X58555Y70739D01*
X57518Y70759D02*
X58430D01*
D57*
X51558Y71148D02*
X52230D01*
X52276Y71194D01*
X52652D01*
D58*
X38227Y14224D02*
Y14978D01*
X38219Y14986D02*
X38227Y14978D01*
D59*
X56868Y74409D02*
Y74811D01*
M02*
