G04*
G04 #@! TF.GenerationSoftware,Altium Limited,Altium Designer,20.2.6 (244)*
G04*
G04 Layer_Color=0*
%FSLAX43Y43*%
%MOMM*%
G71*
G04*
G04 #@! TF.SameCoordinates,C84C0C97-952F-48A7-9790-35694251DD82*
G04*
G04*
G04 #@! TF.FilePolarity,Positive*
G04*
G01*
G75*
%ADD90C,0.100*%
%ADD95C,0.050*%
D90*
X59342Y67200D02*
G03*
X59342Y67200I-200J0D01*
G01*
X58742D02*
X59542D01*
X59142Y66800D02*
Y67600D01*
D95*
X37869Y14986D02*
G03*
X37869Y14986I-150J0D01*
G01*
X42949Y75819D02*
G03*
X42949Y75819I-150J0D01*
G01*
X41779Y41275D02*
G03*
X41779Y41275I-250J0D01*
G01*
X77720Y33040D02*
G03*
X77720Y33040I-250J0D01*
G01*
X77670Y27940D02*
G03*
X77670Y27940I-200J0D01*
G01*
X77416Y52190D02*
G03*
X77416Y52190I-200J0D01*
G01*
X67587Y43688D02*
G03*
X67587Y43688I-150J0D01*
G01*
Y46228D02*
G03*
X67587Y46228I-150J0D01*
G01*
X73302Y23241D02*
G03*
X73302Y23241I-150J0D01*
G01*
X50061Y72644D02*
G03*
X50061Y72644I-150J0D01*
G01*
X53236Y68453D02*
G03*
X53236Y68453I-150J0D01*
G01*
X56157D02*
G03*
X56157Y68453I-150J0D01*
G01*
X59205Y70739D02*
G03*
X59205Y70739I-150J0D01*
G01*
X61237Y70993D02*
G03*
X61237Y70993I-150J0D01*
G01*
X50442Y74676D02*
G03*
X50442Y74676I-150J0D01*
G01*
X52847Y76581D02*
G03*
X52847Y76581I-150J0D01*
G01*
X55522Y76835D02*
G03*
X55522Y76835I-150J0D01*
G01*
X62253Y29972D02*
G03*
X62253Y29972I-150J0D01*
G01*
X68095Y33909D02*
G03*
X68095Y33909I-150J0D01*
G01*
X70889Y29591D02*
G03*
X70889Y29591I-150J0D01*
G01*
X47267Y12573D02*
G03*
X47267Y12573I-150J0D01*
G01*
X74114Y49403D02*
G03*
X74114Y49403I-200J0D01*
G01*
X69873Y46482D02*
G03*
X69873Y46482I-150J0D01*
G01*
X70100Y41402D02*
G03*
X70100Y41402I-250J0D01*
G01*
X72032Y41410D02*
G03*
X72032Y41410I-150J0D01*
G01*
X68857Y44196D02*
G03*
X68857Y44196I-150J0D01*
G01*
X75053Y22225D02*
G03*
X75053Y22225I-250J0D01*
G01*
X66325Y44196D02*
G03*
X66325Y44196I-150J0D01*
G01*
X54887Y67945D02*
G03*
X54887Y67945I-150J0D01*
G01*
X73656Y25400D02*
G03*
X73656Y25400I-250J0D01*
G01*
X50696Y69850D02*
G03*
X50696Y69850I-150J0D01*
G01*
X47013Y72517D02*
G03*
X47013Y72517I-150J0D01*
G01*
X48791Y71628D02*
G03*
X48791Y71628I-150J0D01*
G01*
X61464Y25928D02*
G03*
X61464Y25928I-250J0D01*
G01*
X46632Y74168D02*
G03*
X46632Y74168I-150J0D01*
G01*
X63269Y25646D02*
G03*
X63269Y25646I-150J0D01*
G01*
X71016Y31369D02*
G03*
X71016Y31369I-150J0D01*
G01*
X37869Y14224D02*
G03*
X37869Y14224I-150J0D01*
G01*
X81050Y42000D02*
G03*
X81050Y42000I-250J0D01*
G01*
X75969Y38608D02*
G03*
X75969Y38608I-150J0D01*
G01*
X76477Y43942D02*
G03*
X76477Y43942I-150J0D01*
G01*
X73302Y40767D02*
G03*
X73302Y40767I-150J0D01*
G01*
X74953D02*
G03*
X74953Y40767I-150J0D01*
G01*
Y46736D02*
G03*
X74953Y46736I-150J0D01*
G01*
X73302D02*
G03*
X73302Y46736I-150J0D01*
G01*
X74064Y52070D02*
G03*
X74064Y52070I-150J0D01*
G01*
X71250Y50673D02*
G03*
X71250Y50673I-250J0D01*
G01*
X71150Y48260D02*
G03*
X71150Y48260I-150J0D01*
G01*
X69873Y43434D02*
G03*
X69873Y43434I-150J0D01*
G01*
Y44958D02*
G03*
X69873Y44958I-150J0D01*
G01*
X71250Y37667D02*
G03*
X71250Y37667I-250J0D01*
G01*
X71150Y35306D02*
G03*
X71150Y35306I-150J0D01*
G01*
X68857Y45720D02*
G03*
X68857Y45720I-150J0D01*
G01*
Y48006D02*
G03*
X68857Y48006I-150J0D01*
G01*
Y47244D02*
G03*
X68857Y47244I-150J0D01*
G01*
X65809Y45466D02*
G03*
X65809Y45466I-150J0D01*
G01*
X56157Y67564D02*
G03*
X56157Y67564I-150J0D01*
G01*
X57427Y67818D02*
G03*
X57427Y67818I-150J0D01*
G01*
X67206Y70620D02*
G03*
X67206Y70620I-150J0D01*
G01*
X75588Y25908D02*
G03*
X75588Y25908I-150J0D01*
G01*
X49426Y70358D02*
G03*
X49426Y70358I-150J0D01*
G01*
X59967Y69342D02*
G03*
X59967Y69342I-150J0D01*
G01*
X61683Y68766D02*
G03*
X61683Y68766I-200J0D01*
G01*
X64816Y70612D02*
G03*
X64816Y70612I-300J0D01*
G01*
X74926Y27940D02*
G03*
X74926Y27940I-250J0D01*
G01*
X47775Y72517D02*
G03*
X47775Y72517I-150J0D01*
G01*
X50061Y71882D02*
G03*
X50061Y71882I-150J0D01*
G01*
X50188Y71120D02*
G03*
X50188Y71120I-150J0D01*
G01*
X51458Y70612D02*
G03*
X51458Y70612I-150J0D01*
G01*
X51331Y72390D02*
G03*
X51331Y72390I-150J0D01*
G01*
X59205Y71755D02*
G03*
X59205Y71755I-150J0D01*
G01*
X59459Y24765D02*
G03*
X59459Y24765I-150J0D01*
G01*
X45743Y74168D02*
G03*
X45743Y74168I-150J0D01*
G01*
X48537Y74176D02*
G03*
X48537Y74176I-150J0D01*
G01*
X47648Y74168D02*
G03*
X47648Y74168I-150J0D01*
G01*
X49299Y74176D02*
G03*
X49299Y74176I-150J0D01*
G01*
X50950Y73914D02*
G03*
X50950Y73914I-150J0D01*
G01*
X55368Y72009D02*
G03*
X55368Y72009I-250J0D01*
G01*
X59459Y27305D02*
G03*
X59459Y27305I-150J0D01*
G01*
X74926Y33020D02*
G03*
X74926Y33020I-250J0D01*
G01*
X44600Y75819D02*
G03*
X44600Y75819I-150J0D01*
G01*
X46047D02*
G03*
X46047Y75819I-200J0D01*
G01*
X47902D02*
G03*
X47902Y75819I-150J0D01*
G01*
X47394Y76581D02*
G03*
X47394Y76581I-150J0D01*
G01*
X49680Y75692D02*
G03*
X49680Y75692I-150J0D01*
G01*
X51204D02*
G03*
X51204Y75692I-150J0D01*
G01*
X54252Y76327D02*
G03*
X54252Y76327I-150J0D01*
G01*
X52847Y75819D02*
G03*
X52847Y75819I-150J0D01*
G01*
X55522Y76073D02*
G03*
X55522Y76073I-150J0D01*
G01*
X61872Y28702D02*
G03*
X61872Y28702I-150J0D01*
G01*
X62761D02*
G03*
X62761Y28702I-150J0D01*
G01*
X70889Y28575D02*
G03*
X70889Y28575I-150J0D01*
G01*
X75588Y34671D02*
G03*
X75588Y34671I-150J0D01*
G01*
X46251Y77470D02*
G03*
X46251Y77470I-150J0D01*
G01*
X48537Y77089D02*
G03*
X48537Y77089I-150J0D01*
G01*
X55164Y78232D02*
G03*
X55164Y78232I-300J0D01*
G01*
X56665D02*
G03*
X56665Y78232I-150J0D01*
G01*
X66773Y28448D02*
G03*
X66773Y28448I-225J0D01*
G01*
X70127Y31369D02*
G03*
X70127Y31369I-150J0D01*
G01*
X66063Y33020D02*
G03*
X66063Y33020I-150J0D01*
G01*
X68095D02*
G03*
X68095Y33020I-150J0D01*
G01*
X40155Y12573D02*
G03*
X40155Y12573I-150J0D01*
G01*
X41044D02*
G03*
X41044Y12573I-150J0D01*
G01*
X41298Y10795D02*
G03*
X41298Y10795I-150J0D01*
G01*
X43076Y11684D02*
G03*
X43076Y11684I-150J0D01*
G01*
X42060D02*
G03*
X42060Y11684I-150J0D01*
G01*
X36819Y15386D02*
X38619D01*
X36819Y14586D02*
Y15386D01*
Y14586D02*
X38619D01*
Y15386D01*
X37719Y14636D02*
Y15336D01*
X37369Y14986D02*
X38069D01*
X42449Y75819D02*
X43149D01*
X42799Y75469D02*
Y76169D01*
X43699Y75419D02*
Y76219D01*
X41899Y75419D02*
X43699D01*
X41899D02*
Y76219D01*
X43699D01*
X40129Y61375D02*
X43129D01*
X32779Y20975D02*
X40029Y20975D01*
X43029D02*
X78129Y20975D01*
X78329Y21275D02*
X78379Y61475D01*
X41529Y40775D02*
Y41775D01*
X41029Y41275D02*
X42029D01*
X23729Y21075D02*
X23929Y61175D01*
X32879Y61375D02*
X40129D01*
X43129D02*
X50379Y61375D01*
X40029Y20975D02*
X43029D01*
X76048Y21438D02*
Y34442D01*
X78892D01*
Y21438D02*
Y34442D01*
X76048Y21438D02*
X78892D01*
X76970Y27940D02*
X77970D01*
X77470Y27440D02*
Y28440D01*
X76816Y52190D02*
X77616D01*
X77216Y51790D02*
Y52590D01*
X76316Y54090D02*
X78116D01*
Y50290D02*
Y54090D01*
X76316Y50290D02*
X78116D01*
X76316D02*
Y54090D01*
X67437Y43338D02*
Y44038D01*
X67087Y43688D02*
X67787D01*
X67037Y42788D02*
X67837D01*
X67037D02*
Y44588D01*
X67837D01*
Y42788D02*
Y44588D01*
X67437Y45878D02*
Y46578D01*
X67087Y46228D02*
X67787D01*
X67037Y45328D02*
X67837D01*
X67037D02*
Y47128D01*
X67837D01*
Y45328D02*
Y47128D01*
X72252Y23641D02*
X74052D01*
X72252Y22841D02*
Y23641D01*
Y22841D02*
X74052D01*
Y23641D01*
X73152Y22891D02*
Y23591D01*
X72802Y23241D02*
X73502D01*
X49561Y72644D02*
X50261D01*
X49911Y72294D02*
Y72994D01*
X50811Y72244D02*
Y73044D01*
X49011Y72244D02*
X50811D01*
X49011D02*
Y73044D01*
X50811D01*
X52736Y68453D02*
X53436D01*
X53086Y68103D02*
Y68803D01*
X53986Y68053D02*
Y68853D01*
X52186Y68053D02*
X53986D01*
X52186D02*
Y68853D01*
X53986D01*
X55657Y68453D02*
X56357D01*
X56007Y68103D02*
Y68803D01*
X56907Y68053D02*
Y68853D01*
X55107Y68053D02*
X56907D01*
X55107D02*
Y68853D01*
X56907D01*
X58705Y70739D02*
X59405D01*
X59055Y70389D02*
Y71089D01*
X59955Y70339D02*
Y71139D01*
X58155Y70339D02*
X59955D01*
X58155D02*
Y71139D01*
X59955D01*
X60737Y70993D02*
X61437D01*
X61087Y70643D02*
Y71343D01*
X60187Y70593D02*
Y71393D01*
X61987D01*
Y70593D02*
Y71393D01*
X60187Y70593D02*
X61987D01*
X49942Y74676D02*
X50642D01*
X50292Y74326D02*
Y75026D01*
X51192Y74276D02*
Y75076D01*
X49392Y74276D02*
X51192D01*
X49392D02*
Y75076D01*
X51192D01*
X52347Y76581D02*
X53047D01*
X52697Y76231D02*
Y76931D01*
X53597Y76181D02*
Y76981D01*
X51797Y76181D02*
X53597D01*
X51797D02*
Y76981D01*
X53597D01*
X55022Y76835D02*
X55722D01*
X55372Y76485D02*
Y77185D01*
X56272Y76435D02*
Y77235D01*
X54472Y76435D02*
X56272D01*
X54472D02*
Y77235D01*
X56272D01*
X61753Y29972D02*
X62453D01*
X62103Y29622D02*
Y30322D01*
X63003Y29572D02*
Y30372D01*
X61203Y29572D02*
X63003D01*
X61203D02*
Y30372D01*
X63003D01*
X67045Y34309D02*
X68845D01*
X67045Y33509D02*
Y34309D01*
Y33509D02*
X68845D01*
Y34309D01*
X67945Y33559D02*
Y34259D01*
X67595Y33909D02*
X68295D01*
X69839Y29991D02*
X71639D01*
X69839Y29191D02*
Y29991D01*
Y29191D02*
X71639D01*
Y29991D01*
X70739Y29241D02*
Y29941D01*
X70389Y29591D02*
X71089D01*
X47117Y12223D02*
Y12923D01*
X46767Y12573D02*
X47467D01*
X46717Y13473D02*
X47517D01*
Y11673D02*
Y13473D01*
X46717Y11673D02*
X47517D01*
X46717D02*
Y13473D01*
X73414Y49403D02*
X74414D01*
X73914Y48903D02*
Y49903D01*
X75714Y47303D02*
Y51503D01*
X72114Y47303D02*
Y51503D01*
Y47303D02*
X75714Y47303D01*
X72114Y51503D02*
X75714Y51503D01*
X69373Y46482D02*
X70073D01*
X69723Y46132D02*
Y46832D01*
X70623Y46082D02*
Y46882D01*
X68823Y46082D02*
X70623D01*
X68823D02*
Y46882D01*
X70623D01*
X71550Y39702D02*
Y43102D01*
X68150Y39702D02*
X71550D01*
X68150D02*
Y43102D01*
X71550D01*
X69850Y40902D02*
Y41902D01*
X69350Y41402D02*
X70350D01*
X71882Y41060D02*
Y41760D01*
X71532Y41410D02*
X72232D01*
X71482Y42310D02*
X72282D01*
Y40510D02*
Y42310D01*
X71482Y40510D02*
X72282D01*
X71482D02*
Y42310D01*
X68357Y44196D02*
X69057D01*
X68707Y43846D02*
Y44546D01*
X69607Y43796D02*
Y44596D01*
X67807Y43796D02*
X69607D01*
X67807D02*
Y44596D01*
X69607D01*
X73553Y21625D02*
X76053D01*
Y22825D01*
X73553D02*
X76053D01*
X73553Y21625D02*
Y22825D01*
X74803Y21725D02*
Y22725D01*
X74303Y22225D02*
X75303D01*
X65825Y44196D02*
X66525D01*
X66175Y43846D02*
Y44546D01*
X67075Y43796D02*
Y44596D01*
X65275Y43796D02*
X67075D01*
X65275D02*
Y44596D01*
X67075D01*
X54737Y67595D02*
Y68295D01*
X54387Y67945D02*
X55087D01*
X54337Y67045D02*
X55137D01*
X54337D02*
Y68845D01*
X55137D01*
Y67045D02*
Y68845D01*
X72906Y25400D02*
X73906D01*
X73406Y24900D02*
Y25900D01*
X71706Y23700D02*
X75106D01*
Y27100D01*
X71706D02*
X75106D01*
X71706Y23700D02*
Y27100D01*
X50546Y69500D02*
Y70200D01*
X50196Y69850D02*
X50896D01*
X50146Y68950D02*
X50946D01*
X50146D02*
Y70750D01*
X50946D01*
Y68950D02*
Y70750D01*
X46863Y72167D02*
Y72867D01*
X46513Y72517D02*
X47213D01*
X46463Y73417D02*
X47263D01*
Y71617D02*
Y73417D01*
X46463Y71617D02*
X47263D01*
X46463D02*
Y73417D01*
X48641Y71278D02*
Y71978D01*
X48291Y71628D02*
X48991D01*
X48241Y72528D02*
X49041D01*
Y70728D02*
Y72528D01*
X48241Y70728D02*
X49041D01*
X48241D02*
Y72528D01*
X60714Y25928D02*
X61714D01*
X61214Y25428D02*
Y26428D01*
X60214Y24028D02*
X62214D01*
X60214D02*
Y27828D01*
X62214D01*
Y24028D02*
Y27828D01*
X46482Y73818D02*
Y74518D01*
X46132Y74168D02*
X46832D01*
X46082Y73268D02*
X46882D01*
X46082D02*
Y75068D01*
X46882D01*
Y73268D02*
Y75068D01*
X63119Y25296D02*
Y25996D01*
X62769Y25646D02*
X63469D01*
X62719Y26546D02*
X63519D01*
Y24746D02*
Y26546D01*
X62719Y24746D02*
X63519D01*
X62719D02*
Y26546D01*
X70866Y31019D02*
Y31719D01*
X70516Y31369D02*
X71216D01*
X70466Y30469D02*
X71266D01*
X70466D02*
Y32269D01*
X71266D01*
Y30469D02*
Y32269D01*
X36819Y14624D02*
X38619D01*
X36819Y13824D02*
Y14624D01*
Y13824D02*
X38619D01*
Y14624D01*
X37719Y13874D02*
Y14574D01*
X37369Y14224D02*
X38069D01*
X77050Y46500D02*
X83800D01*
X77050Y37500D02*
Y46500D01*
Y37500D02*
X83800D01*
Y46500D01*
X80800Y41500D02*
Y42500D01*
X80300Y42000D02*
X81300D01*
X75469Y38608D02*
X76169D01*
X75819Y38258D02*
Y38958D01*
X74919Y38208D02*
Y39008D01*
X76719D01*
Y38208D02*
Y39008D01*
X74919Y38208D02*
X76719D01*
X76327Y43592D02*
Y44292D01*
X75977Y43942D02*
X76677D01*
X75927Y43042D02*
X76727D01*
X75927D02*
Y44842D01*
X76727D01*
Y43042D02*
Y44842D01*
X72802Y40767D02*
X73502D01*
X73152Y40417D02*
Y41117D01*
X72252Y40367D02*
Y41167D01*
X74052D01*
Y40367D02*
Y41167D01*
X72252Y40367D02*
X74052D01*
X74453Y40767D02*
X75153D01*
X74803Y40417D02*
Y41117D01*
X75703Y40367D02*
Y41167D01*
X73903Y40367D02*
X75703D01*
X73903D02*
Y41167D01*
X75703D01*
X74453Y46736D02*
X75153D01*
X74803Y46386D02*
Y47086D01*
X73903Y46336D02*
Y47136D01*
X75703D01*
Y46336D02*
Y47136D01*
X73903Y46336D02*
X75703D01*
X72802Y46736D02*
X73502D01*
X73152Y46386D02*
Y47086D01*
X72252Y46336D02*
Y47136D01*
X74052D01*
Y46336D02*
Y47136D01*
X72252Y46336D02*
X74052D01*
X73564Y52070D02*
X74264D01*
X73914Y51720D02*
Y52420D01*
X73014Y51670D02*
Y52470D01*
X74814D01*
Y51670D02*
Y52470D01*
X73014Y51670D02*
X74814D01*
X70500Y49423D02*
X71500D01*
X70500D02*
Y51923D01*
X71500D01*
Y49423D02*
Y51923D01*
X71000Y50173D02*
Y51173D01*
X70500Y50673D02*
X71500D01*
X71000Y47910D02*
Y48610D01*
X70650Y48260D02*
X71350D01*
X70600Y47360D02*
X71400D01*
X70600D02*
Y49160D01*
X71400D01*
Y47360D02*
Y49160D01*
X69373Y43434D02*
X70073D01*
X69723Y43084D02*
Y43784D01*
X68823Y43034D02*
Y43834D01*
X70623D01*
Y43034D02*
Y43834D01*
X68823Y43034D02*
X70623D01*
X69373Y44958D02*
X70073D01*
X69723Y44608D02*
Y45308D01*
X70623Y44558D02*
Y45358D01*
X68823Y44558D02*
X70623D01*
X68823D02*
Y45358D01*
X70623D01*
X70500Y36417D02*
X71500D01*
X70500D02*
Y38917D01*
X71500D01*
Y36417D02*
Y38917D01*
X71000Y37167D02*
Y38167D01*
X70500Y37667D02*
X71500D01*
X70600Y34406D02*
Y36206D01*
Y34406D02*
X71400D01*
Y36206D01*
X70600D02*
X71400D01*
X70650Y35306D02*
X71350D01*
X71000Y34956D02*
Y35656D01*
X68357Y45720D02*
X69057D01*
X68707Y45370D02*
Y46070D01*
X69607Y45320D02*
Y46120D01*
X67807Y45320D02*
X69607D01*
X67807D02*
Y46120D01*
X69607D01*
X67807Y47606D02*
X69607D01*
Y48406D01*
X67807D02*
X69607D01*
X67807Y47606D02*
Y48406D01*
X68707Y47656D02*
Y48356D01*
X68357Y48006D02*
X69057D01*
X68357Y47244D02*
X69057D01*
X68707Y46894D02*
Y47594D01*
X69607Y46844D02*
Y47644D01*
X67807Y46844D02*
X69607D01*
X67807D02*
Y47644D01*
X69607D01*
X65659Y45116D02*
Y45816D01*
X65309Y45466D02*
X66009D01*
X65259Y46366D02*
X66059D01*
Y44566D02*
Y46366D01*
X65259Y44566D02*
X66059D01*
X65259D02*
Y46366D01*
X55657Y67564D02*
X56357D01*
X56007Y67214D02*
Y67914D01*
X55107Y67164D02*
Y67964D01*
X56907D01*
Y67164D02*
Y67964D01*
X55107Y67164D02*
X56907D01*
X57277Y67468D02*
Y68168D01*
X56927Y67818D02*
X57627D01*
X56877Y68718D02*
X57677D01*
Y66918D02*
Y68718D01*
X56877Y66918D02*
X57677D01*
X56877D02*
Y68718D01*
X57842Y68275D02*
X60442D01*
X57842Y66125D02*
Y68275D01*
Y66125D02*
X60442D01*
Y68275D01*
X67056Y70270D02*
Y70970D01*
X66706Y70620D02*
X67406D01*
X66656Y69720D02*
X67456D01*
X66656D02*
Y71520D01*
X67456D01*
Y69720D02*
Y71520D01*
X75838Y25008D02*
Y26808D01*
X75038D02*
X75838D01*
X75038Y25008D02*
Y26808D01*
Y25008D02*
X75838D01*
X75088Y25908D02*
X75788D01*
X75438Y25558D02*
Y26258D01*
X48926Y70358D02*
X49626D01*
X49276Y70008D02*
Y70708D01*
X50176Y69958D02*
Y70758D01*
X48376Y69958D02*
X50176D01*
X48376D02*
Y70758D01*
X50176D01*
X59817Y68992D02*
Y69692D01*
X59467Y69342D02*
X60167D01*
X59417Y70242D02*
X60217D01*
Y68442D02*
Y70242D01*
X59417Y68442D02*
X60217D01*
X59417D02*
Y70242D01*
X60183Y67066D02*
X62783D01*
Y70466D01*
X60183D02*
X62783D01*
X60183Y67066D02*
Y70466D01*
X61483Y68266D02*
Y69266D01*
X60983Y68766D02*
X61983D01*
X66241Y69262D02*
Y71962D01*
X62791Y69262D02*
Y71962D01*
X66241D01*
X62791Y69262D02*
X66241D01*
X64016Y70612D02*
X65016D01*
X64516Y70112D02*
Y71112D01*
X73426Y27340D02*
X75926D01*
Y28540D01*
X73426D02*
X75926D01*
X73426Y27340D02*
Y28540D01*
X74676Y27440D02*
Y28440D01*
X74176Y27940D02*
X75176D01*
X47625Y72167D02*
Y72867D01*
X47275Y72517D02*
X47975D01*
X47225Y71617D02*
X48025D01*
X47225D02*
Y73417D01*
X48025D01*
Y71617D02*
Y73417D01*
X49561Y71882D02*
X50261D01*
X49911Y71532D02*
Y72232D01*
X49011Y71482D02*
Y72282D01*
X50811D01*
Y71482D02*
Y72282D01*
X49011Y71482D02*
X50811D01*
X49688Y71120D02*
X50388D01*
X50038Y70770D02*
Y71470D01*
X50938Y70720D02*
Y71520D01*
X49138Y70720D02*
X50938D01*
X49138D02*
Y71520D01*
X50938D01*
X51308Y70262D02*
Y70962D01*
X50958Y70612D02*
X51658D01*
X50908Y71512D02*
X51708D01*
Y69712D02*
Y71512D01*
X50908Y69712D02*
X51708D01*
X50908D02*
Y71512D01*
X51181Y72040D02*
Y72740D01*
X50831Y72390D02*
X51531D01*
X50781Y73290D02*
X51581D01*
Y71490D02*
Y73290D01*
X50781Y71490D02*
X51581D01*
X50781D02*
Y73290D01*
X58705Y71755D02*
X59405D01*
X59055Y71405D02*
Y72105D01*
X59955Y71355D02*
Y72155D01*
X58155Y71355D02*
X59955D01*
X58155D02*
Y72155D01*
X59955D01*
X58959Y24765D02*
X59659D01*
X59309Y24415D02*
Y25115D01*
X60209Y24365D02*
Y25165D01*
X58409Y24365D02*
X60209D01*
X58409D02*
Y25165D01*
X60209D01*
X45593Y73818D02*
Y74518D01*
X45243Y74168D02*
X45943D01*
X45193Y73268D02*
X45993D01*
X45193D02*
Y75068D01*
X45993D01*
Y73268D02*
Y75068D01*
X48387Y73826D02*
Y74526D01*
X48037Y74176D02*
X48737D01*
X47987Y73276D02*
X48787D01*
X47987D02*
Y75076D01*
X48787D01*
Y73276D02*
Y75076D01*
X47498Y73818D02*
Y74518D01*
X47148Y74168D02*
X47848D01*
X47098Y75068D02*
X47898D01*
Y73268D02*
Y75068D01*
X47098Y73268D02*
X47898D01*
X47098D02*
Y75068D01*
X49149Y73826D02*
Y74526D01*
X48799Y74176D02*
X49499D01*
X48749Y75076D02*
X49549D01*
Y73276D02*
Y75076D01*
X48749Y73276D02*
X49549D01*
X48749D02*
Y75076D01*
X50450Y73914D02*
X51150D01*
X50800Y73564D02*
Y74264D01*
X51700Y73514D02*
Y74314D01*
X49900Y73514D02*
X51700D01*
X49900D02*
Y74314D01*
X51700D01*
X55118Y71509D02*
Y72509D01*
X54618Y72009D02*
X55618D01*
X52218Y74909D02*
X58018D01*
X52218Y69109D02*
X58018D01*
X52218D02*
Y74909D01*
X58018Y69109D02*
Y74909D01*
X58959Y27305D02*
X59659D01*
X59309Y26955D02*
Y27655D01*
X60209Y26905D02*
Y27705D01*
X58409Y26905D02*
X60209D01*
X58409D02*
Y27705D01*
X60209D01*
X73426Y33620D02*
X75926D01*
X73426Y32420D02*
Y33620D01*
Y32420D02*
X75926D01*
Y33620D01*
X74676Y32520D02*
Y33520D01*
X74176Y33020D02*
X75176D01*
X44100Y75819D02*
X44800D01*
X44450Y75469D02*
Y76169D01*
X45350Y75419D02*
Y76219D01*
X43550Y75419D02*
X45350D01*
X43550D02*
Y76219D01*
X45350D01*
X45347Y75819D02*
X46347D01*
X45847Y75319D02*
Y76319D01*
X45347Y75119D02*
X46347D01*
X45347Y76519D02*
X46347D01*
X45347Y75119D02*
Y76519D01*
X46347Y75119D02*
Y76519D01*
X47402Y75819D02*
X48102D01*
X47752Y75469D02*
Y76169D01*
X48652Y75419D02*
Y76219D01*
X46852Y75419D02*
X48652D01*
X46852D02*
Y76219D01*
X48652D01*
X46894Y76581D02*
X47594D01*
X47244Y76231D02*
Y76931D01*
X48144Y76181D02*
Y76981D01*
X46344Y76181D02*
X48144D01*
X46344D02*
Y76981D01*
X48144D01*
X49180Y75692D02*
X49880D01*
X49530Y75342D02*
Y76042D01*
X50430Y75292D02*
Y76092D01*
X48630Y75292D02*
X50430D01*
X48630D02*
Y76092D01*
X50430D01*
X50704Y75692D02*
X51404D01*
X51054Y75342D02*
Y76042D01*
X51954Y75292D02*
Y76092D01*
X50154Y75292D02*
X51954D01*
X50154D02*
Y76092D01*
X51954D01*
X54102Y75977D02*
Y76677D01*
X53752Y76327D02*
X54452D01*
X53702Y77227D02*
X54502D01*
Y75427D02*
Y77227D01*
X53702Y75427D02*
X54502D01*
X53702D02*
Y77227D01*
X52347Y75819D02*
X53047D01*
X52697Y75469D02*
Y76169D01*
X51797Y75419D02*
Y76219D01*
X53597D01*
Y75419D02*
Y76219D01*
X51797Y75419D02*
X53597D01*
X55022Y76073D02*
X55722D01*
X55372Y75723D02*
Y76423D01*
X56272Y75673D02*
Y76473D01*
X54472Y75673D02*
X56272D01*
X54472D02*
Y76473D01*
X56272D01*
X61722Y28352D02*
Y29052D01*
X61372Y28702D02*
X62072D01*
X61322Y27802D02*
X62122D01*
X61322D02*
Y29602D01*
X62122D01*
Y27802D02*
Y29602D01*
X62611Y28352D02*
Y29052D01*
X62261Y28702D02*
X62961D01*
X62211Y29602D02*
X63011D01*
Y27802D02*
Y29602D01*
X62211Y27802D02*
X63011D01*
X62211D02*
Y29602D01*
X69839Y28975D02*
X71639D01*
X69839Y28175D02*
Y28975D01*
Y28175D02*
X71639D01*
Y28975D01*
X70739Y28225D02*
Y28925D01*
X70389Y28575D02*
X71089D01*
X75038Y33771D02*
Y35571D01*
Y33771D02*
X75838D01*
Y35571D01*
X75038D02*
X75838D01*
X75088Y34671D02*
X75788D01*
X75438Y34321D02*
Y35021D01*
X45751Y77470D02*
X46451D01*
X46101Y77120D02*
Y77820D01*
X45201Y77070D02*
Y77870D01*
X47001D01*
Y77070D02*
Y77870D01*
X45201Y77070D02*
X47001D01*
X48387Y76739D02*
Y77439D01*
X48037Y77089D02*
X48737D01*
X47987Y77989D02*
X48787D01*
Y76189D02*
Y77989D01*
X47987Y76189D02*
X48787D01*
X47987D02*
Y77989D01*
X55964Y77232D02*
Y79232D01*
X53764Y77232D02*
Y79232D01*
X55964D01*
X53764Y77232D02*
X55964D01*
X54364Y78232D02*
X55364D01*
X54864Y77732D02*
Y78732D01*
X56515Y77882D02*
Y78582D01*
X56165Y78232D02*
X56865D01*
X56115Y77332D02*
X56915D01*
X56115D02*
Y79132D01*
X56915D01*
Y77332D02*
Y79132D01*
X63448Y25348D02*
Y31548D01*
X69648Y25348D02*
Y31548D01*
X63448Y25348D02*
X69648D01*
X63448Y31548D02*
X69648D01*
X66048Y28448D02*
X67048D01*
X66548Y27948D02*
Y28948D01*
X69977Y31019D02*
Y31719D01*
X69627Y31369D02*
X70327D01*
X69577Y30469D02*
X70377D01*
X69577D02*
Y32269D01*
X70377D01*
Y30469D02*
Y32269D01*
X65013Y33420D02*
X66813D01*
X65013Y32620D02*
Y33420D01*
Y32620D02*
X66813D01*
Y33420D01*
X65913Y32670D02*
Y33370D01*
X65563Y33020D02*
X66263D01*
X67045Y33420D02*
X68845D01*
X67045Y32620D02*
Y33420D01*
Y32620D02*
X68845D01*
Y33420D01*
X67945Y32670D02*
Y33370D01*
X67595Y33020D02*
X68295D01*
X40005Y12223D02*
Y12923D01*
X39655Y12573D02*
X40355D01*
X39605Y11673D02*
X40405D01*
X39605D02*
Y13473D01*
X40405D01*
Y11673D02*
Y13473D01*
X40894Y12223D02*
Y12923D01*
X40544Y12573D02*
X41244D01*
X40494Y11673D02*
X41294D01*
X40494D02*
Y13473D01*
X41294D01*
Y11673D02*
Y13473D01*
X41148Y10445D02*
Y11145D01*
X40798Y10795D02*
X41498D01*
X40748Y9895D02*
X41548D01*
X40748D02*
Y11695D01*
X41548D01*
Y9895D02*
Y11695D01*
X43326Y10784D02*
Y12584D01*
X42526D02*
X43326D01*
X42526Y10784D02*
Y12584D01*
Y10784D02*
X43326D01*
X42576Y11684D02*
X43276D01*
X42926Y11334D02*
Y12034D01*
X42310Y10784D02*
Y12584D01*
X41510D02*
X42310D01*
X41510Y10784D02*
Y12584D01*
Y10784D02*
X42310D01*
X41560Y11684D02*
X42260D01*
X41910Y11334D02*
Y12034D01*
M02*
