M48
;Layer_Color=9474304
;FILE_FORMAT=4:3
METRIC,LZ
;TYPE=PLATED
T1F00S00C0.300
T2F00S00C1.000
T4F00S00C1.100
%
T01
X00345Y0002
X00355
X00365
X00375
X00385
X00395
X0039Y0003
X0038
X0037
X00375Y0004
X00385
X00395
X0039Y0005
X0038
X0037
X0036
X0035
X0034
X00345Y0006
X00355
X00365
X00375
X00385
X00395
X00365Y0004
X00345
X0034Y0003
X0039Y0001
X0039236Y0011045
X003639Y0011047
X0036957Y0010287
X0037723Y0012956
X0036199Y0014353
X0041406Y0012321
X0041021Y001016
X00405Y0006
X004Y0005
X00405Y0004
X004Y0003
X0041
X0042
X00425Y0002
X00435
X00445
X00455
X00465
X00475
X00485
X00495
X00505
X00515
X0051Y0003
X0052
X0053
X0054
X0055
X00555Y0004
X00565
X00575
X0057Y0005
X0058
X0059
X006
X00605Y0006
X00615
X0061Y0007
X0062
X0063
X00635Y0008
X00645
X0064Y0009
X0065
X0066
X00665Y001
X00675
X0067Y0011
X0068
X0069
X00695Y0012
X00685
X00675
X00665
X00655
X00645
X00635
X00625
X00615
X0061Y0011
X0062
X0063
X0064
X0065
X0066
X00655Y001
X00645
X00635
X00625
X00615
X00605
X00595
X0059Y0009
X006
X0061
X0062
X0063
X00625Y0008
X00615
X00605
X00595
X00585
X00575
X00565
X0056Y0007
X0057
X0058
X0059
X006
X00595Y0006
X00585
X00575
X00565
X00555
X00545
X0054Y0005
X0055
X0056
X00545Y0004
X00535
X00525
X0053Y0005
X0054Y0011
X00545Y0012
X00535
X0054Y0013
X0055
X0056
X00565Y0014
X00555
X00545
X0055Y0015
X0056
X0057
X00565Y0016
X00555
X0055Y0017
X0056
X0057
X00565Y0018
X00555
X0056Y0019
X0057
X00565Y002
X0057Y0021
X00565Y0022
X0056824Y0023687
X0057105Y0024516
X00545Y0024
X00535
X00525
X00515
X00505
X00495
X00485
X00475
X00465
X00455
X00445
X00435
X0044Y0025
X0045
X0046
X0047
X0048
X0049
X005
X0051
X0052
X0053
X0054
X00535Y0026
X00525
X00515
X00505
X00495
X00485
X00475
X00465
X00455
X00445
X00435
X0044Y0027
X0045
X0046
X0047
X0048
X0049
X005
X0051
X0052
X0053
X0054
X00535Y0028
X00525
X00515
X00505
X00495
X00485
X00475
X00465
X00455
X00445
X00435
X0044Y0029
X0045
X0046
X0047
X0048
X0049
X005
X0051
X0052
X0053
X0054
X0054864Y0029337
X005588Y0029464
X0057Y0031
X00575Y0032
Y0034
X0058Y0035
X00585Y0036
X00575
X0058Y0037
X0059
X00595Y0038
X00585
X0058Y0039
X0059
X006
X0062
Y0037
X00615Y0036
X0061Y0035
X0062
X00615Y0034
X00605
X006Y0033
X0061
X0062
X00605Y0032
X0060329Y0028704
X00605Y0026
X00615
X00595
X0059711Y0023307
X0059063Y0022838
X00595Y0022
X00605
X006Y0021
X0059
X00595Y002
X00605
X006Y0019
X0061
X00615Y0018
X00605
X00595
X0059Y0019
Y0017
X006
X0061
X0062
X00615Y0016
X00605
X00595
X0059Y0015
X006
X00595Y0014
X0063Y0013
X0064
X0065
X0066
X0067
X0068
X0069
X007
X0071
X00715Y0014
X00705
X00695
X00685
X00675
X00665
X00655
X00645
X0065Y0015
X0066
X0067
X0068
X0069
X007
X0071
X0072
X0073
X00735Y0016
X00725
X00715
X00705
X00695
X00685
X00675
X00665
X0068Y0017
X0069
X007
X0071
X0072
X00715Y0018
X00705
X00695
X00685
Y002
X00705
X00715
X00725
X00735
X00745
X00755
X00765
X0076Y0021
X0077
X0075
X0074
X0073
X0072
Y0019
X0073
X0074
X0075
X0076
X00745Y0018
X0074Y0017
X0071Y0019
X007
X00705Y0022
X0069727Y0023497
X0070145Y0024372
X0067308Y0024993
X0067568Y0022862
X00665Y0022
X0065532Y0023241
X0063123Y0024259
X0064122Y0025944
X0065448Y0027348
X0066548
X0067648
Y0028448
X0066548
X0065448
Y0029548
X0066548
X0067648
X0069223Y0030812
X0069092Y0031625
X00695Y0034
X00705
X007Y0035
X0069
X0069981Y0036197
X00695Y0038
X00685
X00675
X00665
X0066Y0039
X0067
X0068
X0069
X007
X0072
X0072013Y0036451
X0072Y0035
X00725Y0034
X00745
X0077Y0035
X0078
X00775Y0036
X00765
X0076Y0037
X0077
X0077982Y0036959
X007341Y0037213
X0068Y0037
X0067
X0066
X00665Y0036
X0066Y0035
X00645Y0036
X0065001Y003182
X0064173Y0030767
X0063119Y0028956
X0063183Y0028128
X0069906Y002765
X0070358Y0030099
X0071989Y002924
X0072501Y0030896
X0072665Y002715
X0073791Y0026291
X0073029Y0025402
X0076246Y0026337
X0074531Y0028997
X0075Y0023
X0054
X0053
X0052
X0051
X005
X0049
X0048
X0047
X0046
X0045
X0044
X00445Y0022
X00455
X00465
X00475
X00485
X00495
X00505
X00515
X00525
X00535
X0053Y0021
X0052
X0051
X005
X0049
X0048
X0047
X0046
X0045
X0044
X00435Y0022
Y003
X00445
X00455
X00465
X00475
X00485
X00495
X00505
X00515
X00525
X00535
X0053Y0031
X0054
X00545Y0032
X00535
X00525
X00515
X00505
X00495
X00485
X00475
X00465
X00455
X00445
X00435
X0044Y0033
X0045
X0046
X0047
X0048
X0049
X005
X0051
X0052
X0053
X0054
X00545Y0034
X00535
X00525
X00515
X00505
X00495
X00485
X00475
X00465
X00455
X00445
X00435
X0044Y0035
X0045
X0046
X0047
X0048
X0049
X005
X0051
X0052
X0053
X0054
X00545Y0036
X00535
X00525
X00515
X00505
X00495
X00485
X00475
X00465
X00455
X00445
X00435
X0044Y0037
X0045
X0046
X0047
X0048
X0049
X005
X0051
X0052
X0053
X0054
X0055
X00545Y0038
X00535
X00525
X00515
X00505
X00495
X00485
X00475
X00465
X00455
X00445
X00435
X0044Y0039
X0045
X0046
X0047
X0048
X0049
X005
X0051
X0052
X0053
X0054
X0055
X0052Y0031
X0051
X005
X0049
X0048
X0047
X0046
X0045
X0044
X005563Y0026799
X00535Y002
X00525
X00515
X00505
X0052Y0019
X0053
X00525Y0018
X00515
X0052Y0017
X00515Y0016
X0052Y0015
X00515Y0014
X0047248Y0014734
X0046359Y0013464
X0044245Y0013529
X0044592Y0012349
X00451Y0011206
X0046482Y0010541
X0047498Y0010668
X0044704Y000635
X0045Y0001
X0044
X0043
X0042
X0041
X004
X00405Y0002
X00415
X0058Y0009
X00795Y0026
X008Y0027
X00805Y0028
X0081Y0029
X008103Y0030482
X00815Y0032
X0082Y0033
X00795Y0034
X008Y0035
X00805Y0036
X00795
X008Y0037
X0079379Y0039753
Y0042039
X0079506Y0046611
X00795Y005
X008Y0053
X00795Y0054
X0079Y0053
X0076
X0075
X00755Y0052
X0074965Y0049597
X0075693Y0047889
X0078Y0047
X00785Y005
X0073057Y0049057
X00725Y0052
X0072Y0053
X0073
X00725Y0054
X00715
X0071Y0053
X00695Y0052
X0069Y0051
X00685Y005
X0068246Y0048785
X0065863Y0047396
X0064904Y0046022
X0067Y0045
X00675Y0042
X00665
X0067Y0041
X00675Y004
X00685
X00695
X00665
X00595
X00585
X0059Y0041
X006
X00605Y0042
X00595
X00585
X0059Y0043
X006
X0061
X00615Y0044
X00605
X00595
X00585
X0059Y0045
X006
X0061
X0062
X00615Y0046
X00605
X00595
X0059Y0047
X006
X0061
X0062
X00615Y0048
X00605
X00595
X006Y0049
X0061
X0062
X00615Y005
X00605
X00595
X006Y0051
X0061
X0062
X00615Y0052
X00605
X00595
X006Y0053
X0061
X0062
X00615Y0054
X00605
X006Y0055
X0061
X0062
X00625Y0056
X00615
X00605
X0061Y0057
X0062
X0063
X00635Y0058
X00645
X0064Y0059
X0065
X00655Y006
X00645
X00635
X00625
X00615
X00605
X0061Y0061
X0062
Y0059
X0063
X00625Y0058
X00615
X00605
X0061Y0059
X0057
X0056
X0055
X0054
X0053
X0052
X0051
X005
X0049
X0048
X0047
X0046
X0045
X0044
X00445Y006
X00455
X00465
X00475
X00485
X00495
X00505
X00515
X00525
X00535
X00545
X00555
X00565
X00575
X0057Y0061
X0058
X00575Y0062
X00565
X00555
X00545
X00535
X00525
X00515
X00505
X00495
X00485
X00475
X00465
X00455
X00445
X00435
X0044Y0063
X0045
X0046
X0047
X0048
X0049
X005
X0051
X0052
X0053
X0054
X0055
X0056
X0057
X0058
X00585Y0064
X00575
X00565
X00555
X00545
X00535
X00525
X00515
X00505
X00495
X00485
X00475
X00465
X00455
X00445
X00435
X0044Y0065
X0045
X0046
X0047
X0048
X0049
X005
X0051
X0052
X0053
X0054
X0055
X0056
X00535Y0066
X00525
X00515
X00505
X00495
X00485
X00475
X00465
X00455
X00445
X00435
X0044Y0067
X0045
X0046
X0047
X0048
X0049
X005
X0051
X0052
X0052562Y0069605
X0053818Y0070709
X0055118
X0056418
Y0072009
Y0073309
X0055118
X0053818
Y0072009
X0055118
X0051963Y0071758
X004928Y0071884
X0049534Y0073535
X0051583Y0074535
X0051418Y0076623
X005Y0077
X00505Y0078
X00495
X0048391Y0078234
X0047456Y0077385
X00445Y0078
X00435
X0044Y0079
X0045
X0044Y0077
Y0075
X00435Y0074
X0044Y0073
X00435Y0072
X0044Y0071
X0045
X00455Y007
X00445
X00435
X0044Y0069
X0045
X0046
X00465Y0068
X00475
X00455
X00445
X00435
X0047883Y0070233
X0047121Y0071122
X0045927Y0072749
X0049534Y0069471
X0055774Y0068974
X0059Y0069
X0058469Y006995
X0059055Y0072498
X0060898Y0071783
X0063246Y0071501
X0063377Y0069725
X00645Y0068
X0064Y0067
X00655Y0066
X0066Y0065
Y0061
X0065
X0071
X0072
X0073
X00735Y0062
X00745
X0074Y0063
X0075
X0076
X0077
X00765Y0064
X00755
X00745
X00735
X00725
X00715
X00705
X0071Y0065
X0072
X0073
X0074
X0075
X0076
X00745Y0066
X00735
X00725
X00715
X00705
X0071Y0067
X0072
X0073
X0074
X00735Y0068
X00725
X00715
X00705
X007Y0069
X0071
X0072
X0073
X00715Y007
X00705
X00695
X007Y0071
X0071
X00695Y0072
X00685
X0068Y0073
X0069
X00675Y0074
X00665
X0066Y0075
X0065
X00645Y0076
X00635
X00625
X00615
X00605
X00595
X00585
X00575
X0057404Y0075057
X0058Y0077
X0059
X006
X0061
X0062
X0063
X00615Y0078
X00605
X00595
X00585
X0058Y0079
X0059
X006
X0054614Y0079123
X0054106Y0077472
X0052709Y0077599
X0056011Y0077472
X0054836Y0075295
X0063111Y0074204
X0065Y0073
X0066298Y0072011
X0071Y0063
X0072
X0073
X00725Y0062
X00715
X00705
X00715Y006
X0072Y0059
X007
X00705Y0058
X00695
X007Y0057
X0071
X00695Y0056
X0069Y0055
X00685Y0054
X0068Y0053
X00675Y0052
X0064Y0053
Y0055
X0057
X0056
X0055
X0054
X0053
X0052
X0051
X005
X0049
X0048
X0047
X0046
X0045
X0044
X00445Y0056
X00455
X00465
X00475
X00485
X00495
X00505
X00515
X00525
X00535
X00545
X00555
X00565
X00575
X0057Y0057
X0056
X0055
X0054
X0053
X0052
X0051
X005
X0049
X0048
X0047
X0046
X0045
X0044
X00445Y0058
X00455
X00465
X00475
X00485
X00495
X00505
X00515
X00525
X00535
X00545
X00555
X00565
X00575
X0056Y0061
X0055
X0054
X0053
X0052
X0051
X005
X0049
X0048
X0047
X0046
X0045
X0044
X00435Y006
Y0058
Y0056
Y0054
X00445
X00455
X00465
X00475
X00485
X00495
X00505
X00515
X00525
X00535
X00545
X00555
X00565
X0056Y0053
X0057
X00565Y0052
X00555
X00545
X00535
X00525
X00515
X00505
X00495
X00485
X00475
X00465
X00455
X00445
X00435
X0044Y0053
X0045
X0046
X0047
X0048
X0049
X005
X0051
X0052
X0053
X0054
X0055
Y0051
X0056
X00565Y005
X00555
X00545
X00535
X00525
X00515
X00505
X00495
X00485
X00475
X00465
X00455
X00445
X00435
X0044Y0051
X0045
X0046
X0047
X0048
X0049
X005
X0051
X0052
X0053
X0054
Y0049
X0055
X0056
X00565Y0048
X00555
X00545
X00535
X00525
X00515
X00505
X00495
X00485
X00475
X00465
X00455
X00445
X00435
X0044Y0049
X0045
X0046
X0047
X0048
X0049
X005
X0051
X0052
X0053
Y0047
X0054
X0055
X0056
X00555Y0046
X00545
X00535
X00525
X00515
X00505
X00495
X00485
X00475
X00465
X00455
X00445
X00435
X0044Y0047
X0045
X0046
X0047
X0048
X0049
X005
X0051
X0052
Y0045
X0053
X0054
X0055
X0056
X00555Y0044
X00545
X00535
X00525
X00515
X00505
X00495
X00485
X00475
X00465
X00455
X00445
X00435
X0044Y0045
X0045
X0046
X0047
X0048
X0049
X005
X0051
Y0043
X0052
X0053
X0054
X0055
X00555Y0042
X00545
X00535
X00525
X00515
X00505
X00495
X00485
X00475
X00465
X00455
X00445
X00435
X0044Y0043
X0045
X0046
X0047
X0048
X0049
X005
Y0041
X0051
X0052
X0053
X0054
X0055
X00555Y004
X00545
X00535
X00525
X00515
X00505
X00495
X00485
X00475
X00465
X00455
X00445
X00435
X0044Y0041
X0045
X0046
X0047
X0048
X0049
X0070235Y0044198
Y0045722
X0070993Y004699
X0071418Y0043181
X0072379Y0043173
X0074752Y004339
X0076839Y0042547
X0077156Y0043954
X0079252Y0043944
X0076003Y0041661
X0076966Y0039753
X0072Y0055
X00575Y008
X00565
X00555
X00545
X00535
X00525
X00515
X00505
X00495
X00485
X00475
X00465
X00455
X00445
X00435
X0044Y0081
X0045
X0046
X0047
X0048
X0049
X005
X0051
X0052
X0053
X0054
X0055
X00515Y0082
X00505
X00495
X00485
X00475
X00465
X00455
X00445
T02
X007747Y002286
Y00254
Y002794
Y003048
Y003302
T04
X0074676Y003048
M30
