G04*
G04 #@! TF.GenerationSoftware,Altium Limited,Altium Designer,20.2.6 (244)*
G04*
G04 Layer_Color=16711935*
%FSLAX43Y43*%
%MOMM*%
G71*
G04*
G04 #@! TF.SameCoordinates,C84C0C97-952F-48A7-9790-35694251DD82*
G04*
G04*
G04 #@! TF.FilePolarity,Positive*
G04*
G01*
G75*
%ADD18C,0.203*%
%ADD59C,0.300*%
%ADD90C,0.100*%
%ADD93C,0.127*%
G36*
X73341Y42711D02*
X72841D01*
Y42061D01*
X73341D01*
Y42711D01*
D02*
G37*
G36*
X74291D02*
X73791D01*
Y42061D01*
X74291D01*
Y42711D01*
D02*
G37*
G36*
X75241D02*
X74741D01*
Y42061D01*
X75241D01*
Y42711D01*
D02*
G37*
G36*
X73341Y45061D02*
X72841D01*
Y44411D01*
X73341D01*
Y45061D01*
D02*
G37*
G36*
X74291D02*
X73791D01*
Y44411D01*
X74291D01*
Y45061D01*
D02*
G37*
G36*
X75241D02*
X74741D01*
Y44411D01*
X75241D01*
Y45061D01*
D02*
G37*
D18*
X44989Y11691D02*
G03*
X44711Y11969I223J501D01*
G01*
X43987Y13417D02*
X46437D01*
Y10967D02*
Y13417D01*
X43987Y10967D02*
X46437D01*
X43987D02*
Y13417D01*
X44787Y11492D02*
X44987Y11692D01*
X44512Y11767D02*
X44787Y11492D01*
X44512Y11767D02*
X44687Y11942D01*
D59*
X79388Y53089D02*
G03*
X79388Y53089I-141J0D01*
G01*
D90*
X72982Y43561D02*
G03*
X72982Y43561I-141J0D01*
G01*
X73406Y29210D02*
Y31750D01*
Y29210D02*
X75946D01*
Y31750D01*
X73406D02*
X75946D01*
X72516Y44436D02*
X75566D01*
X72516Y42686D02*
X75566D01*
Y44436D01*
X72516Y42686D02*
Y44436D01*
X36469Y10815D02*
X38969D01*
X36469Y13315D02*
X38969D01*
Y10815D02*
Y13315D01*
X36469Y10815D02*
Y13315D01*
D93*
X78597Y48139D02*
Y51639D01*
Y48139D02*
X82147D01*
Y51639D01*
X78597D02*
X82147D01*
M02*
