G04*
G04 #@! TF.GenerationSoftware,Altium Limited,Altium Designer,20.2.6 (244)*
G04*
G04 Layer_Color=16711935*
%FSLAX43Y43*%
%MOMM*%
G71*
G04*
G04 #@! TF.SameCoordinates,C84C0C97-952F-48A7-9790-35694251DD82*
G04*
G04*
G04 #@! TF.FilePolarity,Negative*
G04*
G01*
G75*
%ADD10O,2.803X1.803*%
G04:AMPARAMS|DCode=11|XSize=2.803mm|YSize=1.803mm|CornerRadius=0.502mm|HoleSize=0mm|Usage=FLASHONLY|Rotation=0.000|XOffset=0mm|YOffset=0mm|HoleType=Round|Shape=RoundedRectangle|*
%AMROUNDEDRECTD11*
21,1,2.803,0.800,0,0,0.0*
21,1,1.800,1.803,0,0,0.0*
1,1,1.003,0.900,-0.400*
1,1,1.003,-0.900,-0.400*
1,1,1.003,-0.900,0.400*
1,1,1.003,0.900,0.400*
%
%ADD11ROUNDEDRECTD11*%
%ADD12C,1.803*%
%ADD13R,1.803X1.803*%
%ADD14C,3.997*%
%ADD55R,0.305X0.610*%
G04:AMPARAMS|DCode=60|XSize=0.703mm|YSize=0.703mm|CornerRadius=0.127mm|HoleSize=0mm|Usage=FLASHONLY|Rotation=0.000|XOffset=0mm|YOffset=0mm|HoleType=Round|Shape=RoundedRectangle|*
%AMROUNDEDRECTD60*
21,1,0.703,0.450,0,0,0.0*
21,1,0.450,0.703,0,0,0.0*
1,1,0.253,0.225,-0.225*
1,1,0.253,-0.225,-0.225*
1,1,0.253,-0.225,0.225*
1,1,0.253,0.225,0.225*
%
%ADD60ROUNDEDRECTD60*%
G04:AMPARAMS|DCode=61|XSize=1.253mm|YSize=1.553mm|CornerRadius=0.154mm|HoleSize=0mm|Usage=FLASHONLY|Rotation=90.000|XOffset=0mm|YOffset=0mm|HoleType=Round|Shape=RoundedRectangle|*
%AMROUNDEDRECTD61*
21,1,1.253,1.245,0,0,90.0*
21,1,0.945,1.553,0,0,90.0*
1,1,0.308,0.623,0.472*
1,1,0.308,0.623,-0.472*
1,1,0.308,-0.623,-0.472*
1,1,0.308,-0.623,0.472*
%
%ADD61ROUNDEDRECTD61*%
G04:AMPARAMS|DCode=62|XSize=0.703mm|YSize=0.703mm|CornerRadius=0.127mm|HoleSize=0mm|Usage=FLASHONLY|Rotation=90.000|XOffset=0mm|YOffset=0mm|HoleType=Round|Shape=RoundedRectangle|*
%AMROUNDEDRECTD62*
21,1,0.703,0.450,0,0,90.0*
21,1,0.450,0.703,0,0,90.0*
1,1,0.253,0.225,0.225*
1,1,0.253,0.225,-0.225*
1,1,0.253,-0.225,-0.225*
1,1,0.253,-0.225,0.225*
%
%ADD62ROUNDEDRECTD62*%
G04:AMPARAMS|DCode=63|XSize=0.703mm|YSize=0.753mm|CornerRadius=0.127mm|HoleSize=0mm|Usage=FLASHONLY|Rotation=0.000|XOffset=0mm|YOffset=0mm|HoleType=Round|Shape=RoundedRectangle|*
%AMROUNDEDRECTD63*
21,1,0.703,0.500,0,0,0.0*
21,1,0.450,0.753,0,0,0.0*
1,1,0.253,0.225,-0.250*
1,1,0.253,-0.225,-0.250*
1,1,0.253,-0.225,0.250*
1,1,0.253,0.225,0.250*
%
%ADD63ROUNDEDRECTD63*%
%ADD64R,1.253X1.603*%
G04:AMPARAMS|DCode=65|XSize=0.803mm|YSize=1.203mm|CornerRadius=0.177mm|HoleSize=0mm|Usage=FLASHONLY|Rotation=180.000|XOffset=0mm|YOffset=0mm|HoleType=Round|Shape=RoundedRectangle|*
%AMROUNDEDRECTD65*
21,1,0.803,0.850,0,0,180.0*
21,1,0.450,1.203,0,0,180.0*
1,1,0.353,-0.225,0.425*
1,1,0.353,0.225,0.425*
1,1,0.353,0.225,-0.425*
1,1,0.353,-0.225,-0.425*
%
%ADD65ROUNDEDRECTD65*%
G04:AMPARAMS|DCode=66|XSize=0.803mm|YSize=1.403mm|CornerRadius=0.177mm|HoleSize=0mm|Usage=FLASHONLY|Rotation=90.000|XOffset=0mm|YOffset=0mm|HoleType=Round|Shape=RoundedRectangle|*
%AMROUNDEDRECTD66*
21,1,0.803,1.050,0,0,90.0*
21,1,0.450,1.403,0,0,90.0*
1,1,0.353,0.525,0.225*
1,1,0.353,0.525,-0.225*
1,1,0.353,-0.525,-0.225*
1,1,0.353,-0.525,0.225*
%
%ADD66ROUNDEDRECTD66*%
G04:AMPARAMS|DCode=67|XSize=0.623mm|YSize=0.753mm|CornerRadius=0.123mm|HoleSize=0mm|Usage=FLASHONLY|Rotation=90.000|XOffset=0mm|YOffset=0mm|HoleType=Round|Shape=RoundedRectangle|*
%AMROUNDEDRECTD67*
21,1,0.623,0.508,0,0,90.0*
21,1,0.378,0.753,0,0,90.0*
1,1,0.245,0.254,0.189*
1,1,0.245,0.254,-0.189*
1,1,0.245,-0.254,-0.189*
1,1,0.245,-0.254,0.189*
%
%ADD67ROUNDEDRECTD67*%
G04:AMPARAMS|DCode=68|XSize=1.203mm|YSize=2.003mm|CornerRadius=0.227mm|HoleSize=0mm|Usage=FLASHONLY|Rotation=90.000|XOffset=0mm|YOffset=0mm|HoleType=Round|Shape=RoundedRectangle|*
%AMROUNDEDRECTD68*
21,1,1.203,1.550,0,0,90.0*
21,1,0.750,2.003,0,0,90.0*
1,1,0.453,0.775,0.375*
1,1,0.453,0.775,-0.375*
1,1,0.453,-0.775,-0.375*
1,1,0.453,-0.775,0.375*
%
%ADD68ROUNDEDRECTD68*%
G04:AMPARAMS|DCode=69|XSize=2.103mm|YSize=2.103mm|CornerRadius=0.339mm|HoleSize=0mm|Usage=FLASHONLY|Rotation=180.000|XOffset=0mm|YOffset=0mm|HoleType=Round|Shape=RoundedRectangle|*
%AMROUNDEDRECTD69*
21,1,2.103,1.425,0,0,180.0*
21,1,1.425,2.103,0,0,180.0*
1,1,0.678,-0.713,0.713*
1,1,0.678,0.713,0.713*
1,1,0.678,0.713,-0.713*
1,1,0.678,-0.713,-0.713*
%
%ADD69ROUNDEDRECTD69*%
G04:AMPARAMS|DCode=70|XSize=0.603mm|YSize=1.553mm|CornerRadius=0.152mm|HoleSize=0mm|Usage=FLASHONLY|Rotation=90.000|XOffset=0mm|YOffset=0mm|HoleType=Round|Shape=RoundedRectangle|*
%AMROUNDEDRECTD70*
21,1,0.603,1.250,0,0,90.0*
21,1,0.300,1.553,0,0,90.0*
1,1,0.303,0.625,0.150*
1,1,0.303,0.625,-0.150*
1,1,0.303,-0.625,-0.150*
1,1,0.303,-0.625,0.150*
%
%ADD70ROUNDEDRECTD70*%
G04:AMPARAMS|DCode=71|XSize=1.503mm|YSize=1.653mm|CornerRadius=0.264mm|HoleSize=0mm|Usage=FLASHONLY|Rotation=180.000|XOffset=0mm|YOffset=0mm|HoleType=Round|Shape=RoundedRectangle|*
%AMROUNDEDRECTD71*
21,1,1.503,1.125,0,0,180.0*
21,1,0.975,1.653,0,0,180.0*
1,1,0.528,-0.488,0.563*
1,1,0.528,0.488,0.563*
1,1,0.528,0.488,-0.563*
1,1,0.528,-0.488,-0.563*
%
%ADD71ROUNDEDRECTD71*%
G04:AMPARAMS|DCode=72|XSize=1.603mm|YSize=1.803mm|CornerRadius=0.277mm|HoleSize=0mm|Usage=FLASHONLY|Rotation=180.000|XOffset=0mm|YOffset=0mm|HoleType=Round|Shape=RoundedRectangle|*
%AMROUNDEDRECTD72*
21,1,1.603,1.250,0,0,180.0*
21,1,1.050,1.803,0,0,180.0*
1,1,0.553,-0.525,0.625*
1,1,0.553,0.525,0.625*
1,1,0.553,0.525,-0.625*
1,1,0.553,-0.525,-0.625*
%
%ADD72ROUNDEDRECTD72*%
%ADD73R,0.753X1.403*%
G04:AMPARAMS|DCode=74|XSize=0.85mm|YSize=0.95mm|CornerRadius=0.11mm|HoleSize=0mm|Usage=FLASHONLY|Rotation=270.000|XOffset=0mm|YOffset=0mm|HoleType=Round|Shape=RoundedRectangle|*
%AMROUNDEDRECTD74*
21,1,0.850,0.730,0,0,270.0*
21,1,0.630,0.950,0,0,270.0*
1,1,0.220,-0.365,-0.315*
1,1,0.220,-0.365,0.315*
1,1,0.220,0.365,0.315*
1,1,0.220,0.365,-0.315*
%
%ADD74ROUNDEDRECTD74*%
G04:AMPARAMS|DCode=75|XSize=0.703mm|YSize=0.753mm|CornerRadius=0.127mm|HoleSize=0mm|Usage=FLASHONLY|Rotation=90.000|XOffset=0mm|YOffset=0mm|HoleType=Round|Shape=RoundedRectangle|*
%AMROUNDEDRECTD75*
21,1,0.703,0.500,0,0,90.0*
21,1,0.450,0.753,0,0,90.0*
1,1,0.253,0.250,0.225*
1,1,0.253,0.250,-0.225*
1,1,0.253,-0.250,-0.225*
1,1,0.253,-0.250,0.225*
%
%ADD75ROUNDEDRECTD75*%
G04:AMPARAMS|DCode=76|XSize=0.903mm|YSize=1.003mm|CornerRadius=0.137mm|HoleSize=0mm|Usage=FLASHONLY|Rotation=270.000|XOffset=0mm|YOffset=0mm|HoleType=Round|Shape=RoundedRectangle|*
%AMROUNDEDRECTD76*
21,1,0.903,0.730,0,0,270.0*
21,1,0.630,1.003,0,0,270.0*
1,1,0.273,-0.365,-0.315*
1,1,0.273,-0.365,0.315*
1,1,0.273,0.365,0.315*
1,1,0.273,0.365,-0.315*
%
%ADD76ROUNDEDRECTD76*%
G04:AMPARAMS|DCode=77|XSize=1.153mm|YSize=1.003mm|CornerRadius=0.202mm|HoleSize=0mm|Usage=FLASHONLY|Rotation=180.000|XOffset=0mm|YOffset=0mm|HoleType=Round|Shape=RoundedRectangle|*
%AMROUNDEDRECTD77*
21,1,1.153,0.600,0,0,180.0*
21,1,0.750,1.003,0,0,180.0*
1,1,0.403,-0.375,0.300*
1,1,0.403,0.375,0.300*
1,1,0.403,0.375,-0.300*
1,1,0.403,-0.375,-0.300*
%
%ADD77ROUNDEDRECTD77*%
G04:AMPARAMS|DCode=78|XSize=0.603mm|YSize=1.003mm|CornerRadius=0.152mm|HoleSize=0mm|Usage=FLASHONLY|Rotation=180.000|XOffset=0mm|YOffset=0mm|HoleType=Round|Shape=RoundedRectangle|*
%AMROUNDEDRECTD78*
21,1,0.603,0.700,0,0,180.0*
21,1,0.300,1.003,0,0,180.0*
1,1,0.303,-0.150,0.350*
1,1,0.303,0.150,0.350*
1,1,0.303,0.150,-0.350*
1,1,0.303,-0.150,-0.350*
%
%ADD78ROUNDEDRECTD78*%
G04:AMPARAMS|DCode=79|XSize=0.753mm|YSize=1.003mm|CornerRadius=0.17mm|HoleSize=0mm|Usage=FLASHONLY|Rotation=90.000|XOffset=0mm|YOffset=0mm|HoleType=Round|Shape=RoundedRectangle|*
%AMROUNDEDRECTD79*
21,1,0.753,0.663,0,0,90.0*
21,1,0.413,1.003,0,0,90.0*
1,1,0.341,0.331,0.206*
1,1,0.341,0.331,-0.206*
1,1,0.341,-0.331,-0.206*
1,1,0.341,-0.331,0.206*
%
%ADD79ROUNDEDRECTD79*%
G04:AMPARAMS|DCode=80|XSize=0.903mm|YSize=0.453mm|CornerRadius=0.164mm|HoleSize=0mm|Usage=FLASHONLY|Rotation=180.000|XOffset=0mm|YOffset=0mm|HoleType=Round|Shape=RoundedRectangle|*
%AMROUNDEDRECTD80*
21,1,0.903,0.125,0,0,180.0*
21,1,0.575,0.453,0,0,180.0*
1,1,0.328,-0.288,0.063*
1,1,0.328,0.288,0.063*
1,1,0.328,0.288,-0.063*
1,1,0.328,-0.288,-0.063*
%
%ADD80ROUNDEDRECTD80*%
G04:AMPARAMS|DCode=81|XSize=0.903mm|YSize=0.453mm|CornerRadius=0.164mm|HoleSize=0mm|Usage=FLASHONLY|Rotation=270.000|XOffset=0mm|YOffset=0mm|HoleType=Round|Shape=RoundedRectangle|*
%AMROUNDEDRECTD81*
21,1,0.903,0.125,0,0,270.0*
21,1,0.575,0.453,0,0,270.0*
1,1,0.328,-0.063,-0.288*
1,1,0.328,-0.063,0.288*
1,1,0.328,0.063,0.288*
1,1,0.328,0.063,-0.288*
%
%ADD81ROUNDEDRECTD81*%
G04:AMPARAMS|DCode=82|XSize=2.203mm|YSize=2.203mm|CornerRadius=0.152mm|HoleSize=0mm|Usage=FLASHONLY|Rotation=270.000|XOffset=0mm|YOffset=0mm|HoleType=Round|Shape=RoundedRectangle|*
%AMROUNDEDRECTD82*
21,1,2.203,1.900,0,0,270.0*
21,1,1.900,2.203,0,0,270.0*
1,1,0.303,-0.950,-0.950*
1,1,0.303,-0.950,0.950*
1,1,0.303,0.950,0.950*
1,1,0.303,0.950,-0.950*
%
%ADD82ROUNDEDRECTD82*%
G04:AMPARAMS|DCode=83|XSize=0.403mm|YSize=0.403mm|CornerRadius=0.127mm|HoleSize=0mm|Usage=FLASHONLY|Rotation=90.000|XOffset=0mm|YOffset=0mm|HoleType=Round|Shape=RoundedRectangle|*
%AMROUNDEDRECTD83*
21,1,0.403,0.150,0,0,90.0*
21,1,0.150,0.403,0,0,90.0*
1,1,0.253,0.075,0.075*
1,1,0.253,0.075,-0.075*
1,1,0.253,-0.075,-0.075*
1,1,0.253,-0.075,0.075*
%
%ADD83ROUNDEDRECTD83*%
G04:AMPARAMS|DCode=84|XSize=0.703mm|YSize=0.803mm|CornerRadius=0.164mm|HoleSize=0mm|Usage=FLASHONLY|Rotation=90.000|XOffset=0mm|YOffset=0mm|HoleType=Round|Shape=RoundedRectangle|*
%AMROUNDEDRECTD84*
21,1,0.703,0.475,0,0,90.0*
21,1,0.375,0.803,0,0,90.0*
1,1,0.328,0.238,0.188*
1,1,0.328,0.238,-0.188*
1,1,0.328,-0.238,-0.188*
1,1,0.328,-0.238,0.188*
%
%ADD84ROUNDEDRECTD84*%
%ADD85O,1.103X0.453*%
%ADD86O,0.453X1.103*%
G04:AMPARAMS|DCode=87|XSize=3.703mm|YSize=3.703mm|CornerRadius=0.277mm|HoleSize=0mm|Usage=FLASHONLY|Rotation=0.000|XOffset=0mm|YOffset=0mm|HoleType=Round|Shape=RoundedRectangle|*
%AMROUNDEDRECTD87*
21,1,3.703,3.150,0,0,0.0*
21,1,3.150,3.703,0,0,0.0*
1,1,0.553,1.575,-1.575*
1,1,0.553,-1.575,-1.575*
1,1,0.553,-1.575,1.575*
1,1,0.553,1.575,1.575*
%
%ADD87ROUNDEDRECTD87*%
%ADD88R,0.703X0.553*%
%ADD89R,0.753X0.603*%
G36*
X56831Y73860D02*
X56844Y73857D01*
X56857Y73853D01*
X56869Y73847D01*
X56880Y73840D01*
X56890Y73831D01*
X56940Y73781D01*
X56949Y73771D01*
X56956Y73760D01*
X56962Y73748D01*
X56966Y73735D01*
X56969Y73722D01*
X56970Y73709D01*
Y70309D01*
X56969Y70296D01*
X56966Y70283D01*
X56962Y70270D01*
X56956Y70258D01*
X56949Y70247D01*
X56940Y70237D01*
X56890Y70187D01*
X56880Y70178D01*
X56869Y70171D01*
X56857Y70165D01*
X56844Y70161D01*
X56831Y70158D01*
X56818Y70157D01*
X53418D01*
X53405Y70158D01*
X53392Y70161D01*
X53379Y70165D01*
X53367Y70171D01*
X53356Y70178D01*
X53346Y70187D01*
X53296Y70237D01*
X53287Y70247D01*
X53280Y70258D01*
X53274Y70270D01*
X53270Y70283D01*
X53267Y70296D01*
X53266Y70309D01*
Y73509D01*
X53267Y73522D01*
X53270Y73535D01*
X53274Y73548D01*
X53280Y73560D01*
X53287Y73571D01*
X53296Y73581D01*
X53546Y73831D01*
X53556Y73840D01*
X53567Y73847D01*
X53579Y73853D01*
X53592Y73857D01*
X53605Y73860D01*
X53618Y73861D01*
X56818D01*
X56831Y73860D01*
D02*
G37*
G36*
X77904Y53891D02*
X77917Y53888D01*
X77930Y53884D01*
X77942Y53878D01*
X77953Y53871D01*
X77963Y53862D01*
X77972Y53852D01*
X77979Y53841D01*
X77985Y53829D01*
X77989Y53816D01*
X77992Y53803D01*
X77993Y53790D01*
Y52815D01*
X77992Y52802D01*
X77989Y52789D01*
X77985Y52776D01*
X77979Y52764D01*
X77972Y52753D01*
X77963Y52743D01*
X77288Y52068D01*
X77278Y52059D01*
X77267Y52052D01*
X77255Y52046D01*
X77242Y52042D01*
X77229Y52039D01*
X77216Y52038D01*
X77203Y52039D01*
X77190Y52042D01*
X77177Y52046D01*
X77165Y52052D01*
X77154Y52059D01*
X77144Y52068D01*
X76469Y52743D01*
X76460Y52753D01*
X76453Y52764D01*
X76447Y52776D01*
X76443Y52789D01*
X76440Y52802D01*
X76439Y52815D01*
Y53790D01*
X76440Y53803D01*
X76443Y53816D01*
X76447Y53829D01*
X76453Y53841D01*
X76460Y53852D01*
X76469Y53862D01*
X76479Y53871D01*
X76490Y53878D01*
X76502Y53884D01*
X76515Y53888D01*
X76528Y53891D01*
X76541Y53892D01*
X77891D01*
X77904Y53891D01*
D02*
G37*
G36*
X77904Y52616D02*
X77917Y52613D01*
X77930Y52609D01*
X77942Y52603D01*
X77953Y52596D01*
X77963Y52587D01*
X77972Y52577D01*
X77979Y52566D01*
X77985Y52554D01*
X77989Y52541D01*
X77992Y52528D01*
X77993Y52515D01*
Y50640D01*
X77992Y50627D01*
X77989Y50614D01*
X77985Y50601D01*
X77979Y50589D01*
X77972Y50578D01*
X77963Y50568D01*
X77953Y50559D01*
X77942Y50552D01*
X77930Y50546D01*
X77917Y50542D01*
X77904Y50539D01*
X77891Y50538D01*
X76541D01*
X76528Y50539D01*
X76515Y50542D01*
X76502Y50546D01*
X76490Y50552D01*
X76479Y50559D01*
X76469Y50568D01*
X76460Y50578D01*
X76453Y50589D01*
X76447Y50601D01*
X76443Y50614D01*
X76440Y50627D01*
X76439Y50640D01*
Y52515D01*
X76440Y52528D01*
X76443Y52541D01*
X76447Y52554D01*
X76453Y52566D01*
X76460Y52577D01*
X76469Y52587D01*
X76479Y52596D01*
X76490Y52603D01*
X76502Y52609D01*
X76515Y52613D01*
X76528Y52616D01*
X76541Y52617D01*
X76554Y52616D01*
X76567Y52613D01*
X76580Y52609D01*
X76592Y52603D01*
X76603Y52596D01*
X76613Y52587D01*
X77216Y51984D01*
X77819Y52587D01*
X77829Y52596D01*
X77840Y52603D01*
X77852Y52609D01*
X77865Y52613D01*
X77878Y52616D01*
X77891Y52617D01*
X77904Y52616D01*
D02*
G37*
G36*
X8117Y24101D02*
X4863Y23527D01*
X4262Y24777D01*
X1341Y41347D01*
X4963Y41986D01*
X8117Y24101D01*
D02*
G37*
D10*
X76529Y60275D02*
D03*
D11*
Y57675D02*
D03*
D12*
X74676Y30480D02*
D03*
X77470Y22860D02*
D03*
Y25400D02*
D03*
Y27940D02*
D03*
Y30480D02*
D03*
D13*
Y33020D02*
D03*
D14*
X35560Y3556D02*
D03*
X73025Y17907D02*
D03*
X38989Y81661D02*
D03*
D55*
X45212Y12192D02*
D03*
D60*
X37219Y14986D02*
D03*
X38219D02*
D03*
X43299Y75819D02*
D03*
X42299D02*
D03*
X50411Y72644D02*
D03*
X49411D02*
D03*
X53586Y68453D02*
D03*
X52586D02*
D03*
X59555Y70739D02*
D03*
X58555D02*
D03*
X60587Y70993D02*
D03*
X61587D02*
D03*
X50792Y74676D02*
D03*
X49792D02*
D03*
X53197Y76581D02*
D03*
X52197D02*
D03*
X55872Y76835D02*
D03*
X54872D02*
D03*
X62603Y29972D02*
D03*
X61603D02*
D03*
X67445Y33909D02*
D03*
X68445D02*
D03*
X70223Y46482D02*
D03*
X69223D02*
D03*
X69207Y44196D02*
D03*
X68207D02*
D03*
X37219Y14224D02*
D03*
X38219D02*
D03*
X72652Y40767D02*
D03*
X73652D02*
D03*
X75303Y40767D02*
D03*
X74303D02*
D03*
Y46736D02*
D03*
X75303D02*
D03*
X72652D02*
D03*
X73652D02*
D03*
X73414Y52070D02*
D03*
X74414D02*
D03*
X69223Y43434D02*
D03*
X70223D02*
D03*
Y44958D02*
D03*
X69223D02*
D03*
X69207Y45720D02*
D03*
X68207D02*
D03*
X69207Y48006D02*
D03*
X68207D02*
D03*
X69207Y47244D02*
D03*
X68207D02*
D03*
X49776Y70358D02*
D03*
X48776D02*
D03*
X49411Y71882D02*
D03*
X50411D02*
D03*
X50538Y71120D02*
D03*
X49538D02*
D03*
X59555Y71755D02*
D03*
X58555D02*
D03*
X59809Y24765D02*
D03*
X58809D02*
D03*
X51300Y73914D02*
D03*
X50300D02*
D03*
X59809Y27305D02*
D03*
X58809D02*
D03*
X44950Y75819D02*
D03*
X43950D02*
D03*
X48252D02*
D03*
X47252D02*
D03*
X47744Y76581D02*
D03*
X46744D02*
D03*
X50030Y75692D02*
D03*
X49030D02*
D03*
X51554D02*
D03*
X50554D02*
D03*
X52197Y75819D02*
D03*
X53197D02*
D03*
X55872Y76073D02*
D03*
X54872D02*
D03*
D61*
X77216Y51065D02*
D03*
Y53340D02*
D03*
D62*
X67437Y43188D02*
D03*
Y44188D02*
D03*
Y45728D02*
D03*
Y46728D02*
D03*
X47117Y13073D02*
D03*
Y12073D02*
D03*
X71882Y41910D02*
D03*
Y40910D02*
D03*
X54737Y67445D02*
D03*
Y68445D02*
D03*
X50546Y69350D02*
D03*
Y70350D02*
D03*
X46863Y73017D02*
D03*
Y72017D02*
D03*
X48641Y72128D02*
D03*
Y71128D02*
D03*
X46482Y73668D02*
D03*
Y74668D02*
D03*
X63119Y26146D02*
D03*
Y25146D02*
D03*
X70866Y30869D02*
D03*
Y31869D02*
D03*
X76327Y43442D02*
D03*
Y44442D02*
D03*
X65659Y45966D02*
D03*
Y44966D02*
D03*
X57277Y68318D02*
D03*
Y67318D02*
D03*
X59817Y69842D02*
D03*
Y68842D02*
D03*
X47625Y72017D02*
D03*
Y73017D02*
D03*
X51308Y71112D02*
D03*
Y70112D02*
D03*
X51181Y72890D02*
D03*
Y71890D02*
D03*
X45593Y73668D02*
D03*
Y74668D02*
D03*
X48387Y73676D02*
D03*
Y74676D02*
D03*
X47498Y74668D02*
D03*
Y73668D02*
D03*
X49149Y74676D02*
D03*
Y73676D02*
D03*
X54102Y76827D02*
D03*
Y75827D02*
D03*
X61722Y28202D02*
D03*
Y29202D02*
D03*
X75438Y34171D02*
D03*
Y35171D02*
D03*
X48387Y77589D02*
D03*
Y76589D02*
D03*
X56515Y77732D02*
D03*
Y78732D02*
D03*
X69977Y30869D02*
D03*
Y31869D02*
D03*
X40005Y12073D02*
D03*
Y13073D02*
D03*
X40894Y12073D02*
D03*
Y13073D02*
D03*
X41148Y10295D02*
D03*
Y11295D02*
D03*
X42926Y12184D02*
D03*
Y11184D02*
D03*
X41910Y12184D02*
D03*
Y11184D02*
D03*
D63*
X72652Y23241D02*
D03*
X73652D02*
D03*
X56507Y68453D02*
D03*
X55507D02*
D03*
X70239Y29591D02*
D03*
X71239D02*
D03*
X66675Y44196D02*
D03*
X65675D02*
D03*
X75319Y38608D02*
D03*
X76319D02*
D03*
X55507Y67564D02*
D03*
X56507D02*
D03*
X70239Y28575D02*
D03*
X71239D02*
D03*
X45601Y77470D02*
D03*
X46601D02*
D03*
X65413Y33020D02*
D03*
X66413D02*
D03*
X67445D02*
D03*
X68445D02*
D03*
D64*
X79322Y51689D02*
D03*
Y48089D02*
D03*
X80772Y51689D02*
D03*
Y48089D02*
D03*
D65*
X72964Y48028D02*
D03*
X74864D02*
D03*
Y50778D02*
D03*
X73914Y50778D02*
D03*
X72964Y50778D02*
D03*
D66*
X68950Y41402D02*
D03*
X70750Y40452D02*
D03*
Y42352D02*
D03*
X72506Y24450D02*
D03*
Y26350D02*
D03*
X74306Y25400D02*
D03*
D67*
X74003Y22225D02*
D03*
X75603D02*
D03*
X73876Y27940D02*
D03*
X75476D02*
D03*
X75476Y33020D02*
D03*
X73876D02*
D03*
D68*
X61214Y27178D02*
D03*
Y24678D02*
D03*
D69*
X80800Y43200D02*
D03*
Y40800D02*
D03*
D70*
X78125Y42000D02*
D03*
Y42650D02*
D03*
X78125Y43300D02*
D03*
X78125Y41350D02*
D03*
X78125Y40700D02*
D03*
D71*
X80800Y45400D02*
D03*
Y38600D02*
D03*
D72*
X78350Y45200D02*
D03*
Y38800D02*
D03*
D73*
X73091Y44861D02*
D03*
X74041D02*
D03*
X74991D02*
D03*
Y42261D02*
D03*
X74041D02*
D03*
X73091D02*
D03*
D74*
X71000Y51473D02*
D03*
Y49873D02*
D03*
D75*
X71000Y47760D02*
D03*
Y48760D02*
D03*
Y34806D02*
D03*
Y35806D02*
D03*
X67056Y70120D02*
D03*
Y71120D02*
D03*
X75438Y26408D02*
D03*
Y25408D02*
D03*
X62611Y29202D02*
D03*
Y28202D02*
D03*
D76*
X71000Y38467D02*
D03*
Y36867D02*
D03*
D77*
X58467Y67725D02*
D03*
X59817D02*
D03*
X58467Y66675D02*
D03*
X59817D02*
D03*
D78*
X60833Y69841D02*
D03*
X61483Y69841D02*
D03*
X62133Y69841D02*
D03*
Y67691D02*
D03*
X60833D02*
D03*
D79*
X65591Y71262D02*
D03*
Y69962D02*
D03*
X63441Y70612D02*
D03*
D80*
X57518Y73759D02*
D03*
Y73259D02*
D03*
Y72759D02*
D03*
Y72259D02*
D03*
Y71759D02*
D03*
Y71259D02*
D03*
Y70759D02*
D03*
Y70259D02*
D03*
X52718D02*
D03*
Y70759D02*
D03*
Y71259D02*
D03*
Y71759D02*
D03*
Y72259D02*
D03*
Y72759D02*
D03*
Y73259D02*
D03*
Y73759D02*
D03*
D81*
X53368Y74409D02*
D03*
X53868D02*
D03*
X54368D02*
D03*
X54868D02*
D03*
X55368D02*
D03*
X55868D02*
D03*
X56368D02*
D03*
X56868D02*
D03*
Y69609D02*
D03*
X56368D02*
D03*
X55868D02*
D03*
X55368D02*
D03*
X54868D02*
D03*
X54368D02*
D03*
X53868D02*
D03*
X53368D02*
D03*
D82*
X55118Y72009D02*
D03*
D83*
X45647Y76219D02*
D03*
Y75819D02*
D03*
Y75419D02*
D03*
X46047D02*
D03*
Y75819D02*
D03*
Y76219D02*
D03*
D84*
X55514Y78732D02*
D03*
Y77732D02*
D03*
X54214Y78232D02*
D03*
D85*
X64148Y26698D02*
D03*
Y27198D02*
D03*
Y27698D02*
D03*
Y28198D02*
D03*
Y28698D02*
D03*
Y29198D02*
D03*
Y29698D02*
D03*
Y30198D02*
D03*
X68948D02*
D03*
Y29698D02*
D03*
Y29198D02*
D03*
Y28698D02*
D03*
Y28198D02*
D03*
Y27698D02*
D03*
Y27198D02*
D03*
Y26698D02*
D03*
D86*
X64798Y30848D02*
D03*
X65298D02*
D03*
X65798D02*
D03*
X66298D02*
D03*
X66798D02*
D03*
X67298D02*
D03*
X67798D02*
D03*
X68298D02*
D03*
Y26048D02*
D03*
X67798D02*
D03*
X67298D02*
D03*
X66798D02*
D03*
X66298D02*
D03*
X65798D02*
D03*
X65298D02*
D03*
X64798D02*
D03*
D87*
X66548Y28448D02*
D03*
D88*
X36694Y13040D02*
D03*
Y12390D02*
D03*
Y11740D02*
D03*
Y11090D02*
D03*
X38744Y11090D02*
D03*
Y11740D02*
D03*
Y12390D02*
D03*
Y13040D02*
D03*
D89*
X46362Y12192D02*
D03*
Y11392D02*
D03*
Y12992D02*
D03*
X44062D02*
D03*
Y12192D02*
D03*
Y11392D02*
D03*
M02*
